G04 #@! TF.GenerationSoftware,KiCad,Pcbnew,8.0.1*
G04 #@! TF.CreationDate,2025-04-02T13:34:03-04:00*
G04 #@! TF.ProjectId,atiny_1616_gamer,6174696e-795f-4313-9631-365f67616d65,rev?*
G04 #@! TF.SameCoordinates,Original*
G04 #@! TF.FileFunction,Soldermask,Bot*
G04 #@! TF.FilePolarity,Negative*
%FSLAX46Y46*%
G04 Gerber Fmt 4.6, Leading zero omitted, Abs format (unit mm)*
G04 Created by KiCad (PCBNEW 8.0.1) date 2025-04-02 13:34:03*
%MOMM*%
%LPD*%
G01*
G04 APERTURE LIST*
G04 APERTURE END LIST*
G36*
X129092973Y-106596651D02*
G01*
X129255500Y-106669012D01*
X129399430Y-106773584D01*
X129518473Y-106905795D01*
X129607427Y-107059867D01*
X129662404Y-107229067D01*
X129681000Y-107406000D01*
X129662404Y-107582933D01*
X129607427Y-107752133D01*
X129518473Y-107906205D01*
X129399430Y-108038416D01*
X129255500Y-108142988D01*
X129092973Y-108215349D01*
X128918954Y-108252338D01*
X128741046Y-108252338D01*
X128567027Y-108215349D01*
X128404500Y-108142988D01*
X128260570Y-108038416D01*
X128141527Y-107906205D01*
X128052573Y-107752133D01*
X127997596Y-107582933D01*
X127979000Y-107406000D01*
X127997596Y-107229067D01*
X128052573Y-107059867D01*
X128141527Y-106905795D01*
X128260570Y-106773584D01*
X128404500Y-106669012D01*
X128567027Y-106596651D01*
X128741046Y-106559662D01*
X128918954Y-106559662D01*
X129092973Y-106596651D01*
G37*
G36*
X135592973Y-106596651D02*
G01*
X135755500Y-106669012D01*
X135899430Y-106773584D01*
X136018473Y-106905795D01*
X136107427Y-107059867D01*
X136162404Y-107229067D01*
X136181000Y-107406000D01*
X136162404Y-107582933D01*
X136107427Y-107752133D01*
X136018473Y-107906205D01*
X135899430Y-108038416D01*
X135755500Y-108142988D01*
X135592973Y-108215349D01*
X135418954Y-108252338D01*
X135241046Y-108252338D01*
X135067027Y-108215349D01*
X134904500Y-108142988D01*
X134760570Y-108038416D01*
X134641527Y-107906205D01*
X134552573Y-107752133D01*
X134497596Y-107582933D01*
X134479000Y-107406000D01*
X134497596Y-107229067D01*
X134552573Y-107059867D01*
X134641527Y-106905795D01*
X134760570Y-106773584D01*
X134904500Y-106669012D01*
X135067027Y-106596651D01*
X135241046Y-106559662D01*
X135418954Y-106559662D01*
X135592973Y-106596651D01*
G37*
G36*
X129618034Y-102062764D02*
G01*
X129651125Y-102084875D01*
X129673236Y-102117966D01*
X129681000Y-102157000D01*
X129681000Y-103655000D01*
X129673236Y-103694034D01*
X129651125Y-103727125D01*
X129618034Y-103749236D01*
X129579000Y-103757000D01*
X128081000Y-103757000D01*
X128041966Y-103749236D01*
X128008875Y-103727125D01*
X127986764Y-103694034D01*
X127979000Y-103655000D01*
X127979000Y-102157000D01*
X127986764Y-102117966D01*
X128008875Y-102084875D01*
X128041966Y-102062764D01*
X128081000Y-102055000D01*
X129579000Y-102055000D01*
X129618034Y-102062764D01*
G37*
G36*
X135592973Y-102096651D02*
G01*
X135755500Y-102169012D01*
X135899430Y-102273584D01*
X136018473Y-102405795D01*
X136107427Y-102559867D01*
X136162404Y-102729067D01*
X136181000Y-102906000D01*
X136162404Y-103082933D01*
X136107427Y-103252133D01*
X136018473Y-103406205D01*
X135899430Y-103538416D01*
X135755500Y-103642988D01*
X135592973Y-103715349D01*
X135418954Y-103752338D01*
X135241046Y-103752338D01*
X135067027Y-103715349D01*
X134904500Y-103642988D01*
X134760570Y-103538416D01*
X134641527Y-103406205D01*
X134552573Y-103252133D01*
X134497596Y-103082933D01*
X134479000Y-102906000D01*
X134497596Y-102729067D01*
X134552573Y-102559867D01*
X134641527Y-102405795D01*
X134760570Y-102273584D01*
X134904500Y-102169012D01*
X135067027Y-102096651D01*
X135241046Y-102059662D01*
X135418954Y-102059662D01*
X135592973Y-102096651D01*
G37*
G36*
X121599973Y-99103651D02*
G01*
X121762500Y-99176012D01*
X121906430Y-99280584D01*
X122025473Y-99412795D01*
X122114427Y-99566867D01*
X122169404Y-99736067D01*
X122188000Y-99913000D01*
X122169404Y-100089933D01*
X122114427Y-100259133D01*
X122025473Y-100413205D01*
X121906430Y-100545416D01*
X121762500Y-100649988D01*
X121599973Y-100722349D01*
X121425954Y-100759338D01*
X121248046Y-100759338D01*
X121074027Y-100722349D01*
X120911500Y-100649988D01*
X120767570Y-100545416D01*
X120648527Y-100413205D01*
X120559573Y-100259133D01*
X120504596Y-100089933D01*
X120486000Y-99913000D01*
X120504596Y-99736067D01*
X120559573Y-99566867D01*
X120648527Y-99412795D01*
X120767570Y-99280584D01*
X120911500Y-99176012D01*
X121074027Y-99103651D01*
X121248046Y-99066662D01*
X121425954Y-99066662D01*
X121599973Y-99103651D01*
G37*
G36*
X128099973Y-99103651D02*
G01*
X128262500Y-99176012D01*
X128406430Y-99280584D01*
X128525473Y-99412795D01*
X128614427Y-99566867D01*
X128669404Y-99736067D01*
X128688000Y-99913000D01*
X128669404Y-100089933D01*
X128614427Y-100259133D01*
X128525473Y-100413205D01*
X128406430Y-100545416D01*
X128262500Y-100649988D01*
X128099973Y-100722349D01*
X127925954Y-100759338D01*
X127748046Y-100759338D01*
X127574027Y-100722349D01*
X127411500Y-100649988D01*
X127267570Y-100545416D01*
X127148527Y-100413205D01*
X127059573Y-100259133D01*
X127004596Y-100089933D01*
X126986000Y-99913000D01*
X127004596Y-99736067D01*
X127059573Y-99566867D01*
X127148527Y-99412795D01*
X127267570Y-99280584D01*
X127411500Y-99176012D01*
X127574027Y-99103651D01*
X127748046Y-99066662D01*
X127925954Y-99066662D01*
X128099973Y-99103651D01*
G37*
G36*
X136585973Y-99103651D02*
G01*
X136748500Y-99176012D01*
X136892430Y-99280584D01*
X137011473Y-99412795D01*
X137100427Y-99566867D01*
X137155404Y-99736067D01*
X137174000Y-99913000D01*
X137155404Y-100089933D01*
X137100427Y-100259133D01*
X137011473Y-100413205D01*
X136892430Y-100545416D01*
X136748500Y-100649988D01*
X136585973Y-100722349D01*
X136411954Y-100759338D01*
X136234046Y-100759338D01*
X136060027Y-100722349D01*
X135897500Y-100649988D01*
X135753570Y-100545416D01*
X135634527Y-100413205D01*
X135545573Y-100259133D01*
X135490596Y-100089933D01*
X135472000Y-99913000D01*
X135490596Y-99736067D01*
X135545573Y-99566867D01*
X135634527Y-99412795D01*
X135753570Y-99280584D01*
X135897500Y-99176012D01*
X136060027Y-99103651D01*
X136234046Y-99066662D01*
X136411954Y-99066662D01*
X136585973Y-99103651D01*
G37*
G36*
X143085973Y-99103651D02*
G01*
X143248500Y-99176012D01*
X143392430Y-99280584D01*
X143511473Y-99412795D01*
X143600427Y-99566867D01*
X143655404Y-99736067D01*
X143674000Y-99913000D01*
X143655404Y-100089933D01*
X143600427Y-100259133D01*
X143511473Y-100413205D01*
X143392430Y-100545416D01*
X143248500Y-100649988D01*
X143085973Y-100722349D01*
X142911954Y-100759338D01*
X142734046Y-100759338D01*
X142560027Y-100722349D01*
X142397500Y-100649988D01*
X142253570Y-100545416D01*
X142134527Y-100413205D01*
X142045573Y-100259133D01*
X141990596Y-100089933D01*
X141972000Y-99913000D01*
X141990596Y-99736067D01*
X142045573Y-99566867D01*
X142134527Y-99412795D01*
X142253570Y-99280584D01*
X142397500Y-99176012D01*
X142560027Y-99103651D01*
X142734046Y-99066662D01*
X142911954Y-99066662D01*
X143085973Y-99103651D01*
G37*
G36*
X114792000Y-99792000D02*
G01*
X112792000Y-99792000D01*
X112792000Y-97792000D01*
X114792000Y-97792000D01*
X114792000Y-99792000D01*
G37*
G36*
X122125034Y-94569764D02*
G01*
X122158125Y-94591875D01*
X122180236Y-94624966D01*
X122188000Y-94664000D01*
X122188000Y-96162000D01*
X122180236Y-96201034D01*
X122158125Y-96234125D01*
X122125034Y-96256236D01*
X122086000Y-96264000D01*
X120588000Y-96264000D01*
X120548966Y-96256236D01*
X120515875Y-96234125D01*
X120493764Y-96201034D01*
X120486000Y-96162000D01*
X120486000Y-94664000D01*
X120493764Y-94624966D01*
X120515875Y-94591875D01*
X120548966Y-94569764D01*
X120588000Y-94562000D01*
X122086000Y-94562000D01*
X122125034Y-94569764D01*
G37*
G36*
X137111034Y-94569764D02*
G01*
X137144125Y-94591875D01*
X137166236Y-94624966D01*
X137174000Y-94664000D01*
X137174000Y-96162000D01*
X137166236Y-96201034D01*
X137144125Y-96234125D01*
X137111034Y-96256236D01*
X137072000Y-96264000D01*
X135574000Y-96264000D01*
X135534966Y-96256236D01*
X135501875Y-96234125D01*
X135479764Y-96201034D01*
X135472000Y-96162000D01*
X135472000Y-94664000D01*
X135479764Y-94624966D01*
X135501875Y-94591875D01*
X135534966Y-94569764D01*
X135574000Y-94562000D01*
X137072000Y-94562000D01*
X137111034Y-94569764D01*
G37*
G36*
X128099973Y-94603651D02*
G01*
X128262500Y-94676012D01*
X128406430Y-94780584D01*
X128525473Y-94912795D01*
X128614427Y-95066867D01*
X128669404Y-95236067D01*
X128688000Y-95413000D01*
X128669404Y-95589933D01*
X128614427Y-95759133D01*
X128525473Y-95913205D01*
X128406430Y-96045416D01*
X128262500Y-96149988D01*
X128099973Y-96222349D01*
X127925954Y-96259338D01*
X127748046Y-96259338D01*
X127574027Y-96222349D01*
X127411500Y-96149988D01*
X127267570Y-96045416D01*
X127148527Y-95913205D01*
X127059573Y-95759133D01*
X127004596Y-95589933D01*
X126986000Y-95413000D01*
X127004596Y-95236067D01*
X127059573Y-95066867D01*
X127148527Y-94912795D01*
X127267570Y-94780584D01*
X127411500Y-94676012D01*
X127574027Y-94603651D01*
X127748046Y-94566662D01*
X127925954Y-94566662D01*
X128099973Y-94603651D01*
G37*
G36*
X143085973Y-94603651D02*
G01*
X143248500Y-94676012D01*
X143392430Y-94780584D01*
X143511473Y-94912795D01*
X143600427Y-95066867D01*
X143655404Y-95236067D01*
X143674000Y-95413000D01*
X143655404Y-95589933D01*
X143600427Y-95759133D01*
X143511473Y-95913205D01*
X143392430Y-96045416D01*
X143248500Y-96149988D01*
X143085973Y-96222349D01*
X142911954Y-96259338D01*
X142734046Y-96259338D01*
X142560027Y-96222349D01*
X142397500Y-96149988D01*
X142253570Y-96045416D01*
X142134527Y-95913205D01*
X142045573Y-95759133D01*
X141990596Y-95589933D01*
X141972000Y-95413000D01*
X141990596Y-95236067D01*
X142045573Y-95066867D01*
X142134527Y-94912795D01*
X142253570Y-94780584D01*
X142397500Y-94676012D01*
X142560027Y-94603651D01*
X142734046Y-94566662D01*
X142911954Y-94566662D01*
X143085973Y-94603651D01*
G37*
G36*
X114792000Y-95742000D02*
G01*
X112792000Y-95742000D01*
X112792000Y-93742000D01*
X114792000Y-93742000D01*
X114792000Y-95742000D01*
G37*
G36*
X129092973Y-91610651D02*
G01*
X129255500Y-91683012D01*
X129399430Y-91787584D01*
X129518473Y-91919795D01*
X129607427Y-92073867D01*
X129662404Y-92243067D01*
X129681000Y-92420000D01*
X129662404Y-92596933D01*
X129607427Y-92766133D01*
X129518473Y-92920205D01*
X129399430Y-93052416D01*
X129255500Y-93156988D01*
X129092973Y-93229349D01*
X128918954Y-93266338D01*
X128741046Y-93266338D01*
X128567027Y-93229349D01*
X128404500Y-93156988D01*
X128260570Y-93052416D01*
X128141527Y-92920205D01*
X128052573Y-92766133D01*
X127997596Y-92596933D01*
X127979000Y-92420000D01*
X127997596Y-92243067D01*
X128052573Y-92073867D01*
X128141527Y-91919795D01*
X128260570Y-91787584D01*
X128404500Y-91683012D01*
X128567027Y-91610651D01*
X128741046Y-91573662D01*
X128918954Y-91573662D01*
X129092973Y-91610651D01*
G37*
G36*
X135592973Y-91610651D02*
G01*
X135755500Y-91683012D01*
X135899430Y-91787584D01*
X136018473Y-91919795D01*
X136107427Y-92073867D01*
X136162404Y-92243067D01*
X136181000Y-92420000D01*
X136162404Y-92596933D01*
X136107427Y-92766133D01*
X136018473Y-92920205D01*
X135899430Y-93052416D01*
X135755500Y-93156988D01*
X135592973Y-93229349D01*
X135418954Y-93266338D01*
X135241046Y-93266338D01*
X135067027Y-93229349D01*
X134904500Y-93156988D01*
X134760570Y-93052416D01*
X134641527Y-92920205D01*
X134552573Y-92766133D01*
X134497596Y-92596933D01*
X134479000Y-92420000D01*
X134497596Y-92243067D01*
X134552573Y-92073867D01*
X134641527Y-91919795D01*
X134760570Y-91787584D01*
X134904500Y-91683012D01*
X135067027Y-91610651D01*
X135241046Y-91573662D01*
X135418954Y-91573662D01*
X135592973Y-91610651D01*
G37*
G36*
X114792000Y-91692000D02*
G01*
X112792000Y-91692000D01*
X112792000Y-89692000D01*
X114792000Y-89692000D01*
X114792000Y-91692000D01*
G37*
G36*
X129618034Y-87076764D02*
G01*
X129651125Y-87098875D01*
X129673236Y-87131966D01*
X129681000Y-87171000D01*
X129681000Y-88669000D01*
X129673236Y-88708034D01*
X129651125Y-88741125D01*
X129618034Y-88763236D01*
X129579000Y-88771000D01*
X128081000Y-88771000D01*
X128041966Y-88763236D01*
X128008875Y-88741125D01*
X127986764Y-88708034D01*
X127979000Y-88669000D01*
X127979000Y-87171000D01*
X127986764Y-87131966D01*
X128008875Y-87098875D01*
X128041966Y-87076764D01*
X128081000Y-87069000D01*
X129579000Y-87069000D01*
X129618034Y-87076764D01*
G37*
G36*
X135592973Y-87110651D02*
G01*
X135755500Y-87183012D01*
X135899430Y-87287584D01*
X136018473Y-87419795D01*
X136107427Y-87573867D01*
X136162404Y-87743067D01*
X136181000Y-87920000D01*
X136162404Y-88096933D01*
X136107427Y-88266133D01*
X136018473Y-88420205D01*
X135899430Y-88552416D01*
X135755500Y-88656988D01*
X135592973Y-88729349D01*
X135418954Y-88766338D01*
X135241046Y-88766338D01*
X135067027Y-88729349D01*
X134904500Y-88656988D01*
X134760570Y-88552416D01*
X134641527Y-88420205D01*
X134552573Y-88266133D01*
X134497596Y-88096933D01*
X134479000Y-87920000D01*
X134497596Y-87743067D01*
X134552573Y-87573867D01*
X134641527Y-87419795D01*
X134760570Y-87287584D01*
X134904500Y-87183012D01*
X135067027Y-87110651D01*
X135241046Y-87073662D01*
X135418954Y-87073662D01*
X135592973Y-87110651D01*
G37*
G36*
X113469524Y-76417282D02*
G01*
X113657861Y-76490244D01*
X113829584Y-76596570D01*
X113978845Y-76732640D01*
X114100563Y-76893820D01*
X114190591Y-77074621D01*
X114245864Y-77268886D01*
X114264500Y-77470000D01*
X114245864Y-77671114D01*
X114190591Y-77865379D01*
X114100563Y-78046180D01*
X113978845Y-78207360D01*
X113829584Y-78343430D01*
X113657861Y-78449756D01*
X113469524Y-78522718D01*
X113270988Y-78559831D01*
X113069012Y-78559831D01*
X112870476Y-78522718D01*
X112682139Y-78449756D01*
X112510416Y-78343430D01*
X112361155Y-78207360D01*
X112239437Y-78046180D01*
X112149409Y-77865379D01*
X112094136Y-77671114D01*
X112075500Y-77470000D01*
X112094136Y-77268886D01*
X112149409Y-77074621D01*
X112239437Y-76893820D01*
X112361155Y-76732640D01*
X112510416Y-76596570D01*
X112682139Y-76490244D01*
X112870476Y-76417282D01*
X113069012Y-76380169D01*
X113270988Y-76380169D01*
X113469524Y-76417282D01*
G37*
G36*
X151289524Y-76417282D02*
G01*
X151477861Y-76490244D01*
X151649584Y-76596570D01*
X151798845Y-76732640D01*
X151920563Y-76893820D01*
X152010591Y-77074621D01*
X152065864Y-77268886D01*
X152084500Y-77470000D01*
X152065864Y-77671114D01*
X152010591Y-77865379D01*
X151920563Y-78046180D01*
X151798845Y-78207360D01*
X151649584Y-78343430D01*
X151477861Y-78449756D01*
X151289524Y-78522718D01*
X151090988Y-78559831D01*
X150889012Y-78559831D01*
X150690476Y-78522718D01*
X150502139Y-78449756D01*
X150330416Y-78343430D01*
X150181155Y-78207360D01*
X150059437Y-78046180D01*
X149969409Y-77865379D01*
X149914136Y-77671114D01*
X149895500Y-77470000D01*
X149914136Y-77268886D01*
X149969409Y-77074621D01*
X150059437Y-76893820D01*
X150181155Y-76732640D01*
X150330416Y-76596570D01*
X150502139Y-76490244D01*
X150690476Y-76417282D01*
X150889012Y-76380169D01*
X151090988Y-76380169D01*
X151289524Y-76417282D01*
G37*
G36*
X151183139Y-68399023D02*
G01*
X151368857Y-68455359D01*
X151540015Y-68546845D01*
X151690036Y-68669964D01*
X151813155Y-68819985D01*
X151904641Y-68991143D01*
X151960977Y-69176861D01*
X151980000Y-69370000D01*
X151960977Y-69563139D01*
X151904641Y-69748857D01*
X151813155Y-69920015D01*
X151690036Y-70070036D01*
X151540015Y-70193155D01*
X151368857Y-70284641D01*
X151183139Y-70340977D01*
X150990000Y-70360000D01*
X150796861Y-70340977D01*
X150611143Y-70284641D01*
X150439985Y-70193155D01*
X150289964Y-70070036D01*
X150166845Y-69920015D01*
X150075359Y-69748857D01*
X150019023Y-69563139D01*
X150000000Y-69370000D01*
X150019023Y-69176861D01*
X150075359Y-68991143D01*
X150166845Y-68819985D01*
X150289964Y-68669964D01*
X150439985Y-68546845D01*
X150611143Y-68455359D01*
X150796861Y-68399023D01*
X150990000Y-68380000D01*
X151183139Y-68399023D01*
G37*
G36*
X151774137Y-56157866D02*
G01*
X151881887Y-56227113D01*
X151965764Y-56323912D01*
X152018972Y-56440420D01*
X152037200Y-56567200D01*
X152018972Y-56693980D01*
X151965764Y-56810488D01*
X151881887Y-56907287D01*
X151774137Y-56976534D01*
X151651242Y-57012620D01*
X151523158Y-57012620D01*
X151400263Y-56976534D01*
X151292513Y-56907287D01*
X151208636Y-56810488D01*
X151155428Y-56693980D01*
X151137200Y-56567200D01*
X151155428Y-56440420D01*
X151208636Y-56323912D01*
X151292513Y-56227113D01*
X151400263Y-56157866D01*
X151523158Y-56121780D01*
X151651242Y-56121780D01*
X151774137Y-56157866D01*
G37*
G36*
X151774137Y-53157866D02*
G01*
X151881887Y-53227113D01*
X151965764Y-53323912D01*
X152018972Y-53440420D01*
X152037200Y-53567200D01*
X152018972Y-53693980D01*
X151965764Y-53810488D01*
X151881887Y-53907287D01*
X151774137Y-53976534D01*
X151651242Y-54012620D01*
X151523158Y-54012620D01*
X151400263Y-53976534D01*
X151292513Y-53907287D01*
X151208636Y-53810488D01*
X151155428Y-53693980D01*
X151137200Y-53567200D01*
X151155428Y-53440420D01*
X151208636Y-53323912D01*
X151292513Y-53227113D01*
X151400263Y-53157866D01*
X151523158Y-53121780D01*
X151651242Y-53121780D01*
X151774137Y-53157866D01*
G37*
M02*
