M48
; DRILL file {KiCad 8.0.1} date 2025-04-02T13:34:05-0400
; FORMAT={-:-/ absolute / metric / decimal}
; #@! TF.CreationDate,2025-04-02T13:34:05-04:00
; #@! TF.GenerationSoftware,Kicad,Pcbnew,8.0.1
; #@! TF.FileFunction,Plated,1,2,PTH
FMAT,2
METRIC
; #@! TA.AperFunction,Plated,PTH,ViaDrill
T1C0.300
; #@! TA.AperFunction,Plated,PTH,ComponentDrill
T2C0.990
; #@! TA.AperFunction,Plated,PTH,ComponentDrill
T3C1.390
%
G90
G05
T1
X116.002Y-90.678
X122.809Y-90.703
X124.816Y-74.524
X128.067Y-81.001
X129.032Y-71.258
X129.997Y-86.004
X132.029Y-74.473
X132.029Y-84.633
X132.055Y-77.038
X132.08Y-79.578
X132.08Y-82.093
X134.239Y-73.076
X136.423Y-86.411
X139.624Y-77.699
X140.284Y-71.501
X148.641Y-58.725
T2
X121.337Y-95.413
X121.337Y-99.913
X127.837Y-95.413
X127.837Y-99.913
X128.83Y-87.92
X128.83Y-92.42
X128.83Y-102.906
X128.83Y-107.406
X135.33Y-87.92
X135.33Y-92.42
X135.33Y-102.906
X135.33Y-107.406
X136.323Y-95.413
X136.323Y-99.913
X142.823Y-95.413
X142.823Y-99.913
T3
X113.17Y-77.47
X150.99Y-77.47
M30
