G04 #@! TF.GenerationSoftware,KiCad,Pcbnew,8.0.1*
G04 #@! TF.CreationDate,2025-04-02T13:34:03-04:00*
G04 #@! TF.ProjectId,atiny_1616_gamer,6174696e-795f-4313-9631-365f67616d65,rev?*
G04 #@! TF.SameCoordinates,Original*
G04 #@! TF.FileFunction,Soldermask,Top*
G04 #@! TF.FilePolarity,Negative*
%FSLAX46Y46*%
G04 Gerber Fmt 4.6, Leading zero omitted, Abs format (unit mm)*
G04 Created by KiCad (PCBNEW 8.0.1) date 2025-04-02 13:34:03*
%MOMM*%
%LPD*%
G01*
G04 APERTURE LIST*
G04 APERTURE END LIST*
G36*
X129092973Y-106596651D02*
G01*
X129255500Y-106669012D01*
X129399430Y-106773584D01*
X129518473Y-106905795D01*
X129607427Y-107059867D01*
X129662404Y-107229067D01*
X129681000Y-107406000D01*
X129662404Y-107582933D01*
X129607427Y-107752133D01*
X129518473Y-107906205D01*
X129399430Y-108038416D01*
X129255500Y-108142988D01*
X129092973Y-108215349D01*
X128918954Y-108252338D01*
X128741046Y-108252338D01*
X128567027Y-108215349D01*
X128404500Y-108142988D01*
X128260570Y-108038416D01*
X128141527Y-107906205D01*
X128052573Y-107752133D01*
X127997596Y-107582933D01*
X127979000Y-107406000D01*
X127997596Y-107229067D01*
X128052573Y-107059867D01*
X128141527Y-106905795D01*
X128260570Y-106773584D01*
X128404500Y-106669012D01*
X128567027Y-106596651D01*
X128741046Y-106559662D01*
X128918954Y-106559662D01*
X129092973Y-106596651D01*
G37*
G36*
X135592973Y-106596651D02*
G01*
X135755500Y-106669012D01*
X135899430Y-106773584D01*
X136018473Y-106905795D01*
X136107427Y-107059867D01*
X136162404Y-107229067D01*
X136181000Y-107406000D01*
X136162404Y-107582933D01*
X136107427Y-107752133D01*
X136018473Y-107906205D01*
X135899430Y-108038416D01*
X135755500Y-108142988D01*
X135592973Y-108215349D01*
X135418954Y-108252338D01*
X135241046Y-108252338D01*
X135067027Y-108215349D01*
X134904500Y-108142988D01*
X134760570Y-108038416D01*
X134641527Y-107906205D01*
X134552573Y-107752133D01*
X134497596Y-107582933D01*
X134479000Y-107406000D01*
X134497596Y-107229067D01*
X134552573Y-107059867D01*
X134641527Y-106905795D01*
X134760570Y-106773584D01*
X134904500Y-106669012D01*
X135067027Y-106596651D01*
X135241046Y-106559662D01*
X135418954Y-106559662D01*
X135592973Y-106596651D01*
G37*
G36*
X129618034Y-102062764D02*
G01*
X129651125Y-102084875D01*
X129673236Y-102117966D01*
X129681000Y-102157000D01*
X129681000Y-103655000D01*
X129673236Y-103694034D01*
X129651125Y-103727125D01*
X129618034Y-103749236D01*
X129579000Y-103757000D01*
X128081000Y-103757000D01*
X128041966Y-103749236D01*
X128008875Y-103727125D01*
X127986764Y-103694034D01*
X127979000Y-103655000D01*
X127979000Y-102157000D01*
X127986764Y-102117966D01*
X128008875Y-102084875D01*
X128041966Y-102062764D01*
X128081000Y-102055000D01*
X129579000Y-102055000D01*
X129618034Y-102062764D01*
G37*
G36*
X135592973Y-102096651D02*
G01*
X135755500Y-102169012D01*
X135899430Y-102273584D01*
X136018473Y-102405795D01*
X136107427Y-102559867D01*
X136162404Y-102729067D01*
X136181000Y-102906000D01*
X136162404Y-103082933D01*
X136107427Y-103252133D01*
X136018473Y-103406205D01*
X135899430Y-103538416D01*
X135755500Y-103642988D01*
X135592973Y-103715349D01*
X135418954Y-103752338D01*
X135241046Y-103752338D01*
X135067027Y-103715349D01*
X134904500Y-103642988D01*
X134760570Y-103538416D01*
X134641527Y-103406205D01*
X134552573Y-103252133D01*
X134497596Y-103082933D01*
X134479000Y-102906000D01*
X134497596Y-102729067D01*
X134552573Y-102559867D01*
X134641527Y-102405795D01*
X134760570Y-102273584D01*
X134904500Y-102169012D01*
X135067027Y-102096651D01*
X135241046Y-102059662D01*
X135418954Y-102059662D01*
X135592973Y-102096651D01*
G37*
G36*
X121599973Y-99103651D02*
G01*
X121762500Y-99176012D01*
X121906430Y-99280584D01*
X122025473Y-99412795D01*
X122114427Y-99566867D01*
X122169404Y-99736067D01*
X122188000Y-99913000D01*
X122169404Y-100089933D01*
X122114427Y-100259133D01*
X122025473Y-100413205D01*
X121906430Y-100545416D01*
X121762500Y-100649988D01*
X121599973Y-100722349D01*
X121425954Y-100759338D01*
X121248046Y-100759338D01*
X121074027Y-100722349D01*
X120911500Y-100649988D01*
X120767570Y-100545416D01*
X120648527Y-100413205D01*
X120559573Y-100259133D01*
X120504596Y-100089933D01*
X120486000Y-99913000D01*
X120504596Y-99736067D01*
X120559573Y-99566867D01*
X120648527Y-99412795D01*
X120767570Y-99280584D01*
X120911500Y-99176012D01*
X121074027Y-99103651D01*
X121248046Y-99066662D01*
X121425954Y-99066662D01*
X121599973Y-99103651D01*
G37*
G36*
X128099973Y-99103651D02*
G01*
X128262500Y-99176012D01*
X128406430Y-99280584D01*
X128525473Y-99412795D01*
X128614427Y-99566867D01*
X128669404Y-99736067D01*
X128688000Y-99913000D01*
X128669404Y-100089933D01*
X128614427Y-100259133D01*
X128525473Y-100413205D01*
X128406430Y-100545416D01*
X128262500Y-100649988D01*
X128099973Y-100722349D01*
X127925954Y-100759338D01*
X127748046Y-100759338D01*
X127574027Y-100722349D01*
X127411500Y-100649988D01*
X127267570Y-100545416D01*
X127148527Y-100413205D01*
X127059573Y-100259133D01*
X127004596Y-100089933D01*
X126986000Y-99913000D01*
X127004596Y-99736067D01*
X127059573Y-99566867D01*
X127148527Y-99412795D01*
X127267570Y-99280584D01*
X127411500Y-99176012D01*
X127574027Y-99103651D01*
X127748046Y-99066662D01*
X127925954Y-99066662D01*
X128099973Y-99103651D01*
G37*
G36*
X136585973Y-99103651D02*
G01*
X136748500Y-99176012D01*
X136892430Y-99280584D01*
X137011473Y-99412795D01*
X137100427Y-99566867D01*
X137155404Y-99736067D01*
X137174000Y-99913000D01*
X137155404Y-100089933D01*
X137100427Y-100259133D01*
X137011473Y-100413205D01*
X136892430Y-100545416D01*
X136748500Y-100649988D01*
X136585973Y-100722349D01*
X136411954Y-100759338D01*
X136234046Y-100759338D01*
X136060027Y-100722349D01*
X135897500Y-100649988D01*
X135753570Y-100545416D01*
X135634527Y-100413205D01*
X135545573Y-100259133D01*
X135490596Y-100089933D01*
X135472000Y-99913000D01*
X135490596Y-99736067D01*
X135545573Y-99566867D01*
X135634527Y-99412795D01*
X135753570Y-99280584D01*
X135897500Y-99176012D01*
X136060027Y-99103651D01*
X136234046Y-99066662D01*
X136411954Y-99066662D01*
X136585973Y-99103651D01*
G37*
G36*
X143085973Y-99103651D02*
G01*
X143248500Y-99176012D01*
X143392430Y-99280584D01*
X143511473Y-99412795D01*
X143600427Y-99566867D01*
X143655404Y-99736067D01*
X143674000Y-99913000D01*
X143655404Y-100089933D01*
X143600427Y-100259133D01*
X143511473Y-100413205D01*
X143392430Y-100545416D01*
X143248500Y-100649988D01*
X143085973Y-100722349D01*
X142911954Y-100759338D01*
X142734046Y-100759338D01*
X142560027Y-100722349D01*
X142397500Y-100649988D01*
X142253570Y-100545416D01*
X142134527Y-100413205D01*
X142045573Y-100259133D01*
X141990596Y-100089933D01*
X141972000Y-99913000D01*
X141990596Y-99736067D01*
X142045573Y-99566867D01*
X142134527Y-99412795D01*
X142253570Y-99280584D01*
X142397500Y-99176012D01*
X142560027Y-99103651D01*
X142734046Y-99066662D01*
X142911954Y-99066662D01*
X143085973Y-99103651D01*
G37*
G36*
X122125034Y-94569764D02*
G01*
X122158125Y-94591875D01*
X122180236Y-94624966D01*
X122188000Y-94664000D01*
X122188000Y-96162000D01*
X122180236Y-96201034D01*
X122158125Y-96234125D01*
X122125034Y-96256236D01*
X122086000Y-96264000D01*
X120588000Y-96264000D01*
X120548966Y-96256236D01*
X120515875Y-96234125D01*
X120493764Y-96201034D01*
X120486000Y-96162000D01*
X120486000Y-94664000D01*
X120493764Y-94624966D01*
X120515875Y-94591875D01*
X120548966Y-94569764D01*
X120588000Y-94562000D01*
X122086000Y-94562000D01*
X122125034Y-94569764D01*
G37*
G36*
X137111034Y-94569764D02*
G01*
X137144125Y-94591875D01*
X137166236Y-94624966D01*
X137174000Y-94664000D01*
X137174000Y-96162000D01*
X137166236Y-96201034D01*
X137144125Y-96234125D01*
X137111034Y-96256236D01*
X137072000Y-96264000D01*
X135574000Y-96264000D01*
X135534966Y-96256236D01*
X135501875Y-96234125D01*
X135479764Y-96201034D01*
X135472000Y-96162000D01*
X135472000Y-94664000D01*
X135479764Y-94624966D01*
X135501875Y-94591875D01*
X135534966Y-94569764D01*
X135574000Y-94562000D01*
X137072000Y-94562000D01*
X137111034Y-94569764D01*
G37*
G36*
X128099973Y-94603651D02*
G01*
X128262500Y-94676012D01*
X128406430Y-94780584D01*
X128525473Y-94912795D01*
X128614427Y-95066867D01*
X128669404Y-95236067D01*
X128688000Y-95413000D01*
X128669404Y-95589933D01*
X128614427Y-95759133D01*
X128525473Y-95913205D01*
X128406430Y-96045416D01*
X128262500Y-96149988D01*
X128099973Y-96222349D01*
X127925954Y-96259338D01*
X127748046Y-96259338D01*
X127574027Y-96222349D01*
X127411500Y-96149988D01*
X127267570Y-96045416D01*
X127148527Y-95913205D01*
X127059573Y-95759133D01*
X127004596Y-95589933D01*
X126986000Y-95413000D01*
X127004596Y-95236067D01*
X127059573Y-95066867D01*
X127148527Y-94912795D01*
X127267570Y-94780584D01*
X127411500Y-94676012D01*
X127574027Y-94603651D01*
X127748046Y-94566662D01*
X127925954Y-94566662D01*
X128099973Y-94603651D01*
G37*
G36*
X143085973Y-94603651D02*
G01*
X143248500Y-94676012D01*
X143392430Y-94780584D01*
X143511473Y-94912795D01*
X143600427Y-95066867D01*
X143655404Y-95236067D01*
X143674000Y-95413000D01*
X143655404Y-95589933D01*
X143600427Y-95759133D01*
X143511473Y-95913205D01*
X143392430Y-96045416D01*
X143248500Y-96149988D01*
X143085973Y-96222349D01*
X142911954Y-96259338D01*
X142734046Y-96259338D01*
X142560027Y-96222349D01*
X142397500Y-96149988D01*
X142253570Y-96045416D01*
X142134527Y-95913205D01*
X142045573Y-95759133D01*
X141990596Y-95589933D01*
X141972000Y-95413000D01*
X141990596Y-95236067D01*
X142045573Y-95066867D01*
X142134527Y-94912795D01*
X142253570Y-94780584D01*
X142397500Y-94676012D01*
X142560027Y-94603651D01*
X142734046Y-94566662D01*
X142911954Y-94566662D01*
X143085973Y-94603651D01*
G37*
G36*
X129092973Y-91610651D02*
G01*
X129255500Y-91683012D01*
X129399430Y-91787584D01*
X129518473Y-91919795D01*
X129607427Y-92073867D01*
X129662404Y-92243067D01*
X129681000Y-92420000D01*
X129662404Y-92596933D01*
X129607427Y-92766133D01*
X129518473Y-92920205D01*
X129399430Y-93052416D01*
X129255500Y-93156988D01*
X129092973Y-93229349D01*
X128918954Y-93266338D01*
X128741046Y-93266338D01*
X128567027Y-93229349D01*
X128404500Y-93156988D01*
X128260570Y-93052416D01*
X128141527Y-92920205D01*
X128052573Y-92766133D01*
X127997596Y-92596933D01*
X127979000Y-92420000D01*
X127997596Y-92243067D01*
X128052573Y-92073867D01*
X128141527Y-91919795D01*
X128260570Y-91787584D01*
X128404500Y-91683012D01*
X128567027Y-91610651D01*
X128741046Y-91573662D01*
X128918954Y-91573662D01*
X129092973Y-91610651D01*
G37*
G36*
X135592973Y-91610651D02*
G01*
X135755500Y-91683012D01*
X135899430Y-91787584D01*
X136018473Y-91919795D01*
X136107427Y-92073867D01*
X136162404Y-92243067D01*
X136181000Y-92420000D01*
X136162404Y-92596933D01*
X136107427Y-92766133D01*
X136018473Y-92920205D01*
X135899430Y-93052416D01*
X135755500Y-93156988D01*
X135592973Y-93229349D01*
X135418954Y-93266338D01*
X135241046Y-93266338D01*
X135067027Y-93229349D01*
X134904500Y-93156988D01*
X134760570Y-93052416D01*
X134641527Y-92920205D01*
X134552573Y-92766133D01*
X134497596Y-92596933D01*
X134479000Y-92420000D01*
X134497596Y-92243067D01*
X134552573Y-92073867D01*
X134641527Y-91919795D01*
X134760570Y-91787584D01*
X134904500Y-91683012D01*
X135067027Y-91610651D01*
X135241046Y-91573662D01*
X135418954Y-91573662D01*
X135592973Y-91610651D01*
G37*
G36*
X119695137Y-90218224D02*
G01*
X119760021Y-90261579D01*
X119803376Y-90326463D01*
X119818600Y-90403000D01*
X119818600Y-90953000D01*
X119803376Y-91029537D01*
X119760021Y-91094421D01*
X119695137Y-91137776D01*
X119618600Y-91153000D01*
X119218600Y-91153000D01*
X119142063Y-91137776D01*
X119077179Y-91094421D01*
X119033824Y-91029537D01*
X119018600Y-90953000D01*
X119018600Y-90403000D01*
X119033824Y-90326463D01*
X119077179Y-90261579D01*
X119142063Y-90218224D01*
X119218600Y-90203000D01*
X119618600Y-90203000D01*
X119695137Y-90218224D01*
G37*
G36*
X121345137Y-90218224D02*
G01*
X121410021Y-90261579D01*
X121453376Y-90326463D01*
X121468600Y-90403000D01*
X121468600Y-90953000D01*
X121453376Y-91029537D01*
X121410021Y-91094421D01*
X121345137Y-91137776D01*
X121268600Y-91153000D01*
X120868600Y-91153000D01*
X120792063Y-91137776D01*
X120727179Y-91094421D01*
X120683824Y-91029537D01*
X120668600Y-90953000D01*
X120668600Y-90403000D01*
X120683824Y-90326463D01*
X120727179Y-90261579D01*
X120792063Y-90218224D01*
X120868600Y-90203000D01*
X121268600Y-90203000D01*
X121345137Y-90218224D01*
G37*
G36*
X129618034Y-87076764D02*
G01*
X129651125Y-87098875D01*
X129673236Y-87131966D01*
X129681000Y-87171000D01*
X129681000Y-88669000D01*
X129673236Y-88708034D01*
X129651125Y-88741125D01*
X129618034Y-88763236D01*
X129579000Y-88771000D01*
X128081000Y-88771000D01*
X128041966Y-88763236D01*
X128008875Y-88741125D01*
X127986764Y-88708034D01*
X127979000Y-88669000D01*
X127979000Y-87171000D01*
X127986764Y-87131966D01*
X128008875Y-87098875D01*
X128041966Y-87076764D01*
X128081000Y-87069000D01*
X129579000Y-87069000D01*
X129618034Y-87076764D01*
G37*
G36*
X135592973Y-87110651D02*
G01*
X135755500Y-87183012D01*
X135899430Y-87287584D01*
X136018473Y-87419795D01*
X136107427Y-87573867D01*
X136162404Y-87743067D01*
X136181000Y-87920000D01*
X136162404Y-88096933D01*
X136107427Y-88266133D01*
X136018473Y-88420205D01*
X135899430Y-88552416D01*
X135755500Y-88656988D01*
X135592973Y-88729349D01*
X135418954Y-88766338D01*
X135241046Y-88766338D01*
X135067027Y-88729349D01*
X134904500Y-88656988D01*
X134760570Y-88552416D01*
X134641527Y-88420205D01*
X134552573Y-88266133D01*
X134497596Y-88096933D01*
X134479000Y-87920000D01*
X134497596Y-87743067D01*
X134552573Y-87573867D01*
X134641527Y-87419795D01*
X134760570Y-87287584D01*
X134904500Y-87183012D01*
X135067027Y-87110651D01*
X135241046Y-87073662D01*
X135418954Y-87073662D01*
X135592973Y-87110651D01*
G37*
G36*
X135553104Y-84911527D02*
G01*
X135626099Y-84960301D01*
X135674873Y-85033296D01*
X135692000Y-85119400D01*
X135692000Y-85619400D01*
X135674873Y-85705504D01*
X135626099Y-85778499D01*
X135553104Y-85827273D01*
X135467000Y-85844400D01*
X135017000Y-85844400D01*
X134930896Y-85827273D01*
X134857901Y-85778499D01*
X134809127Y-85705504D01*
X134792000Y-85619400D01*
X134792000Y-85119400D01*
X134809127Y-85033296D01*
X134857901Y-84960301D01*
X134930896Y-84911527D01*
X135017000Y-84894400D01*
X135467000Y-84894400D01*
X135553104Y-84911527D01*
G37*
G36*
X137103104Y-84911527D02*
G01*
X137176099Y-84960301D01*
X137224873Y-85033296D01*
X137242000Y-85119400D01*
X137242000Y-85619400D01*
X137224873Y-85705504D01*
X137176099Y-85778499D01*
X137103104Y-85827273D01*
X137017000Y-85844400D01*
X136567000Y-85844400D01*
X136480896Y-85827273D01*
X136407901Y-85778499D01*
X136359127Y-85705504D01*
X136342000Y-85619400D01*
X136342000Y-85119400D01*
X136359127Y-85033296D01*
X136407901Y-84960301D01*
X136480896Y-84911527D01*
X136567000Y-84894400D01*
X137017000Y-84894400D01*
X137103104Y-84911527D01*
G37*
G36*
X129778937Y-84198424D02*
G01*
X129843821Y-84241779D01*
X129887176Y-84306663D01*
X129902400Y-84383200D01*
X129902400Y-84933200D01*
X129887176Y-85009737D01*
X129843821Y-85074621D01*
X129778937Y-85117976D01*
X129702400Y-85133200D01*
X129302400Y-85133200D01*
X129225863Y-85117976D01*
X129160979Y-85074621D01*
X129117624Y-85009737D01*
X129102400Y-84933200D01*
X129102400Y-84383200D01*
X129117624Y-84306663D01*
X129160979Y-84241779D01*
X129225863Y-84198424D01*
X129302400Y-84183200D01*
X129702400Y-84183200D01*
X129778937Y-84198424D01*
G37*
G36*
X131428937Y-84198424D02*
G01*
X131493821Y-84241779D01*
X131537176Y-84306663D01*
X131552400Y-84383200D01*
X131552400Y-84933200D01*
X131537176Y-85009737D01*
X131493821Y-85074621D01*
X131428937Y-85117976D01*
X131352400Y-85133200D01*
X130952400Y-85133200D01*
X130875863Y-85117976D01*
X130810979Y-85074621D01*
X130767624Y-85009737D01*
X130752400Y-84933200D01*
X130752400Y-84383200D01*
X130767624Y-84306663D01*
X130810979Y-84241779D01*
X130875863Y-84198424D01*
X130952400Y-84183200D01*
X131352400Y-84183200D01*
X131428937Y-84198424D01*
G37*
G36*
X135425803Y-81741418D02*
G01*
X135474466Y-81773934D01*
X135506982Y-81822597D01*
X135518400Y-81880000D01*
X135518400Y-83630000D01*
X135506982Y-83687403D01*
X135474466Y-83736066D01*
X135425803Y-83768582D01*
X135368400Y-83780000D01*
X135068400Y-83780000D01*
X135010997Y-83768582D01*
X134962334Y-83736066D01*
X134929818Y-83687403D01*
X134918400Y-83630000D01*
X134918400Y-81880000D01*
X134929818Y-81822597D01*
X134962334Y-81773934D01*
X135010997Y-81741418D01*
X135068400Y-81730000D01*
X135368400Y-81730000D01*
X135425803Y-81741418D01*
G37*
G36*
X136695803Y-81741418D02*
G01*
X136744466Y-81773934D01*
X136776982Y-81822597D01*
X136788400Y-81880000D01*
X136788400Y-83630000D01*
X136776982Y-83687403D01*
X136744466Y-83736066D01*
X136695803Y-83768582D01*
X136638400Y-83780000D01*
X136338400Y-83780000D01*
X136280997Y-83768582D01*
X136232334Y-83736066D01*
X136199818Y-83687403D01*
X136188400Y-83630000D01*
X136188400Y-81880000D01*
X136199818Y-81822597D01*
X136232334Y-81773934D01*
X136280997Y-81741418D01*
X136338400Y-81730000D01*
X136638400Y-81730000D01*
X136695803Y-81741418D01*
G37*
G36*
X137965803Y-81741418D02*
G01*
X138014466Y-81773934D01*
X138046982Y-81822597D01*
X138058400Y-81880000D01*
X138058400Y-83630000D01*
X138046982Y-83687403D01*
X138014466Y-83736066D01*
X137965803Y-83768582D01*
X137908400Y-83780000D01*
X137608400Y-83780000D01*
X137550997Y-83768582D01*
X137502334Y-83736066D01*
X137469818Y-83687403D01*
X137458400Y-83630000D01*
X137458400Y-81880000D01*
X137469818Y-81822597D01*
X137502334Y-81773934D01*
X137550997Y-81741418D01*
X137608400Y-81730000D01*
X137908400Y-81730000D01*
X137965803Y-81741418D01*
G37*
G36*
X139235803Y-81741418D02*
G01*
X139284466Y-81773934D01*
X139316982Y-81822597D01*
X139328400Y-81880000D01*
X139328400Y-83630000D01*
X139316982Y-83687403D01*
X139284466Y-83736066D01*
X139235803Y-83768582D01*
X139178400Y-83780000D01*
X138878400Y-83780000D01*
X138820997Y-83768582D01*
X138772334Y-83736066D01*
X138739818Y-83687403D01*
X138728400Y-83630000D01*
X138728400Y-81880000D01*
X138739818Y-81822597D01*
X138772334Y-81773934D01*
X138820997Y-81741418D01*
X138878400Y-81730000D01*
X139178400Y-81730000D01*
X139235803Y-81741418D01*
G37*
G36*
X140505803Y-81741418D02*
G01*
X140554466Y-81773934D01*
X140586982Y-81822597D01*
X140598400Y-81880000D01*
X140598400Y-83630000D01*
X140586982Y-83687403D01*
X140554466Y-83736066D01*
X140505803Y-83768582D01*
X140448400Y-83780000D01*
X140148400Y-83780000D01*
X140090997Y-83768582D01*
X140042334Y-83736066D01*
X140009818Y-83687403D01*
X139998400Y-83630000D01*
X139998400Y-81880000D01*
X140009818Y-81822597D01*
X140042334Y-81773934D01*
X140090997Y-81741418D01*
X140148400Y-81730000D01*
X140448400Y-81730000D01*
X140505803Y-81741418D01*
G37*
G36*
X141775803Y-81741418D02*
G01*
X141824466Y-81773934D01*
X141856982Y-81822597D01*
X141868400Y-81880000D01*
X141868400Y-83630000D01*
X141856982Y-83687403D01*
X141824466Y-83736066D01*
X141775803Y-83768582D01*
X141718400Y-83780000D01*
X141418400Y-83780000D01*
X141360997Y-83768582D01*
X141312334Y-83736066D01*
X141279818Y-83687403D01*
X141268400Y-83630000D01*
X141268400Y-81880000D01*
X141279818Y-81822597D01*
X141312334Y-81773934D01*
X141360997Y-81741418D01*
X141418400Y-81730000D01*
X141718400Y-81730000D01*
X141775803Y-81741418D01*
G37*
G36*
X143045803Y-81741418D02*
G01*
X143094466Y-81773934D01*
X143126982Y-81822597D01*
X143138400Y-81880000D01*
X143138400Y-83630000D01*
X143126982Y-83687403D01*
X143094466Y-83736066D01*
X143045803Y-83768582D01*
X142988400Y-83780000D01*
X142688400Y-83780000D01*
X142630997Y-83768582D01*
X142582334Y-83736066D01*
X142549818Y-83687403D01*
X142538400Y-83630000D01*
X142538400Y-81880000D01*
X142549818Y-81822597D01*
X142582334Y-81773934D01*
X142630997Y-81741418D01*
X142688400Y-81730000D01*
X142988400Y-81730000D01*
X143045803Y-81741418D01*
G37*
G36*
X144315803Y-81741418D02*
G01*
X144364466Y-81773934D01*
X144396982Y-81822597D01*
X144408400Y-81880000D01*
X144408400Y-83630000D01*
X144396982Y-83687403D01*
X144364466Y-83736066D01*
X144315803Y-83768582D01*
X144258400Y-83780000D01*
X143958400Y-83780000D01*
X143900997Y-83768582D01*
X143852334Y-83736066D01*
X143819818Y-83687403D01*
X143808400Y-83630000D01*
X143808400Y-81880000D01*
X143819818Y-81822597D01*
X143852334Y-81773934D01*
X143900997Y-81741418D01*
X143958400Y-81730000D01*
X144258400Y-81730000D01*
X144315803Y-81741418D01*
G37*
G36*
X145585803Y-81741418D02*
G01*
X145634466Y-81773934D01*
X145666982Y-81822597D01*
X145678400Y-81880000D01*
X145678400Y-83630000D01*
X145666982Y-83687403D01*
X145634466Y-83736066D01*
X145585803Y-83768582D01*
X145528400Y-83780000D01*
X145228400Y-83780000D01*
X145170997Y-83768582D01*
X145122334Y-83736066D01*
X145089818Y-83687403D01*
X145078400Y-83630000D01*
X145078400Y-81880000D01*
X145089818Y-81822597D01*
X145122334Y-81773934D01*
X145170997Y-81741418D01*
X145228400Y-81730000D01*
X145528400Y-81730000D01*
X145585803Y-81741418D01*
G37*
G36*
X146855803Y-81741418D02*
G01*
X146904466Y-81773934D01*
X146936982Y-81822597D01*
X146948400Y-81880000D01*
X146948400Y-83630000D01*
X146936982Y-83687403D01*
X146904466Y-83736066D01*
X146855803Y-83768582D01*
X146798400Y-83780000D01*
X146498400Y-83780000D01*
X146440997Y-83768582D01*
X146392334Y-83736066D01*
X146359818Y-83687403D01*
X146348400Y-83630000D01*
X146348400Y-81880000D01*
X146359818Y-81822597D01*
X146392334Y-81773934D01*
X146440997Y-81741418D01*
X146498400Y-81730000D01*
X146798400Y-81730000D01*
X146855803Y-81741418D01*
G37*
G36*
X129778937Y-81658424D02*
G01*
X129843821Y-81701779D01*
X129887176Y-81766663D01*
X129902400Y-81843200D01*
X129902400Y-82393200D01*
X129887176Y-82469737D01*
X129843821Y-82534621D01*
X129778937Y-82577976D01*
X129702400Y-82593200D01*
X129302400Y-82593200D01*
X129225863Y-82577976D01*
X129160979Y-82534621D01*
X129117624Y-82469737D01*
X129102400Y-82393200D01*
X129102400Y-81843200D01*
X129117624Y-81766663D01*
X129160979Y-81701779D01*
X129225863Y-81658424D01*
X129302400Y-81643200D01*
X129702400Y-81643200D01*
X129778937Y-81658424D01*
G37*
G36*
X131428937Y-81658424D02*
G01*
X131493821Y-81701779D01*
X131537176Y-81766663D01*
X131552400Y-81843200D01*
X131552400Y-82393200D01*
X131537176Y-82469737D01*
X131493821Y-82534621D01*
X131428937Y-82577976D01*
X131352400Y-82593200D01*
X130952400Y-82593200D01*
X130875863Y-82577976D01*
X130810979Y-82534621D01*
X130767624Y-82469737D01*
X130752400Y-82393200D01*
X130752400Y-81843200D01*
X130767624Y-81766663D01*
X130810979Y-81701779D01*
X130875863Y-81658424D01*
X130952400Y-81643200D01*
X131352400Y-81643200D01*
X131428937Y-81658424D01*
G37*
G36*
X129778937Y-79118424D02*
G01*
X129843821Y-79161779D01*
X129887176Y-79226663D01*
X129902400Y-79303200D01*
X129902400Y-79853200D01*
X129887176Y-79929737D01*
X129843821Y-79994621D01*
X129778937Y-80037976D01*
X129702400Y-80053200D01*
X129302400Y-80053200D01*
X129225863Y-80037976D01*
X129160979Y-79994621D01*
X129117624Y-79929737D01*
X129102400Y-79853200D01*
X129102400Y-79303200D01*
X129117624Y-79226663D01*
X129160979Y-79161779D01*
X129225863Y-79118424D01*
X129302400Y-79103200D01*
X129702400Y-79103200D01*
X129778937Y-79118424D01*
G37*
G36*
X131428937Y-79118424D02*
G01*
X131493821Y-79161779D01*
X131537176Y-79226663D01*
X131552400Y-79303200D01*
X131552400Y-79853200D01*
X131537176Y-79929737D01*
X131493821Y-79994621D01*
X131428937Y-80037976D01*
X131352400Y-80053200D01*
X130952400Y-80053200D01*
X130875863Y-80037976D01*
X130810979Y-79994621D01*
X130767624Y-79929737D01*
X130752400Y-79853200D01*
X130752400Y-79303200D01*
X130767624Y-79226663D01*
X130810979Y-79161779D01*
X130875863Y-79118424D01*
X130952400Y-79103200D01*
X131352400Y-79103200D01*
X131428937Y-79118424D01*
G37*
G36*
X113469524Y-76417282D02*
G01*
X113657861Y-76490244D01*
X113829584Y-76596570D01*
X113978845Y-76732640D01*
X114100563Y-76893820D01*
X114190591Y-77074621D01*
X114245864Y-77268886D01*
X114264500Y-77470000D01*
X114245864Y-77671114D01*
X114190591Y-77865379D01*
X114100563Y-78046180D01*
X113978845Y-78207360D01*
X113829584Y-78343430D01*
X113657861Y-78449756D01*
X113469524Y-78522718D01*
X113270988Y-78559831D01*
X113069012Y-78559831D01*
X112870476Y-78522718D01*
X112682139Y-78449756D01*
X112510416Y-78343430D01*
X112361155Y-78207360D01*
X112239437Y-78046180D01*
X112149409Y-77865379D01*
X112094136Y-77671114D01*
X112075500Y-77470000D01*
X112094136Y-77268886D01*
X112149409Y-77074621D01*
X112239437Y-76893820D01*
X112361155Y-76732640D01*
X112510416Y-76596570D01*
X112682139Y-76490244D01*
X112870476Y-76417282D01*
X113069012Y-76380169D01*
X113270988Y-76380169D01*
X113469524Y-76417282D01*
G37*
G36*
X151289524Y-76417282D02*
G01*
X151477861Y-76490244D01*
X151649584Y-76596570D01*
X151798845Y-76732640D01*
X151920563Y-76893820D01*
X152010591Y-77074621D01*
X152065864Y-77268886D01*
X152084500Y-77470000D01*
X152065864Y-77671114D01*
X152010591Y-77865379D01*
X151920563Y-78046180D01*
X151798845Y-78207360D01*
X151649584Y-78343430D01*
X151477861Y-78449756D01*
X151289524Y-78522718D01*
X151090988Y-78559831D01*
X150889012Y-78559831D01*
X150690476Y-78522718D01*
X150502139Y-78449756D01*
X150330416Y-78343430D01*
X150181155Y-78207360D01*
X150059437Y-78046180D01*
X149969409Y-77865379D01*
X149914136Y-77671114D01*
X149895500Y-77470000D01*
X149914136Y-77268886D01*
X149969409Y-77074621D01*
X150059437Y-76893820D01*
X150181155Y-76732640D01*
X150330416Y-76596570D01*
X150502139Y-76490244D01*
X150690476Y-76417282D01*
X150889012Y-76380169D01*
X151090988Y-76380169D01*
X151289524Y-76417282D01*
G37*
G36*
X120950116Y-76266018D02*
G01*
X121001379Y-76271966D01*
X121018892Y-76279699D01*
X121041671Y-76284230D01*
X121066057Y-76300524D01*
X121086788Y-76309678D01*
X121100946Y-76323836D01*
X121122777Y-76338423D01*
X121137363Y-76360253D01*
X121151521Y-76374411D01*
X121160673Y-76395139D01*
X121176970Y-76419529D01*
X121181501Y-76442309D01*
X121189233Y-76459820D01*
X121195178Y-76511072D01*
X121196000Y-76515200D01*
X121196000Y-77815200D01*
X121195178Y-77819328D01*
X121189233Y-77870579D01*
X121181501Y-77888088D01*
X121176970Y-77910871D01*
X121160672Y-77935262D01*
X121151521Y-77955988D01*
X121137365Y-77970143D01*
X121122777Y-77991977D01*
X121100943Y-78006565D01*
X121086788Y-78020721D01*
X121066062Y-78029872D01*
X121041671Y-78046170D01*
X121018888Y-78050701D01*
X121001379Y-78058433D01*
X120950129Y-78064378D01*
X120946000Y-78065200D01*
X120296000Y-78065200D01*
X120291873Y-78064379D01*
X120240620Y-78058433D01*
X120223109Y-78050701D01*
X120200329Y-78046170D01*
X120175939Y-78029873D01*
X120155211Y-78020721D01*
X120141053Y-78006563D01*
X120119223Y-77991977D01*
X120104636Y-77970146D01*
X120090478Y-77955988D01*
X120081324Y-77935257D01*
X120065030Y-77910871D01*
X120060499Y-77888092D01*
X120052766Y-77870579D01*
X120046818Y-77819317D01*
X120046000Y-77815200D01*
X120046000Y-76515200D01*
X120046818Y-76511085D01*
X120052766Y-76459820D01*
X120060499Y-76442305D01*
X120065030Y-76419529D01*
X120081323Y-76395144D01*
X120090478Y-76374411D01*
X120104638Y-76360250D01*
X120119223Y-76338423D01*
X120141050Y-76323838D01*
X120155211Y-76309678D01*
X120175944Y-76300523D01*
X120200329Y-76284230D01*
X120223105Y-76279699D01*
X120240620Y-76271966D01*
X120291884Y-76266018D01*
X120296000Y-76265200D01*
X120946000Y-76265200D01*
X120950116Y-76266018D01*
G37*
G36*
X123900116Y-76266018D02*
G01*
X123951379Y-76271966D01*
X123968892Y-76279699D01*
X123991671Y-76284230D01*
X124016057Y-76300524D01*
X124036788Y-76309678D01*
X124050946Y-76323836D01*
X124072777Y-76338423D01*
X124087363Y-76360253D01*
X124101521Y-76374411D01*
X124110673Y-76395139D01*
X124126970Y-76419529D01*
X124131501Y-76442309D01*
X124139233Y-76459820D01*
X124145178Y-76511072D01*
X124146000Y-76515200D01*
X124146000Y-77815200D01*
X124145178Y-77819328D01*
X124139233Y-77870579D01*
X124131501Y-77888088D01*
X124126970Y-77910871D01*
X124110672Y-77935262D01*
X124101521Y-77955988D01*
X124087365Y-77970143D01*
X124072777Y-77991977D01*
X124050943Y-78006565D01*
X124036788Y-78020721D01*
X124016062Y-78029872D01*
X123991671Y-78046170D01*
X123968888Y-78050701D01*
X123951379Y-78058433D01*
X123900129Y-78064378D01*
X123896000Y-78065200D01*
X123246000Y-78065200D01*
X123241873Y-78064379D01*
X123190620Y-78058433D01*
X123173109Y-78050701D01*
X123150329Y-78046170D01*
X123125939Y-78029873D01*
X123105211Y-78020721D01*
X123091053Y-78006563D01*
X123069223Y-77991977D01*
X123054636Y-77970146D01*
X123040478Y-77955988D01*
X123031324Y-77935257D01*
X123015030Y-77910871D01*
X123010499Y-77888092D01*
X123002766Y-77870579D01*
X122996818Y-77819317D01*
X122996000Y-77815200D01*
X122996000Y-76515200D01*
X122996818Y-76511085D01*
X123002766Y-76459820D01*
X123010499Y-76442305D01*
X123015030Y-76419529D01*
X123031323Y-76395144D01*
X123040478Y-76374411D01*
X123054638Y-76360250D01*
X123069223Y-76338423D01*
X123091050Y-76323838D01*
X123105211Y-76309678D01*
X123125944Y-76300523D01*
X123150329Y-76284230D01*
X123173105Y-76279699D01*
X123190620Y-76271966D01*
X123241884Y-76266018D01*
X123246000Y-76265200D01*
X123896000Y-76265200D01*
X123900116Y-76266018D01*
G37*
G36*
X129778937Y-76578424D02*
G01*
X129843821Y-76621779D01*
X129887176Y-76686663D01*
X129902400Y-76763200D01*
X129902400Y-77313200D01*
X129887176Y-77389737D01*
X129843821Y-77454621D01*
X129778937Y-77497976D01*
X129702400Y-77513200D01*
X129302400Y-77513200D01*
X129225863Y-77497976D01*
X129160979Y-77454621D01*
X129117624Y-77389737D01*
X129102400Y-77313200D01*
X129102400Y-76763200D01*
X129117624Y-76686663D01*
X129160979Y-76621779D01*
X129225863Y-76578424D01*
X129302400Y-76563200D01*
X129702400Y-76563200D01*
X129778937Y-76578424D01*
G37*
G36*
X131428937Y-76578424D02*
G01*
X131493821Y-76621779D01*
X131537176Y-76686663D01*
X131552400Y-76763200D01*
X131552400Y-77313200D01*
X131537176Y-77389737D01*
X131493821Y-77454621D01*
X131428937Y-77497976D01*
X131352400Y-77513200D01*
X130952400Y-77513200D01*
X130875863Y-77497976D01*
X130810979Y-77454621D01*
X130767624Y-77389737D01*
X130752400Y-77313200D01*
X130752400Y-76763200D01*
X130767624Y-76686663D01*
X130810979Y-76621779D01*
X130875863Y-76578424D01*
X130952400Y-76563200D01*
X131352400Y-76563200D01*
X131428937Y-76578424D01*
G37*
G36*
X120950116Y-73624418D02*
G01*
X121001379Y-73630366D01*
X121018892Y-73638099D01*
X121041671Y-73642630D01*
X121066057Y-73658924D01*
X121086788Y-73668078D01*
X121100946Y-73682236D01*
X121122777Y-73696823D01*
X121137363Y-73718653D01*
X121151521Y-73732811D01*
X121160673Y-73753539D01*
X121176970Y-73777929D01*
X121181501Y-73800709D01*
X121189233Y-73818220D01*
X121195178Y-73869472D01*
X121196000Y-73873600D01*
X121196000Y-75173600D01*
X121195178Y-75177728D01*
X121189233Y-75228979D01*
X121181501Y-75246488D01*
X121176970Y-75269271D01*
X121160672Y-75293662D01*
X121151521Y-75314388D01*
X121137365Y-75328543D01*
X121122777Y-75350377D01*
X121100943Y-75364965D01*
X121086788Y-75379121D01*
X121066062Y-75388272D01*
X121041671Y-75404570D01*
X121018888Y-75409101D01*
X121001379Y-75416833D01*
X120950129Y-75422778D01*
X120946000Y-75423600D01*
X120296000Y-75423600D01*
X120291873Y-75422779D01*
X120240620Y-75416833D01*
X120223109Y-75409101D01*
X120200329Y-75404570D01*
X120175939Y-75388273D01*
X120155211Y-75379121D01*
X120141053Y-75364963D01*
X120119223Y-75350377D01*
X120104636Y-75328546D01*
X120090478Y-75314388D01*
X120081324Y-75293657D01*
X120065030Y-75269271D01*
X120060499Y-75246492D01*
X120052766Y-75228979D01*
X120046818Y-75177717D01*
X120046000Y-75173600D01*
X120046000Y-73873600D01*
X120046818Y-73869485D01*
X120052766Y-73818220D01*
X120060499Y-73800705D01*
X120065030Y-73777929D01*
X120081323Y-73753544D01*
X120090478Y-73732811D01*
X120104638Y-73718650D01*
X120119223Y-73696823D01*
X120141050Y-73682238D01*
X120155211Y-73668078D01*
X120175944Y-73658923D01*
X120200329Y-73642630D01*
X120223105Y-73638099D01*
X120240620Y-73630366D01*
X120291884Y-73624418D01*
X120296000Y-73623600D01*
X120946000Y-73623600D01*
X120950116Y-73624418D01*
G37*
G36*
X123900116Y-73624418D02*
G01*
X123951379Y-73630366D01*
X123968892Y-73638099D01*
X123991671Y-73642630D01*
X124016057Y-73658924D01*
X124036788Y-73668078D01*
X124050946Y-73682236D01*
X124072777Y-73696823D01*
X124087363Y-73718653D01*
X124101521Y-73732811D01*
X124110673Y-73753539D01*
X124126970Y-73777929D01*
X124131501Y-73800709D01*
X124139233Y-73818220D01*
X124145178Y-73869472D01*
X124146000Y-73873600D01*
X124146000Y-75173600D01*
X124145178Y-75177728D01*
X124139233Y-75228979D01*
X124131501Y-75246488D01*
X124126970Y-75269271D01*
X124110672Y-75293662D01*
X124101521Y-75314388D01*
X124087365Y-75328543D01*
X124072777Y-75350377D01*
X124050943Y-75364965D01*
X124036788Y-75379121D01*
X124016062Y-75388272D01*
X123991671Y-75404570D01*
X123968888Y-75409101D01*
X123951379Y-75416833D01*
X123900129Y-75422778D01*
X123896000Y-75423600D01*
X123246000Y-75423600D01*
X123241873Y-75422779D01*
X123190620Y-75416833D01*
X123173109Y-75409101D01*
X123150329Y-75404570D01*
X123125939Y-75388273D01*
X123105211Y-75379121D01*
X123091053Y-75364963D01*
X123069223Y-75350377D01*
X123054636Y-75328546D01*
X123040478Y-75314388D01*
X123031324Y-75293657D01*
X123015030Y-75269271D01*
X123010499Y-75246492D01*
X123002766Y-75228979D01*
X122996818Y-75177717D01*
X122996000Y-75173600D01*
X122996000Y-73873600D01*
X122996818Y-73869485D01*
X123002766Y-73818220D01*
X123010499Y-73800705D01*
X123015030Y-73777929D01*
X123031323Y-73753544D01*
X123040478Y-73732811D01*
X123054638Y-73718650D01*
X123069223Y-73696823D01*
X123091050Y-73682238D01*
X123105211Y-73668078D01*
X123125944Y-73658923D01*
X123150329Y-73642630D01*
X123173105Y-73638099D01*
X123190620Y-73630366D01*
X123241884Y-73624418D01*
X123246000Y-73623600D01*
X123896000Y-73623600D01*
X123900116Y-73624418D01*
G37*
G36*
X129778937Y-74038424D02*
G01*
X129843821Y-74081779D01*
X129887176Y-74146663D01*
X129902400Y-74223200D01*
X129902400Y-74773200D01*
X129887176Y-74849737D01*
X129843821Y-74914621D01*
X129778937Y-74957976D01*
X129702400Y-74973200D01*
X129302400Y-74973200D01*
X129225863Y-74957976D01*
X129160979Y-74914621D01*
X129117624Y-74849737D01*
X129102400Y-74773200D01*
X129102400Y-74223200D01*
X129117624Y-74146663D01*
X129160979Y-74081779D01*
X129225863Y-74038424D01*
X129302400Y-74023200D01*
X129702400Y-74023200D01*
X129778937Y-74038424D01*
G37*
G36*
X131428937Y-74038424D02*
G01*
X131493821Y-74081779D01*
X131537176Y-74146663D01*
X131552400Y-74223200D01*
X131552400Y-74773200D01*
X131537176Y-74849737D01*
X131493821Y-74914621D01*
X131428937Y-74957976D01*
X131352400Y-74973200D01*
X130952400Y-74973200D01*
X130875863Y-74957976D01*
X130810979Y-74914621D01*
X130767624Y-74849737D01*
X130752400Y-74773200D01*
X130752400Y-74223200D01*
X130767624Y-74146663D01*
X130810979Y-74081779D01*
X130875863Y-74038424D01*
X130952400Y-74023200D01*
X131352400Y-74023200D01*
X131428937Y-74038424D01*
G37*
G36*
X135425803Y-72441418D02*
G01*
X135474466Y-72473934D01*
X135506982Y-72522597D01*
X135518400Y-72580000D01*
X135518400Y-74330000D01*
X135506982Y-74387403D01*
X135474466Y-74436066D01*
X135425803Y-74468582D01*
X135368400Y-74480000D01*
X135068400Y-74480000D01*
X135010997Y-74468582D01*
X134962334Y-74436066D01*
X134929818Y-74387403D01*
X134918400Y-74330000D01*
X134918400Y-72580000D01*
X134929818Y-72522597D01*
X134962334Y-72473934D01*
X135010997Y-72441418D01*
X135068400Y-72430000D01*
X135368400Y-72430000D01*
X135425803Y-72441418D01*
G37*
G36*
X136695803Y-72441418D02*
G01*
X136744466Y-72473934D01*
X136776982Y-72522597D01*
X136788400Y-72580000D01*
X136788400Y-74330000D01*
X136776982Y-74387403D01*
X136744466Y-74436066D01*
X136695803Y-74468582D01*
X136638400Y-74480000D01*
X136338400Y-74480000D01*
X136280997Y-74468582D01*
X136232334Y-74436066D01*
X136199818Y-74387403D01*
X136188400Y-74330000D01*
X136188400Y-72580000D01*
X136199818Y-72522597D01*
X136232334Y-72473934D01*
X136280997Y-72441418D01*
X136338400Y-72430000D01*
X136638400Y-72430000D01*
X136695803Y-72441418D01*
G37*
G36*
X137965803Y-72441418D02*
G01*
X138014466Y-72473934D01*
X138046982Y-72522597D01*
X138058400Y-72580000D01*
X138058400Y-74330000D01*
X138046982Y-74387403D01*
X138014466Y-74436066D01*
X137965803Y-74468582D01*
X137908400Y-74480000D01*
X137608400Y-74480000D01*
X137550997Y-74468582D01*
X137502334Y-74436066D01*
X137469818Y-74387403D01*
X137458400Y-74330000D01*
X137458400Y-72580000D01*
X137469818Y-72522597D01*
X137502334Y-72473934D01*
X137550997Y-72441418D01*
X137608400Y-72430000D01*
X137908400Y-72430000D01*
X137965803Y-72441418D01*
G37*
G36*
X139235803Y-72441418D02*
G01*
X139284466Y-72473934D01*
X139316982Y-72522597D01*
X139328400Y-72580000D01*
X139328400Y-74330000D01*
X139316982Y-74387403D01*
X139284466Y-74436066D01*
X139235803Y-74468582D01*
X139178400Y-74480000D01*
X138878400Y-74480000D01*
X138820997Y-74468582D01*
X138772334Y-74436066D01*
X138739818Y-74387403D01*
X138728400Y-74330000D01*
X138728400Y-72580000D01*
X138739818Y-72522597D01*
X138772334Y-72473934D01*
X138820997Y-72441418D01*
X138878400Y-72430000D01*
X139178400Y-72430000D01*
X139235803Y-72441418D01*
G37*
G36*
X140505803Y-72441418D02*
G01*
X140554466Y-72473934D01*
X140586982Y-72522597D01*
X140598400Y-72580000D01*
X140598400Y-74330000D01*
X140586982Y-74387403D01*
X140554466Y-74436066D01*
X140505803Y-74468582D01*
X140448400Y-74480000D01*
X140148400Y-74480000D01*
X140090997Y-74468582D01*
X140042334Y-74436066D01*
X140009818Y-74387403D01*
X139998400Y-74330000D01*
X139998400Y-72580000D01*
X140009818Y-72522597D01*
X140042334Y-72473934D01*
X140090997Y-72441418D01*
X140148400Y-72430000D01*
X140448400Y-72430000D01*
X140505803Y-72441418D01*
G37*
G36*
X141775803Y-72441418D02*
G01*
X141824466Y-72473934D01*
X141856982Y-72522597D01*
X141868400Y-72580000D01*
X141868400Y-74330000D01*
X141856982Y-74387403D01*
X141824466Y-74436066D01*
X141775803Y-74468582D01*
X141718400Y-74480000D01*
X141418400Y-74480000D01*
X141360997Y-74468582D01*
X141312334Y-74436066D01*
X141279818Y-74387403D01*
X141268400Y-74330000D01*
X141268400Y-72580000D01*
X141279818Y-72522597D01*
X141312334Y-72473934D01*
X141360997Y-72441418D01*
X141418400Y-72430000D01*
X141718400Y-72430000D01*
X141775803Y-72441418D01*
G37*
G36*
X143045803Y-72441418D02*
G01*
X143094466Y-72473934D01*
X143126982Y-72522597D01*
X143138400Y-72580000D01*
X143138400Y-74330000D01*
X143126982Y-74387403D01*
X143094466Y-74436066D01*
X143045803Y-74468582D01*
X142988400Y-74480000D01*
X142688400Y-74480000D01*
X142630997Y-74468582D01*
X142582334Y-74436066D01*
X142549818Y-74387403D01*
X142538400Y-74330000D01*
X142538400Y-72580000D01*
X142549818Y-72522597D01*
X142582334Y-72473934D01*
X142630997Y-72441418D01*
X142688400Y-72430000D01*
X142988400Y-72430000D01*
X143045803Y-72441418D01*
G37*
G36*
X144315803Y-72441418D02*
G01*
X144364466Y-72473934D01*
X144396982Y-72522597D01*
X144408400Y-72580000D01*
X144408400Y-74330000D01*
X144396982Y-74387403D01*
X144364466Y-74436066D01*
X144315803Y-74468582D01*
X144258400Y-74480000D01*
X143958400Y-74480000D01*
X143900997Y-74468582D01*
X143852334Y-74436066D01*
X143819818Y-74387403D01*
X143808400Y-74330000D01*
X143808400Y-72580000D01*
X143819818Y-72522597D01*
X143852334Y-72473934D01*
X143900997Y-72441418D01*
X143958400Y-72430000D01*
X144258400Y-72430000D01*
X144315803Y-72441418D01*
G37*
G36*
X145585803Y-72441418D02*
G01*
X145634466Y-72473934D01*
X145666982Y-72522597D01*
X145678400Y-72580000D01*
X145678400Y-74330000D01*
X145666982Y-74387403D01*
X145634466Y-74436066D01*
X145585803Y-74468582D01*
X145528400Y-74480000D01*
X145228400Y-74480000D01*
X145170997Y-74468582D01*
X145122334Y-74436066D01*
X145089818Y-74387403D01*
X145078400Y-74330000D01*
X145078400Y-72580000D01*
X145089818Y-72522597D01*
X145122334Y-72473934D01*
X145170997Y-72441418D01*
X145228400Y-72430000D01*
X145528400Y-72430000D01*
X145585803Y-72441418D01*
G37*
G36*
X146855803Y-72441418D02*
G01*
X146904466Y-72473934D01*
X146936982Y-72522597D01*
X146948400Y-72580000D01*
X146948400Y-74330000D01*
X146936982Y-74387403D01*
X146904466Y-74436066D01*
X146855803Y-74468582D01*
X146798400Y-74480000D01*
X146498400Y-74480000D01*
X146440997Y-74468582D01*
X146392334Y-74436066D01*
X146359818Y-74387403D01*
X146348400Y-74330000D01*
X146348400Y-72580000D01*
X146359818Y-72522597D01*
X146392334Y-72473934D01*
X146440997Y-72441418D01*
X146498400Y-72430000D01*
X146798400Y-72430000D01*
X146855803Y-72441418D01*
G37*
G36*
X113271634Y-73452164D02*
G01*
X113304725Y-73474275D01*
X113326836Y-73507366D01*
X113334600Y-73546400D01*
X113334600Y-74196400D01*
X113326836Y-74235434D01*
X113304725Y-74268525D01*
X113271634Y-74290636D01*
X113232600Y-74298400D01*
X112182600Y-74298400D01*
X112143566Y-74290636D01*
X112110475Y-74268525D01*
X112088364Y-74235434D01*
X112080600Y-74196400D01*
X112080600Y-73546400D01*
X112088364Y-73507366D01*
X112110475Y-73474275D01*
X112143566Y-73452164D01*
X112182600Y-73444400D01*
X113232600Y-73444400D01*
X113271634Y-73452164D01*
G37*
G36*
X117421634Y-73452164D02*
G01*
X117454725Y-73474275D01*
X117476836Y-73507366D01*
X117484600Y-73546400D01*
X117484600Y-74196400D01*
X117476836Y-74235434D01*
X117454725Y-74268525D01*
X117421634Y-74290636D01*
X117382600Y-74298400D01*
X116332600Y-74298400D01*
X116293566Y-74290636D01*
X116260475Y-74268525D01*
X116238364Y-74235434D01*
X116230600Y-74196400D01*
X116230600Y-73546400D01*
X116238364Y-73507366D01*
X116260475Y-73474275D01*
X116293566Y-73452164D01*
X116332600Y-73444400D01*
X117382600Y-73444400D01*
X117421634Y-73452164D01*
G37*
G36*
X113271634Y-71302164D02*
G01*
X113304725Y-71324275D01*
X113326836Y-71357366D01*
X113334600Y-71396400D01*
X113334600Y-72046400D01*
X113326836Y-72085434D01*
X113304725Y-72118525D01*
X113271634Y-72140636D01*
X113232600Y-72148400D01*
X112182600Y-72148400D01*
X112143566Y-72140636D01*
X112110475Y-72118525D01*
X112088364Y-72085434D01*
X112080600Y-72046400D01*
X112080600Y-71396400D01*
X112088364Y-71357366D01*
X112110475Y-71324275D01*
X112143566Y-71302164D01*
X112182600Y-71294400D01*
X113232600Y-71294400D01*
X113271634Y-71302164D01*
G37*
G36*
X117421634Y-71302164D02*
G01*
X117454725Y-71324275D01*
X117476836Y-71357366D01*
X117484600Y-71396400D01*
X117484600Y-72046400D01*
X117476836Y-72085434D01*
X117454725Y-72118525D01*
X117421634Y-72140636D01*
X117382600Y-72148400D01*
X116332600Y-72148400D01*
X116293566Y-72140636D01*
X116260475Y-72118525D01*
X116238364Y-72085434D01*
X116230600Y-72046400D01*
X116230600Y-71396400D01*
X116238364Y-71357366D01*
X116260475Y-71324275D01*
X116293566Y-71302164D01*
X116332600Y-71294400D01*
X117382600Y-71294400D01*
X117421634Y-71302164D01*
G37*
G36*
X151183139Y-68399023D02*
G01*
X151368857Y-68455359D01*
X151540015Y-68546845D01*
X151690036Y-68669964D01*
X151813155Y-68819985D01*
X151904641Y-68991143D01*
X151960977Y-69176861D01*
X151980000Y-69370000D01*
X151960977Y-69563139D01*
X151904641Y-69748857D01*
X151813155Y-69920015D01*
X151690036Y-70070036D01*
X151540015Y-70193155D01*
X151368857Y-70284641D01*
X151183139Y-70340977D01*
X150990000Y-70360000D01*
X150796861Y-70340977D01*
X150611143Y-70284641D01*
X150439985Y-70193155D01*
X150289964Y-70070036D01*
X150166845Y-69920015D01*
X150075359Y-69748857D01*
X150019023Y-69563139D01*
X150000000Y-69370000D01*
X150019023Y-69176861D01*
X150075359Y-68991143D01*
X150166845Y-68819985D01*
X150289964Y-68669964D01*
X150439985Y-68546845D01*
X150611143Y-68455359D01*
X150796861Y-68399023D01*
X150990000Y-68380000D01*
X151183139Y-68399023D01*
G37*
G36*
X122162000Y-70346000D02*
G01*
X120662000Y-70346000D01*
X120662000Y-68846000D01*
X122162000Y-68846000D01*
X122162000Y-70346000D01*
G37*
G36*
X124702000Y-70346000D02*
G01*
X123202000Y-70346000D01*
X123202000Y-68846000D01*
X124702000Y-68846000D01*
X124702000Y-70346000D01*
G37*
G36*
X127242000Y-70346000D02*
G01*
X125742000Y-70346000D01*
X125742000Y-68846000D01*
X127242000Y-68846000D01*
X127242000Y-70346000D01*
G37*
G36*
X129782000Y-70346000D02*
G01*
X128282000Y-70346000D01*
X128282000Y-68846000D01*
X129782000Y-68846000D01*
X129782000Y-70346000D01*
G37*
G36*
X149127004Y-64945627D02*
G01*
X149199999Y-64994401D01*
X149248773Y-65067396D01*
X149265900Y-65153500D01*
X149265900Y-65603500D01*
X149248773Y-65689604D01*
X149199999Y-65762599D01*
X149127004Y-65811373D01*
X149040900Y-65828500D01*
X148540900Y-65828500D01*
X148454796Y-65811373D01*
X148381801Y-65762599D01*
X148333027Y-65689604D01*
X148315900Y-65603500D01*
X148315900Y-65153500D01*
X148333027Y-65067396D01*
X148381801Y-64994401D01*
X148454796Y-64945627D01*
X148540900Y-64928500D01*
X149040900Y-64928500D01*
X149127004Y-64945627D01*
G37*
G36*
X151370803Y-65010918D02*
G01*
X151419466Y-65043434D01*
X151451982Y-65092097D01*
X151463400Y-65149500D01*
X151463400Y-65449500D01*
X151451982Y-65506903D01*
X151419466Y-65555566D01*
X151370803Y-65588082D01*
X151313400Y-65599500D01*
X150138400Y-65599500D01*
X150080997Y-65588082D01*
X150032334Y-65555566D01*
X149999818Y-65506903D01*
X149988400Y-65449500D01*
X149988400Y-65149500D01*
X149999818Y-65092097D01*
X150032334Y-65043434D01*
X150080997Y-65010918D01*
X150138400Y-64999500D01*
X151313400Y-64999500D01*
X151370803Y-65010918D01*
G37*
G36*
X153245803Y-64060918D02*
G01*
X153294466Y-64093434D01*
X153326982Y-64142097D01*
X153338400Y-64199500D01*
X153338400Y-64499500D01*
X153326982Y-64556903D01*
X153294466Y-64605566D01*
X153245803Y-64638082D01*
X153188400Y-64649500D01*
X152013400Y-64649500D01*
X151955997Y-64638082D01*
X151907334Y-64605566D01*
X151874818Y-64556903D01*
X151863400Y-64499500D01*
X151863400Y-64199500D01*
X151874818Y-64142097D01*
X151907334Y-64093434D01*
X151955997Y-64060918D01*
X152013400Y-64049500D01*
X153188400Y-64049500D01*
X153245803Y-64060918D01*
G37*
G36*
X149127004Y-63395627D02*
G01*
X149199999Y-63444401D01*
X149248773Y-63517396D01*
X149265900Y-63603500D01*
X149265900Y-64053500D01*
X149248773Y-64139604D01*
X149199999Y-64212599D01*
X149127004Y-64261373D01*
X149040900Y-64278500D01*
X148540900Y-64278500D01*
X148454796Y-64261373D01*
X148381801Y-64212599D01*
X148333027Y-64139604D01*
X148315900Y-64053500D01*
X148315900Y-63603500D01*
X148333027Y-63517396D01*
X148381801Y-63444401D01*
X148454796Y-63395627D01*
X148540900Y-63378500D01*
X149040900Y-63378500D01*
X149127004Y-63395627D01*
G37*
G36*
X151370803Y-63110918D02*
G01*
X151419466Y-63143434D01*
X151451982Y-63192097D01*
X151463400Y-63249500D01*
X151463400Y-63549500D01*
X151451982Y-63606903D01*
X151419466Y-63655566D01*
X151370803Y-63688082D01*
X151313400Y-63699500D01*
X150138400Y-63699500D01*
X150080997Y-63688082D01*
X150032334Y-63655566D01*
X149999818Y-63606903D01*
X149988400Y-63549500D01*
X149988400Y-63249500D01*
X149999818Y-63192097D01*
X150032334Y-63143434D01*
X150080997Y-63110918D01*
X150138400Y-63099500D01*
X151313400Y-63099500D01*
X151370803Y-63110918D01*
G37*
G36*
X150876234Y-58222964D02*
G01*
X150909325Y-58245075D01*
X150931436Y-58278166D01*
X150939200Y-58317200D01*
X150939200Y-59317200D01*
X150931436Y-59356234D01*
X150909325Y-59389325D01*
X150876234Y-59411436D01*
X150837200Y-59419200D01*
X150037200Y-59419200D01*
X149998166Y-59411436D01*
X149965075Y-59389325D01*
X149942964Y-59356234D01*
X149935200Y-59317200D01*
X149935200Y-58317200D01*
X149942964Y-58278166D01*
X149965075Y-58245075D01*
X149998166Y-58222964D01*
X150037200Y-58215200D01*
X150837200Y-58215200D01*
X150876234Y-58222964D01*
G37*
G36*
X153176234Y-58222964D02*
G01*
X153209325Y-58245075D01*
X153231436Y-58278166D01*
X153239200Y-58317200D01*
X153239200Y-59317200D01*
X153231436Y-59356234D01*
X153209325Y-59389325D01*
X153176234Y-59411436D01*
X153137200Y-59419200D01*
X152337200Y-59419200D01*
X152298166Y-59411436D01*
X152265075Y-59389325D01*
X152242964Y-59356234D01*
X152235200Y-59317200D01*
X152235200Y-58317200D01*
X152242964Y-58278166D01*
X152265075Y-58245075D01*
X152298166Y-58222964D01*
X152337200Y-58215200D01*
X153137200Y-58215200D01*
X153176234Y-58222964D01*
G37*
G36*
X150126234Y-56872964D02*
G01*
X150159325Y-56895075D01*
X150181436Y-56928166D01*
X150189200Y-56967200D01*
X150189200Y-57667200D01*
X150181436Y-57706234D01*
X150159325Y-57739325D01*
X150126234Y-57761436D01*
X150087200Y-57769200D01*
X148987200Y-57769200D01*
X148948166Y-57761436D01*
X148915075Y-57739325D01*
X148892964Y-57706234D01*
X148885200Y-57667200D01*
X148885200Y-56967200D01*
X148892964Y-56928166D01*
X148915075Y-56895075D01*
X148948166Y-56872964D01*
X148987200Y-56865200D01*
X150087200Y-56865200D01*
X150126234Y-56872964D01*
G37*
G36*
X151774137Y-56157866D02*
G01*
X151881887Y-56227113D01*
X151965764Y-56323912D01*
X152018972Y-56440420D01*
X152037200Y-56567200D01*
X152018972Y-56693980D01*
X151965764Y-56810488D01*
X151881887Y-56907287D01*
X151774137Y-56976534D01*
X151651242Y-57012620D01*
X151523158Y-57012620D01*
X151400263Y-56976534D01*
X151292513Y-56907287D01*
X151208636Y-56810488D01*
X151155428Y-56693980D01*
X151137200Y-56567200D01*
X151155428Y-56440420D01*
X151208636Y-56323912D01*
X151292513Y-56227113D01*
X151400263Y-56157866D01*
X151523158Y-56121780D01*
X151651242Y-56121780D01*
X151774137Y-56157866D01*
G37*
G36*
X150126234Y-53872964D02*
G01*
X150159325Y-53895075D01*
X150181436Y-53928166D01*
X150189200Y-53967200D01*
X150189200Y-54667200D01*
X150181436Y-54706234D01*
X150159325Y-54739325D01*
X150126234Y-54761436D01*
X150087200Y-54769200D01*
X148987200Y-54769200D01*
X148948166Y-54761436D01*
X148915075Y-54739325D01*
X148892964Y-54706234D01*
X148885200Y-54667200D01*
X148885200Y-53967200D01*
X148892964Y-53928166D01*
X148915075Y-53895075D01*
X148948166Y-53872964D01*
X148987200Y-53865200D01*
X150087200Y-53865200D01*
X150126234Y-53872964D01*
G37*
G36*
X151774137Y-53157866D02*
G01*
X151881887Y-53227113D01*
X151965764Y-53323912D01*
X152018972Y-53440420D01*
X152037200Y-53567200D01*
X152018972Y-53693980D01*
X151965764Y-53810488D01*
X151881887Y-53907287D01*
X151774137Y-53976534D01*
X151651242Y-54012620D01*
X151523158Y-54012620D01*
X151400263Y-53976534D01*
X151292513Y-53907287D01*
X151208636Y-53810488D01*
X151155428Y-53693980D01*
X151137200Y-53567200D01*
X151155428Y-53440420D01*
X151208636Y-53323912D01*
X151292513Y-53227113D01*
X151400263Y-53157866D01*
X151523158Y-53121780D01*
X151651242Y-53121780D01*
X151774137Y-53157866D01*
G37*
G36*
X150126234Y-52372964D02*
G01*
X150159325Y-52395075D01*
X150181436Y-52428166D01*
X150189200Y-52467200D01*
X150189200Y-53167200D01*
X150181436Y-53206234D01*
X150159325Y-53239325D01*
X150126234Y-53261436D01*
X150087200Y-53269200D01*
X148987200Y-53269200D01*
X148948166Y-53261436D01*
X148915075Y-53239325D01*
X148892964Y-53206234D01*
X148885200Y-53167200D01*
X148885200Y-52467200D01*
X148892964Y-52428166D01*
X148915075Y-52395075D01*
X148948166Y-52372964D01*
X148987200Y-52365200D01*
X150087200Y-52365200D01*
X150126234Y-52372964D01*
G37*
G36*
X150876234Y-50722964D02*
G01*
X150909325Y-50745075D01*
X150931436Y-50778166D01*
X150939200Y-50817200D01*
X150939200Y-51817200D01*
X150931436Y-51856234D01*
X150909325Y-51889325D01*
X150876234Y-51911436D01*
X150837200Y-51919200D01*
X150037200Y-51919200D01*
X149998166Y-51911436D01*
X149965075Y-51889325D01*
X149942964Y-51856234D01*
X149935200Y-51817200D01*
X149935200Y-50817200D01*
X149942964Y-50778166D01*
X149965075Y-50745075D01*
X149998166Y-50722964D01*
X150037200Y-50715200D01*
X150837200Y-50715200D01*
X150876234Y-50722964D01*
G37*
G36*
X153176234Y-50722964D02*
G01*
X153209325Y-50745075D01*
X153231436Y-50778166D01*
X153239200Y-50817200D01*
X153239200Y-51817200D01*
X153231436Y-51856234D01*
X153209325Y-51889325D01*
X153176234Y-51911436D01*
X153137200Y-51919200D01*
X152337200Y-51919200D01*
X152298166Y-51911436D01*
X152265075Y-51889325D01*
X152242964Y-51856234D01*
X152235200Y-51817200D01*
X152235200Y-50817200D01*
X152242964Y-50778166D01*
X152265075Y-50745075D01*
X152298166Y-50722964D01*
X152337200Y-50715200D01*
X153137200Y-50715200D01*
X153176234Y-50722964D01*
G37*
G36*
X135884000Y-47486000D02*
G01*
X134384000Y-47486000D01*
X134384000Y-45986000D01*
X135884000Y-45986000D01*
X135884000Y-47486000D01*
G37*
G36*
X138418000Y-47486000D02*
G01*
X136918000Y-47486000D01*
X136918000Y-45986000D01*
X138418000Y-45986000D01*
X138418000Y-47486000D01*
G37*
M02*
