G04 #@! TF.GenerationSoftware,KiCad,Pcbnew,8.0.1*
G04 #@! TF.CreationDate,2025-04-02T13:34:02-04:00*
G04 #@! TF.ProjectId,atiny_1616_gamer,6174696e-795f-4313-9631-365f67616d65,rev?*
G04 #@! TF.SameCoordinates,Original*
G04 #@! TF.FileFunction,Copper,L2,Bot*
G04 #@! TF.FilePolarity,Positive*
%FSLAX46Y46*%
G04 Gerber Fmt 4.6, Leading zero omitted, Abs format (unit mm)*
G04 Created by KiCad (PCBNEW 8.0.1) date 2025-04-02 13:34:02*
%MOMM*%
%LPD*%
G01*
G04 APERTURE LIST*
G04 #@! TA.AperFunction,ComponentPad*
%ADD10R,1.498000X1.498000*%
G04 #@! TD*
G04 #@! TA.AperFunction,ComponentPad*
%ADD11C,1.498000*%
G04 #@! TD*
G04 #@! TA.AperFunction,ComponentPad*
%ADD12C,1.985000*%
G04 #@! TD*
G04 #@! TA.AperFunction,SMDPad,CuDef*
%ADD13R,2.000000X2.000000*%
G04 #@! TD*
G04 #@! TA.AperFunction,ViaPad*
%ADD14C,0.700000*%
G04 #@! TD*
G04 #@! TA.AperFunction,Conductor*
%ADD15C,0.400000*%
G04 #@! TD*
G04 #@! TA.AperFunction,Conductor*
%ADD16C,0.600000*%
G04 #@! TD*
G04 APERTURE END LIST*
D10*
X121337000Y-95413000D03*
D11*
X127837000Y-95413000D03*
X121337000Y-99913000D03*
X127837000Y-99913000D03*
D10*
X136323000Y-95413000D03*
D11*
X142823000Y-95413000D03*
X136323000Y-99913000D03*
X142823000Y-99913000D03*
D10*
X128830000Y-87920000D03*
D11*
X135330000Y-87920000D03*
X128830000Y-92420000D03*
X135330000Y-92420000D03*
D10*
X128830000Y-102906000D03*
D11*
X135330000Y-102906000D03*
X128830000Y-107406000D03*
X135330000Y-107406000D03*
D12*
X113170000Y-77470000D03*
X150990000Y-77470000D03*
D13*
X113792000Y-90692000D03*
X113792000Y-94742000D03*
X113792000Y-98792000D03*
D14*
X134239000Y-73075800D03*
X139623800Y-77698600D03*
X124815600Y-74523600D03*
X129032000Y-71258200D03*
X136423400Y-86410800D03*
X140284200Y-71501000D03*
X128066800Y-81000600D03*
X148640800Y-58724800D03*
X122809000Y-90703400D03*
X129997200Y-86004400D03*
X116001800Y-90678000D03*
X132029200Y-84632800D03*
X132080000Y-82092800D03*
X132080000Y-79578200D03*
X132054600Y-77038200D03*
X132029200Y-74472800D03*
D15*
X135255000Y-77698600D02*
X139623800Y-77698600D01*
X132029200Y-74472800D02*
X135255000Y-77698600D01*
D16*
X124815600Y-74523600D02*
X125766600Y-74523600D01*
X125766600Y-74523600D02*
X129032000Y-71258200D01*
D15*
X134011050Y-71501000D02*
X140284200Y-71501000D01*
X128066800Y-77445250D02*
X134011050Y-71501000D01*
X128066800Y-81000600D02*
X128066800Y-77445250D01*
D16*
X148640800Y-58724800D02*
X148640800Y-75120800D01*
X148640800Y-75120800D02*
X150990000Y-77470000D01*
D15*
X113792000Y-98792000D02*
X114720400Y-98792000D01*
X114720400Y-98792000D02*
X122809000Y-90703400D01*
D16*
X127508000Y-86004400D02*
X122809000Y-90703400D01*
X129997200Y-86004400D02*
X127508000Y-86004400D01*
D15*
X113806000Y-90678000D02*
X113792000Y-90692000D01*
X116001800Y-90678000D02*
X113806000Y-90678000D01*
X127837000Y-95413000D02*
X121337000Y-95413000D01*
D16*
X132029200Y-84632800D02*
X132029200Y-82143600D01*
X132029200Y-82143600D02*
X132080000Y-82092800D01*
D15*
X132080000Y-79578200D02*
X132080000Y-82092800D01*
X132054600Y-77038200D02*
X132054600Y-79552800D01*
X132054600Y-79552800D02*
X132080000Y-79578200D01*
X132029200Y-74472800D02*
X132029200Y-77012800D01*
X132029200Y-77012800D02*
X132054600Y-77038200D01*
G04 #@! TA.AperFunction,Conductor*
G36*
X153300018Y-44366616D02*
G01*
X153500161Y-44380930D01*
X153517663Y-44383447D01*
X153709397Y-44425155D01*
X153726355Y-44430134D01*
X153910209Y-44498709D01*
X153926301Y-44506059D01*
X154098504Y-44600088D01*
X154113384Y-44609649D01*
X154270467Y-44727241D01*
X154283837Y-44738827D01*
X154422572Y-44877562D01*
X154434158Y-44890932D01*
X154551746Y-45048010D01*
X154561311Y-45062895D01*
X154655340Y-45235098D01*
X154662690Y-45251190D01*
X154731262Y-45435036D01*
X154736246Y-45452012D01*
X154777951Y-45643731D01*
X154780469Y-45661242D01*
X154794784Y-45861380D01*
X154795100Y-45870227D01*
X154795100Y-108409372D01*
X154794784Y-108418219D01*
X154780469Y-108618357D01*
X154777951Y-108635868D01*
X154736246Y-108827587D01*
X154731262Y-108844563D01*
X154662690Y-109028409D01*
X154655340Y-109044501D01*
X154561311Y-109216704D01*
X154551746Y-109231589D01*
X154434158Y-109388667D01*
X154422572Y-109402037D01*
X154283837Y-109540772D01*
X154270467Y-109552358D01*
X154113389Y-109669946D01*
X154098504Y-109679511D01*
X153926301Y-109773540D01*
X153910209Y-109780890D01*
X153726363Y-109849462D01*
X153709387Y-109854446D01*
X153517668Y-109896151D01*
X153500157Y-109898669D01*
X153319379Y-109911599D01*
X153300017Y-109912984D01*
X153291172Y-109913300D01*
X110818028Y-109913300D01*
X110809182Y-109912984D01*
X110787222Y-109911413D01*
X110609042Y-109898669D01*
X110591531Y-109896151D01*
X110399812Y-109854446D01*
X110382836Y-109849462D01*
X110198990Y-109780890D01*
X110182898Y-109773540D01*
X110010695Y-109679511D01*
X109995810Y-109669946D01*
X109838732Y-109552358D01*
X109825362Y-109540772D01*
X109686627Y-109402037D01*
X109675041Y-109388667D01*
X109557449Y-109231584D01*
X109547888Y-109216704D01*
X109453859Y-109044501D01*
X109446509Y-109028409D01*
X109385691Y-108865351D01*
X109377934Y-108844555D01*
X109372955Y-108827597D01*
X109331247Y-108635863D01*
X109328730Y-108618356D01*
X109326284Y-108584161D01*
X109314416Y-108418218D01*
X109314100Y-108409372D01*
X109314100Y-107406000D01*
X127576229Y-107406000D01*
X127595276Y-107623710D01*
X127595278Y-107623720D01*
X127651838Y-107834807D01*
X127651843Y-107834821D01*
X127744200Y-108032882D01*
X127744201Y-108032884D01*
X127787592Y-108094853D01*
X128351119Y-107531326D01*
X128368734Y-107597063D01*
X128433902Y-107709937D01*
X128526063Y-107802098D01*
X128638937Y-107867266D01*
X128704672Y-107884880D01*
X128141145Y-108448406D01*
X128203115Y-108491798D01*
X128203117Y-108491799D01*
X128401178Y-108584156D01*
X128401192Y-108584161D01*
X128612279Y-108640721D01*
X128612289Y-108640723D01*
X128829999Y-108659771D01*
X128830001Y-108659771D01*
X129047710Y-108640723D01*
X129047720Y-108640721D01*
X129258807Y-108584161D01*
X129258821Y-108584156D01*
X129456883Y-108491799D01*
X129456890Y-108491795D01*
X129518853Y-108448406D01*
X128955327Y-107884879D01*
X129021063Y-107867266D01*
X129133937Y-107802098D01*
X129226098Y-107709937D01*
X129291266Y-107597063D01*
X129308880Y-107531327D01*
X129872406Y-108094853D01*
X129915795Y-108032890D01*
X129915799Y-108032883D01*
X130008156Y-107834821D01*
X130008161Y-107834807D01*
X130064721Y-107623720D01*
X130064723Y-107623710D01*
X130083771Y-107406000D01*
X134076229Y-107406000D01*
X134095276Y-107623710D01*
X134095278Y-107623720D01*
X134151838Y-107834807D01*
X134151843Y-107834821D01*
X134244200Y-108032882D01*
X134244201Y-108032884D01*
X134287592Y-108094853D01*
X134851119Y-107531326D01*
X134868734Y-107597063D01*
X134933902Y-107709937D01*
X135026063Y-107802098D01*
X135138937Y-107867266D01*
X135204672Y-107884880D01*
X134641145Y-108448406D01*
X134703115Y-108491798D01*
X134703117Y-108491799D01*
X134901178Y-108584156D01*
X134901192Y-108584161D01*
X135112279Y-108640721D01*
X135112289Y-108640723D01*
X135329999Y-108659771D01*
X135330001Y-108659771D01*
X135547710Y-108640723D01*
X135547720Y-108640721D01*
X135758807Y-108584161D01*
X135758821Y-108584156D01*
X135956883Y-108491799D01*
X135956890Y-108491795D01*
X136018853Y-108448406D01*
X135455327Y-107884879D01*
X135521063Y-107867266D01*
X135633937Y-107802098D01*
X135726098Y-107709937D01*
X135791266Y-107597063D01*
X135808880Y-107531327D01*
X136372406Y-108094853D01*
X136415795Y-108032890D01*
X136415799Y-108032883D01*
X136508156Y-107834821D01*
X136508161Y-107834807D01*
X136564721Y-107623720D01*
X136564723Y-107623710D01*
X136583771Y-107406000D01*
X136583771Y-107405999D01*
X136564723Y-107188289D01*
X136564721Y-107188279D01*
X136508161Y-106977192D01*
X136508156Y-106977178D01*
X136415801Y-106779121D01*
X136372405Y-106717145D01*
X135808879Y-107280671D01*
X135791266Y-107214937D01*
X135726098Y-107102063D01*
X135633937Y-107009902D01*
X135521063Y-106944734D01*
X135455326Y-106927119D01*
X136018853Y-106363592D01*
X135956884Y-106320201D01*
X135956882Y-106320200D01*
X135758821Y-106227843D01*
X135758807Y-106227838D01*
X135547720Y-106171278D01*
X135547710Y-106171276D01*
X135330001Y-106152229D01*
X135329999Y-106152229D01*
X135112289Y-106171276D01*
X135112279Y-106171278D01*
X134901192Y-106227838D01*
X134901178Y-106227843D01*
X134703114Y-106320202D01*
X134641145Y-106363591D01*
X135204673Y-106927119D01*
X135138937Y-106944734D01*
X135026063Y-107009902D01*
X134933902Y-107102063D01*
X134868734Y-107214937D01*
X134851119Y-107280673D01*
X134287591Y-106717145D01*
X134244202Y-106779114D01*
X134151843Y-106977178D01*
X134151838Y-106977192D01*
X134095278Y-107188279D01*
X134095276Y-107188289D01*
X134076229Y-107405999D01*
X134076229Y-107406000D01*
X130083771Y-107406000D01*
X130083771Y-107405999D01*
X130064723Y-107188289D01*
X130064721Y-107188279D01*
X130008161Y-106977192D01*
X130008156Y-106977178D01*
X129915801Y-106779121D01*
X129872405Y-106717145D01*
X129308879Y-107280671D01*
X129291266Y-107214937D01*
X129226098Y-107102063D01*
X129133937Y-107009902D01*
X129021063Y-106944734D01*
X128955326Y-106927119D01*
X129518853Y-106363592D01*
X129456884Y-106320201D01*
X129456882Y-106320200D01*
X129258821Y-106227843D01*
X129258807Y-106227838D01*
X129047720Y-106171278D01*
X129047710Y-106171276D01*
X128830001Y-106152229D01*
X128829999Y-106152229D01*
X128612289Y-106171276D01*
X128612279Y-106171278D01*
X128401192Y-106227838D01*
X128401178Y-106227843D01*
X128203114Y-106320202D01*
X128141145Y-106363591D01*
X128704673Y-106927119D01*
X128638937Y-106944734D01*
X128526063Y-107009902D01*
X128433902Y-107102063D01*
X128368734Y-107214937D01*
X128351119Y-107280673D01*
X127787591Y-106717145D01*
X127744202Y-106779114D01*
X127651843Y-106977178D01*
X127651838Y-106977192D01*
X127595278Y-107188279D01*
X127595276Y-107188289D01*
X127576229Y-107405999D01*
X127576229Y-107406000D01*
X109314100Y-107406000D01*
X109314100Y-103702870D01*
X127580500Y-103702870D01*
X127580501Y-103702876D01*
X127586908Y-103762483D01*
X127637202Y-103897328D01*
X127637206Y-103897335D01*
X127723452Y-104012544D01*
X127723455Y-104012547D01*
X127838664Y-104098793D01*
X127838671Y-104098797D01*
X127973517Y-104149091D01*
X127973516Y-104149091D01*
X127980444Y-104149835D01*
X128033127Y-104155500D01*
X129626872Y-104155499D01*
X129686483Y-104149091D01*
X129821331Y-104098796D01*
X129936546Y-104012546D01*
X130022796Y-103897331D01*
X130073091Y-103762483D01*
X130079500Y-103702873D01*
X130079500Y-102906001D01*
X134075727Y-102906001D01*
X134094781Y-103123796D01*
X134094783Y-103123807D01*
X134151366Y-103334979D01*
X134151368Y-103334983D01*
X134151369Y-103334987D01*
X134243768Y-103533137D01*
X134243770Y-103533141D01*
X134369167Y-103712226D01*
X134369172Y-103712232D01*
X134523767Y-103866827D01*
X134523773Y-103866832D01*
X134702858Y-103992229D01*
X134702860Y-103992230D01*
X134702863Y-103992232D01*
X134901013Y-104084631D01*
X135112198Y-104141218D01*
X135267770Y-104154828D01*
X135329998Y-104160273D01*
X135330000Y-104160273D01*
X135330002Y-104160273D01*
X135384579Y-104155498D01*
X135547802Y-104141218D01*
X135758987Y-104084631D01*
X135957137Y-103992232D01*
X136136231Y-103866829D01*
X136290829Y-103712231D01*
X136416232Y-103533137D01*
X136508631Y-103334987D01*
X136565218Y-103123802D01*
X136584273Y-102906000D01*
X136565218Y-102688198D01*
X136508631Y-102477013D01*
X136416232Y-102278864D01*
X136290829Y-102099769D01*
X136136231Y-101945171D01*
X136136227Y-101945168D01*
X136136226Y-101945167D01*
X135957141Y-101819770D01*
X135957137Y-101819768D01*
X135957133Y-101819766D01*
X135758987Y-101727369D01*
X135758983Y-101727368D01*
X135758979Y-101727366D01*
X135547807Y-101670783D01*
X135547803Y-101670782D01*
X135547802Y-101670782D01*
X135547801Y-101670781D01*
X135547796Y-101670781D01*
X135330002Y-101651727D01*
X135329998Y-101651727D01*
X135112203Y-101670781D01*
X135112192Y-101670783D01*
X134901020Y-101727366D01*
X134901011Y-101727370D01*
X134702866Y-101819766D01*
X134523766Y-101945172D01*
X134369172Y-102099766D01*
X134243766Y-102278866D01*
X134151370Y-102477011D01*
X134151366Y-102477020D01*
X134094783Y-102688192D01*
X134094781Y-102688203D01*
X134075727Y-102905998D01*
X134075727Y-102906001D01*
X130079500Y-102906001D01*
X130079499Y-102109128D01*
X130073091Y-102049517D01*
X130034172Y-101945171D01*
X130022797Y-101914671D01*
X130022793Y-101914664D01*
X129936547Y-101799455D01*
X129936544Y-101799452D01*
X129821335Y-101713206D01*
X129821328Y-101713202D01*
X129686482Y-101662908D01*
X129686483Y-101662908D01*
X129626883Y-101656501D01*
X129626881Y-101656500D01*
X129626873Y-101656500D01*
X129626864Y-101656500D01*
X128033129Y-101656500D01*
X128033123Y-101656501D01*
X127973516Y-101662908D01*
X127838671Y-101713202D01*
X127838664Y-101713206D01*
X127723455Y-101799452D01*
X127723452Y-101799455D01*
X127637206Y-101914664D01*
X127637202Y-101914671D01*
X127586908Y-102049517D01*
X127581506Y-102099766D01*
X127580501Y-102109123D01*
X127580500Y-102109135D01*
X127580500Y-103702870D01*
X109314100Y-103702870D01*
X109314100Y-99839870D01*
X112291500Y-99839870D01*
X112291501Y-99839876D01*
X112297908Y-99899483D01*
X112348202Y-100034328D01*
X112348206Y-100034335D01*
X112434452Y-100149544D01*
X112434455Y-100149547D01*
X112549664Y-100235793D01*
X112549671Y-100235797D01*
X112684517Y-100286091D01*
X112684516Y-100286091D01*
X112691444Y-100286835D01*
X112744127Y-100292500D01*
X114839872Y-100292499D01*
X114899483Y-100286091D01*
X115034331Y-100235796D01*
X115149546Y-100149546D01*
X115235796Y-100034331D01*
X115281049Y-99913000D01*
X120083229Y-99913000D01*
X120102276Y-100130710D01*
X120102278Y-100130720D01*
X120158838Y-100341807D01*
X120158843Y-100341821D01*
X120251200Y-100539882D01*
X120251201Y-100539884D01*
X120294592Y-100601853D01*
X120858119Y-100038326D01*
X120875734Y-100104063D01*
X120940902Y-100216937D01*
X121033063Y-100309098D01*
X121145937Y-100374266D01*
X121211672Y-100391880D01*
X120648145Y-100955406D01*
X120710115Y-100998798D01*
X120710117Y-100998799D01*
X120908178Y-101091156D01*
X120908192Y-101091161D01*
X121119279Y-101147721D01*
X121119289Y-101147723D01*
X121336999Y-101166771D01*
X121337001Y-101166771D01*
X121554710Y-101147723D01*
X121554720Y-101147721D01*
X121765807Y-101091161D01*
X121765821Y-101091156D01*
X121963883Y-100998799D01*
X121963890Y-100998795D01*
X122025853Y-100955406D01*
X121462327Y-100391879D01*
X121528063Y-100374266D01*
X121640937Y-100309098D01*
X121733098Y-100216937D01*
X121798266Y-100104063D01*
X121815880Y-100038327D01*
X122379406Y-100601853D01*
X122422795Y-100539890D01*
X122422799Y-100539883D01*
X122515156Y-100341821D01*
X122515161Y-100341807D01*
X122571721Y-100130720D01*
X122571723Y-100130710D01*
X122590771Y-99913000D01*
X126583229Y-99913000D01*
X126602276Y-100130710D01*
X126602278Y-100130720D01*
X126658838Y-100341807D01*
X126658843Y-100341821D01*
X126751200Y-100539882D01*
X126751201Y-100539884D01*
X126794592Y-100601853D01*
X127358119Y-100038326D01*
X127375734Y-100104063D01*
X127440902Y-100216937D01*
X127533063Y-100309098D01*
X127645937Y-100374266D01*
X127711672Y-100391880D01*
X127148145Y-100955406D01*
X127210115Y-100998798D01*
X127210117Y-100998799D01*
X127408178Y-101091156D01*
X127408192Y-101091161D01*
X127619279Y-101147721D01*
X127619289Y-101147723D01*
X127836999Y-101166771D01*
X127837001Y-101166771D01*
X128054710Y-101147723D01*
X128054720Y-101147721D01*
X128265807Y-101091161D01*
X128265821Y-101091156D01*
X128463883Y-100998799D01*
X128463890Y-100998795D01*
X128525853Y-100955406D01*
X127962327Y-100391879D01*
X128028063Y-100374266D01*
X128140937Y-100309098D01*
X128233098Y-100216937D01*
X128298266Y-100104063D01*
X128315880Y-100038327D01*
X128879406Y-100601853D01*
X128922795Y-100539890D01*
X128922799Y-100539883D01*
X129015156Y-100341821D01*
X129015161Y-100341807D01*
X129071721Y-100130720D01*
X129071723Y-100130710D01*
X129090771Y-99913000D01*
X135069229Y-99913000D01*
X135088276Y-100130710D01*
X135088278Y-100130720D01*
X135144838Y-100341807D01*
X135144843Y-100341821D01*
X135237200Y-100539882D01*
X135237201Y-100539884D01*
X135280592Y-100601853D01*
X135844119Y-100038326D01*
X135861734Y-100104063D01*
X135926902Y-100216937D01*
X136019063Y-100309098D01*
X136131937Y-100374266D01*
X136197672Y-100391880D01*
X135634145Y-100955406D01*
X135696115Y-100998798D01*
X135696117Y-100998799D01*
X135894178Y-101091156D01*
X135894192Y-101091161D01*
X136105279Y-101147721D01*
X136105289Y-101147723D01*
X136322999Y-101166771D01*
X136323001Y-101166771D01*
X136540710Y-101147723D01*
X136540720Y-101147721D01*
X136751807Y-101091161D01*
X136751821Y-101091156D01*
X136949883Y-100998799D01*
X136949890Y-100998795D01*
X137011853Y-100955406D01*
X136448327Y-100391879D01*
X136514063Y-100374266D01*
X136626937Y-100309098D01*
X136719098Y-100216937D01*
X136784266Y-100104063D01*
X136801880Y-100038327D01*
X137365406Y-100601853D01*
X137408795Y-100539890D01*
X137408799Y-100539883D01*
X137501156Y-100341821D01*
X137501161Y-100341807D01*
X137557721Y-100130720D01*
X137557723Y-100130710D01*
X137576771Y-99913000D01*
X141569229Y-99913000D01*
X141588276Y-100130710D01*
X141588278Y-100130720D01*
X141644838Y-100341807D01*
X141644843Y-100341821D01*
X141737200Y-100539882D01*
X141737201Y-100539884D01*
X141780592Y-100601853D01*
X142344119Y-100038326D01*
X142361734Y-100104063D01*
X142426902Y-100216937D01*
X142519063Y-100309098D01*
X142631937Y-100374266D01*
X142697672Y-100391880D01*
X142134145Y-100955406D01*
X142196115Y-100998798D01*
X142196117Y-100998799D01*
X142394178Y-101091156D01*
X142394192Y-101091161D01*
X142605279Y-101147721D01*
X142605289Y-101147723D01*
X142822999Y-101166771D01*
X142823001Y-101166771D01*
X143040710Y-101147723D01*
X143040720Y-101147721D01*
X143251807Y-101091161D01*
X143251821Y-101091156D01*
X143449883Y-100998799D01*
X143449890Y-100998795D01*
X143511853Y-100955406D01*
X142948327Y-100391879D01*
X143014063Y-100374266D01*
X143126937Y-100309098D01*
X143219098Y-100216937D01*
X143284266Y-100104063D01*
X143301880Y-100038327D01*
X143865406Y-100601853D01*
X143908795Y-100539890D01*
X143908799Y-100539883D01*
X144001156Y-100341821D01*
X144001161Y-100341807D01*
X144057721Y-100130720D01*
X144057723Y-100130710D01*
X144076771Y-99913000D01*
X144076771Y-99912999D01*
X144057723Y-99695289D01*
X144057721Y-99695279D01*
X144001161Y-99484192D01*
X144001156Y-99484178D01*
X143908801Y-99286121D01*
X143865405Y-99224145D01*
X143301879Y-99787671D01*
X143284266Y-99721937D01*
X143219098Y-99609063D01*
X143126937Y-99516902D01*
X143014063Y-99451734D01*
X142948326Y-99434119D01*
X143511853Y-98870592D01*
X143449884Y-98827201D01*
X143449882Y-98827200D01*
X143251821Y-98734843D01*
X143251807Y-98734838D01*
X143040720Y-98678278D01*
X143040710Y-98678276D01*
X142823001Y-98659229D01*
X142822999Y-98659229D01*
X142605289Y-98678276D01*
X142605279Y-98678278D01*
X142394192Y-98734838D01*
X142394178Y-98734843D01*
X142196114Y-98827202D01*
X142134145Y-98870591D01*
X142697673Y-99434119D01*
X142631937Y-99451734D01*
X142519063Y-99516902D01*
X142426902Y-99609063D01*
X142361734Y-99721937D01*
X142344119Y-99787673D01*
X141780591Y-99224145D01*
X141737202Y-99286114D01*
X141644843Y-99484178D01*
X141644838Y-99484192D01*
X141588278Y-99695279D01*
X141588276Y-99695289D01*
X141569229Y-99912999D01*
X141569229Y-99913000D01*
X137576771Y-99913000D01*
X137576771Y-99912999D01*
X137557723Y-99695289D01*
X137557721Y-99695279D01*
X137501161Y-99484192D01*
X137501156Y-99484178D01*
X137408801Y-99286121D01*
X137365405Y-99224145D01*
X136801879Y-99787671D01*
X136784266Y-99721937D01*
X136719098Y-99609063D01*
X136626937Y-99516902D01*
X136514063Y-99451734D01*
X136448326Y-99434119D01*
X137011853Y-98870592D01*
X136949884Y-98827201D01*
X136949882Y-98827200D01*
X136751821Y-98734843D01*
X136751807Y-98734838D01*
X136540720Y-98678278D01*
X136540710Y-98678276D01*
X136323001Y-98659229D01*
X136322999Y-98659229D01*
X136105289Y-98678276D01*
X136105279Y-98678278D01*
X135894192Y-98734838D01*
X135894178Y-98734843D01*
X135696114Y-98827202D01*
X135634145Y-98870591D01*
X136197673Y-99434119D01*
X136131937Y-99451734D01*
X136019063Y-99516902D01*
X135926902Y-99609063D01*
X135861734Y-99721937D01*
X135844119Y-99787673D01*
X135280591Y-99224145D01*
X135237202Y-99286114D01*
X135144843Y-99484178D01*
X135144838Y-99484192D01*
X135088278Y-99695279D01*
X135088276Y-99695289D01*
X135069229Y-99912999D01*
X135069229Y-99913000D01*
X129090771Y-99913000D01*
X129090771Y-99912999D01*
X129071723Y-99695289D01*
X129071721Y-99695279D01*
X129015161Y-99484192D01*
X129015156Y-99484178D01*
X128922801Y-99286121D01*
X128879405Y-99224145D01*
X128315879Y-99787671D01*
X128298266Y-99721937D01*
X128233098Y-99609063D01*
X128140937Y-99516902D01*
X128028063Y-99451734D01*
X127962326Y-99434119D01*
X128525853Y-98870592D01*
X128463884Y-98827201D01*
X128463882Y-98827200D01*
X128265821Y-98734843D01*
X128265807Y-98734838D01*
X128054720Y-98678278D01*
X128054710Y-98678276D01*
X127837001Y-98659229D01*
X127836999Y-98659229D01*
X127619289Y-98678276D01*
X127619279Y-98678278D01*
X127408192Y-98734838D01*
X127408178Y-98734843D01*
X127210114Y-98827202D01*
X127148145Y-98870591D01*
X127711673Y-99434119D01*
X127645937Y-99451734D01*
X127533063Y-99516902D01*
X127440902Y-99609063D01*
X127375734Y-99721937D01*
X127358119Y-99787673D01*
X126794591Y-99224145D01*
X126751202Y-99286114D01*
X126658843Y-99484178D01*
X126658838Y-99484192D01*
X126602278Y-99695279D01*
X126602276Y-99695289D01*
X126583229Y-99912999D01*
X126583229Y-99913000D01*
X122590771Y-99913000D01*
X122590771Y-99912999D01*
X122571723Y-99695289D01*
X122571721Y-99695279D01*
X122515161Y-99484192D01*
X122515156Y-99484178D01*
X122422801Y-99286121D01*
X122379405Y-99224145D01*
X121815879Y-99787671D01*
X121798266Y-99721937D01*
X121733098Y-99609063D01*
X121640937Y-99516902D01*
X121528063Y-99451734D01*
X121462326Y-99434119D01*
X122025853Y-98870592D01*
X121963884Y-98827201D01*
X121963882Y-98827200D01*
X121765821Y-98734843D01*
X121765807Y-98734838D01*
X121554720Y-98678278D01*
X121554710Y-98678276D01*
X121337001Y-98659229D01*
X121336999Y-98659229D01*
X121119289Y-98678276D01*
X121119279Y-98678278D01*
X120908192Y-98734838D01*
X120908178Y-98734843D01*
X120710114Y-98827202D01*
X120648145Y-98870591D01*
X121211673Y-99434119D01*
X121145937Y-99451734D01*
X121033063Y-99516902D01*
X120940902Y-99609063D01*
X120875734Y-99721937D01*
X120858119Y-99787673D01*
X120294591Y-99224145D01*
X120251202Y-99286114D01*
X120158843Y-99484178D01*
X120158838Y-99484192D01*
X120102278Y-99695279D01*
X120102276Y-99695289D01*
X120083229Y-99912999D01*
X120083229Y-99913000D01*
X115281049Y-99913000D01*
X115286091Y-99899483D01*
X115292500Y-99839873D01*
X115292499Y-99261917D01*
X115312183Y-99194879D01*
X115328813Y-99174242D01*
X119875821Y-94627234D01*
X119937142Y-94593751D01*
X120006834Y-94598735D01*
X120062767Y-94640607D01*
X120087184Y-94706071D01*
X120087500Y-94714917D01*
X120087500Y-96209870D01*
X120087501Y-96209876D01*
X120093908Y-96269483D01*
X120144202Y-96404328D01*
X120144206Y-96404335D01*
X120230452Y-96519544D01*
X120230455Y-96519547D01*
X120345664Y-96605793D01*
X120345671Y-96605797D01*
X120480517Y-96656091D01*
X120480516Y-96656091D01*
X120487444Y-96656835D01*
X120540127Y-96662500D01*
X122133872Y-96662499D01*
X122193483Y-96656091D01*
X122328331Y-96605796D01*
X122443546Y-96519546D01*
X122529796Y-96404331D01*
X122580091Y-96269483D01*
X122583734Y-96235598D01*
X122584955Y-96224245D01*
X122611693Y-96159694D01*
X122669085Y-96119845D01*
X122708244Y-96113500D01*
X126737587Y-96113500D01*
X126804626Y-96133185D01*
X126839161Y-96166376D01*
X126876171Y-96219231D01*
X127030767Y-96373827D01*
X127030773Y-96373832D01*
X127209858Y-96499229D01*
X127209860Y-96499230D01*
X127209863Y-96499232D01*
X127408013Y-96591631D01*
X127619198Y-96648218D01*
X127774770Y-96661828D01*
X127836998Y-96667273D01*
X127837000Y-96667273D01*
X127837002Y-96667273D01*
X127891579Y-96662498D01*
X128054802Y-96648218D01*
X128265987Y-96591631D01*
X128464137Y-96499232D01*
X128643231Y-96373829D01*
X128797829Y-96219231D01*
X128804384Y-96209870D01*
X135073500Y-96209870D01*
X135073501Y-96209876D01*
X135079908Y-96269483D01*
X135130202Y-96404328D01*
X135130206Y-96404335D01*
X135216452Y-96519544D01*
X135216455Y-96519547D01*
X135331664Y-96605793D01*
X135331671Y-96605797D01*
X135466517Y-96656091D01*
X135466516Y-96656091D01*
X135473444Y-96656835D01*
X135526127Y-96662500D01*
X137119872Y-96662499D01*
X137179483Y-96656091D01*
X137314331Y-96605796D01*
X137429546Y-96519546D01*
X137515796Y-96404331D01*
X137566091Y-96269483D01*
X137572500Y-96209873D01*
X137572500Y-95413001D01*
X141568727Y-95413001D01*
X141587781Y-95630796D01*
X141587783Y-95630807D01*
X141644366Y-95841979D01*
X141644368Y-95841983D01*
X141644369Y-95841987D01*
X141647813Y-95849372D01*
X141736768Y-96040137D01*
X141736770Y-96040141D01*
X141862167Y-96219226D01*
X141862172Y-96219232D01*
X142016767Y-96373827D01*
X142016773Y-96373832D01*
X142195858Y-96499229D01*
X142195860Y-96499230D01*
X142195863Y-96499232D01*
X142394013Y-96591631D01*
X142605198Y-96648218D01*
X142760770Y-96661828D01*
X142822998Y-96667273D01*
X142823000Y-96667273D01*
X142823002Y-96667273D01*
X142877579Y-96662498D01*
X143040802Y-96648218D01*
X143251987Y-96591631D01*
X143450137Y-96499232D01*
X143629231Y-96373829D01*
X143783829Y-96219231D01*
X143909232Y-96040137D01*
X144001631Y-95841987D01*
X144058218Y-95630802D01*
X144077273Y-95413000D01*
X144058218Y-95195198D01*
X144001631Y-94984013D01*
X143909232Y-94785864D01*
X143820838Y-94659623D01*
X143783830Y-94606770D01*
X143733576Y-94556516D01*
X143629231Y-94452171D01*
X143629227Y-94452168D01*
X143629226Y-94452167D01*
X143450141Y-94326770D01*
X143450137Y-94326768D01*
X143450133Y-94326766D01*
X143251987Y-94234369D01*
X143251983Y-94234368D01*
X143251979Y-94234366D01*
X143040807Y-94177783D01*
X143040803Y-94177782D01*
X143040802Y-94177782D01*
X143040801Y-94177781D01*
X143040796Y-94177781D01*
X142823002Y-94158727D01*
X142822998Y-94158727D01*
X142605203Y-94177781D01*
X142605192Y-94177783D01*
X142394020Y-94234366D01*
X142394011Y-94234370D01*
X142195866Y-94326766D01*
X142016766Y-94452172D01*
X141862172Y-94606766D01*
X141736766Y-94785866D01*
X141644370Y-94984011D01*
X141644366Y-94984020D01*
X141587783Y-95195192D01*
X141587781Y-95195203D01*
X141568727Y-95412998D01*
X141568727Y-95413001D01*
X137572500Y-95413001D01*
X137572499Y-94616128D01*
X137566091Y-94556517D01*
X137527172Y-94452171D01*
X137515797Y-94421671D01*
X137515793Y-94421664D01*
X137429547Y-94306455D01*
X137429544Y-94306452D01*
X137314335Y-94220206D01*
X137314328Y-94220202D01*
X137179482Y-94169908D01*
X137179483Y-94169908D01*
X137119883Y-94163501D01*
X137119881Y-94163500D01*
X137119873Y-94163500D01*
X137119864Y-94163500D01*
X135526129Y-94163500D01*
X135526123Y-94163501D01*
X135466516Y-94169908D01*
X135331671Y-94220202D01*
X135331664Y-94220206D01*
X135216455Y-94306452D01*
X135216452Y-94306455D01*
X135130206Y-94421664D01*
X135130202Y-94421671D01*
X135079908Y-94556517D01*
X135075045Y-94601754D01*
X135073501Y-94616123D01*
X135073500Y-94616135D01*
X135073500Y-96209870D01*
X128804384Y-96209870D01*
X128923232Y-96040137D01*
X129015631Y-95841987D01*
X129072218Y-95630802D01*
X129091273Y-95413000D01*
X129072218Y-95195198D01*
X129015631Y-94984013D01*
X128923232Y-94785864D01*
X128834838Y-94659623D01*
X128797830Y-94606770D01*
X128747576Y-94556516D01*
X128643231Y-94452171D01*
X128643227Y-94452168D01*
X128643226Y-94452167D01*
X128464141Y-94326770D01*
X128464137Y-94326768D01*
X128464133Y-94326766D01*
X128265987Y-94234369D01*
X128265983Y-94234368D01*
X128265979Y-94234366D01*
X128054807Y-94177783D01*
X128054803Y-94177782D01*
X128054802Y-94177782D01*
X128054801Y-94177781D01*
X128054796Y-94177781D01*
X127837002Y-94158727D01*
X127836998Y-94158727D01*
X127619203Y-94177781D01*
X127619192Y-94177783D01*
X127408020Y-94234366D01*
X127408011Y-94234370D01*
X127209866Y-94326766D01*
X127030766Y-94452172D01*
X126876171Y-94606767D01*
X126839162Y-94659623D01*
X126784585Y-94703248D01*
X126737587Y-94712500D01*
X122708244Y-94712500D01*
X122641205Y-94692815D01*
X122595450Y-94640011D01*
X122584954Y-94601754D01*
X122584094Y-94593751D01*
X122580091Y-94556517D01*
X122541173Y-94452172D01*
X122529797Y-94421671D01*
X122529793Y-94421664D01*
X122443547Y-94306455D01*
X122443544Y-94306452D01*
X122328335Y-94220206D01*
X122328328Y-94220202D01*
X122193482Y-94169908D01*
X122193483Y-94169908D01*
X122133883Y-94163501D01*
X122133881Y-94163500D01*
X122133873Y-94163500D01*
X122133865Y-94163500D01*
X120638917Y-94163500D01*
X120571878Y-94143815D01*
X120526123Y-94091011D01*
X120516179Y-94021853D01*
X120545204Y-93958297D01*
X120551222Y-93951833D01*
X122083055Y-92420000D01*
X127576229Y-92420000D01*
X127595276Y-92637710D01*
X127595278Y-92637720D01*
X127651838Y-92848807D01*
X127651843Y-92848821D01*
X127744200Y-93046882D01*
X127744201Y-93046884D01*
X127787592Y-93108853D01*
X128351119Y-92545326D01*
X128368734Y-92611063D01*
X128433902Y-92723937D01*
X128526063Y-92816098D01*
X128638937Y-92881266D01*
X128704672Y-92898880D01*
X128141145Y-93462406D01*
X128203115Y-93505798D01*
X128203117Y-93505799D01*
X128401178Y-93598156D01*
X128401192Y-93598161D01*
X128612279Y-93654721D01*
X128612289Y-93654723D01*
X128829999Y-93673771D01*
X128830001Y-93673771D01*
X129047710Y-93654723D01*
X129047720Y-93654721D01*
X129258807Y-93598161D01*
X129258821Y-93598156D01*
X129456883Y-93505799D01*
X129456890Y-93505795D01*
X129518853Y-93462406D01*
X128955327Y-92898879D01*
X129021063Y-92881266D01*
X129133937Y-92816098D01*
X129226098Y-92723937D01*
X129291266Y-92611063D01*
X129308880Y-92545327D01*
X129872406Y-93108853D01*
X129915795Y-93046890D01*
X129915799Y-93046883D01*
X130008156Y-92848821D01*
X130008161Y-92848807D01*
X130064721Y-92637720D01*
X130064723Y-92637710D01*
X130083771Y-92420000D01*
X134076229Y-92420000D01*
X134095276Y-92637710D01*
X134095278Y-92637720D01*
X134151838Y-92848807D01*
X134151843Y-92848821D01*
X134244200Y-93046882D01*
X134244201Y-93046884D01*
X134287592Y-93108853D01*
X134851119Y-92545326D01*
X134868734Y-92611063D01*
X134933902Y-92723937D01*
X135026063Y-92816098D01*
X135138937Y-92881266D01*
X135204672Y-92898880D01*
X134641145Y-93462406D01*
X134703115Y-93505798D01*
X134703117Y-93505799D01*
X134901178Y-93598156D01*
X134901192Y-93598161D01*
X135112279Y-93654721D01*
X135112289Y-93654723D01*
X135329999Y-93673771D01*
X135330001Y-93673771D01*
X135547710Y-93654723D01*
X135547720Y-93654721D01*
X135758807Y-93598161D01*
X135758821Y-93598156D01*
X135956883Y-93505799D01*
X135956890Y-93505795D01*
X136018853Y-93462406D01*
X135455327Y-92898879D01*
X135521063Y-92881266D01*
X135633937Y-92816098D01*
X135726098Y-92723937D01*
X135791266Y-92611063D01*
X135808880Y-92545327D01*
X136372406Y-93108853D01*
X136415795Y-93046890D01*
X136415799Y-93046883D01*
X136508156Y-92848821D01*
X136508161Y-92848807D01*
X136564721Y-92637720D01*
X136564723Y-92637710D01*
X136583771Y-92420000D01*
X136583771Y-92419999D01*
X136564723Y-92202289D01*
X136564721Y-92202279D01*
X136508161Y-91991192D01*
X136508156Y-91991178D01*
X136415801Y-91793121D01*
X136372405Y-91731145D01*
X135808879Y-92294671D01*
X135791266Y-92228937D01*
X135726098Y-92116063D01*
X135633937Y-92023902D01*
X135521063Y-91958734D01*
X135455326Y-91941119D01*
X136018853Y-91377592D01*
X135956884Y-91334201D01*
X135956882Y-91334200D01*
X135758821Y-91241843D01*
X135758807Y-91241838D01*
X135547720Y-91185278D01*
X135547710Y-91185276D01*
X135330001Y-91166229D01*
X135329999Y-91166229D01*
X135112289Y-91185276D01*
X135112279Y-91185278D01*
X134901192Y-91241838D01*
X134901178Y-91241843D01*
X134703114Y-91334202D01*
X134641145Y-91377591D01*
X135204673Y-91941119D01*
X135138937Y-91958734D01*
X135026063Y-92023902D01*
X134933902Y-92116063D01*
X134868734Y-92228937D01*
X134851119Y-92294673D01*
X134287591Y-91731145D01*
X134244202Y-91793114D01*
X134151843Y-91991178D01*
X134151838Y-91991192D01*
X134095278Y-92202279D01*
X134095276Y-92202289D01*
X134076229Y-92419999D01*
X134076229Y-92420000D01*
X130083771Y-92420000D01*
X130083771Y-92419999D01*
X130064723Y-92202289D01*
X130064721Y-92202279D01*
X130008161Y-91991192D01*
X130008156Y-91991178D01*
X129915801Y-91793121D01*
X129872405Y-91731145D01*
X129308879Y-92294671D01*
X129291266Y-92228937D01*
X129226098Y-92116063D01*
X129133937Y-92023902D01*
X129021063Y-91958734D01*
X128955326Y-91941119D01*
X129518853Y-91377592D01*
X129456884Y-91334201D01*
X129456882Y-91334200D01*
X129258821Y-91241843D01*
X129258807Y-91241838D01*
X129047720Y-91185278D01*
X129047710Y-91185276D01*
X128830001Y-91166229D01*
X128829999Y-91166229D01*
X128612289Y-91185276D01*
X128612279Y-91185278D01*
X128401192Y-91241838D01*
X128401178Y-91241843D01*
X128203114Y-91334202D01*
X128141145Y-91377591D01*
X128704673Y-91941119D01*
X128638937Y-91958734D01*
X128526063Y-92023902D01*
X128433902Y-92116063D01*
X128368734Y-92228937D01*
X128351119Y-92294673D01*
X127787591Y-91731145D01*
X127744202Y-91793114D01*
X127651843Y-91991178D01*
X127651838Y-91991192D01*
X127595278Y-92202279D01*
X127595276Y-92202289D01*
X127576229Y-92419999D01*
X127576229Y-92420000D01*
X122083055Y-92420000D01*
X122936889Y-91566166D01*
X122998210Y-91532683D01*
X122998401Y-91532641D01*
X123073267Y-91516729D01*
X123236593Y-91444012D01*
X123381230Y-91338926D01*
X123385485Y-91334201D01*
X123468644Y-91241843D01*
X123500859Y-91206065D01*
X123578003Y-91072446D01*
X123597700Y-91046776D01*
X127368821Y-87275655D01*
X127430142Y-87242172D01*
X127499834Y-87247156D01*
X127555767Y-87289028D01*
X127580184Y-87354492D01*
X127580500Y-87363338D01*
X127580500Y-88716870D01*
X127580501Y-88716876D01*
X127586908Y-88776483D01*
X127637202Y-88911328D01*
X127637206Y-88911335D01*
X127723452Y-89026544D01*
X127723455Y-89026547D01*
X127838664Y-89112793D01*
X127838671Y-89112797D01*
X127973517Y-89163091D01*
X127973516Y-89163091D01*
X127980444Y-89163835D01*
X128033127Y-89169500D01*
X129626872Y-89169499D01*
X129686483Y-89163091D01*
X129821331Y-89112796D01*
X129936546Y-89026546D01*
X130022796Y-88911331D01*
X130073091Y-88776483D01*
X130079500Y-88716873D01*
X130079500Y-87920001D01*
X134075727Y-87920001D01*
X134094781Y-88137796D01*
X134094783Y-88137807D01*
X134151366Y-88348979D01*
X134151368Y-88348983D01*
X134151369Y-88348987D01*
X134243768Y-88547137D01*
X134243770Y-88547141D01*
X134369167Y-88726226D01*
X134369172Y-88726232D01*
X134523767Y-88880827D01*
X134523773Y-88880832D01*
X134702858Y-89006229D01*
X134702860Y-89006230D01*
X134702863Y-89006232D01*
X134901013Y-89098631D01*
X135112198Y-89155218D01*
X135267770Y-89168828D01*
X135329998Y-89174273D01*
X135330000Y-89174273D01*
X135330002Y-89174273D01*
X135384579Y-89169498D01*
X135547802Y-89155218D01*
X135758987Y-89098631D01*
X135957137Y-89006232D01*
X136136231Y-88880829D01*
X136290829Y-88726231D01*
X136416232Y-88547137D01*
X136508631Y-88348987D01*
X136565218Y-88137802D01*
X136584273Y-87920000D01*
X136565218Y-87702198D01*
X136508631Y-87491013D01*
X136416232Y-87292864D01*
X136290829Y-87113769D01*
X136136231Y-86959171D01*
X136136227Y-86959168D01*
X136136226Y-86959167D01*
X135957141Y-86833770D01*
X135957137Y-86833768D01*
X135922741Y-86817729D01*
X135758987Y-86741369D01*
X135758983Y-86741368D01*
X135758979Y-86741366D01*
X135547807Y-86684783D01*
X135547803Y-86684782D01*
X135547802Y-86684782D01*
X135547801Y-86684781D01*
X135547796Y-86684781D01*
X135330002Y-86665727D01*
X135329998Y-86665727D01*
X135112203Y-86684781D01*
X135112192Y-86684783D01*
X134901020Y-86741366D01*
X134901011Y-86741370D01*
X134702866Y-86833766D01*
X134523766Y-86959172D01*
X134369172Y-87113766D01*
X134243766Y-87292866D01*
X134151370Y-87491011D01*
X134151366Y-87491020D01*
X134094783Y-87702192D01*
X134094781Y-87702203D01*
X134075727Y-87919998D01*
X134075727Y-87920001D01*
X130079500Y-87920001D01*
X130079499Y-87123128D01*
X130073091Y-87063517D01*
X130052239Y-87007609D01*
X130047255Y-86937917D01*
X130080740Y-86876594D01*
X130142064Y-86843110D01*
X130142548Y-86843005D01*
X130213066Y-86828016D01*
X130261463Y-86817730D01*
X130261463Y-86817729D01*
X130261467Y-86817729D01*
X130424793Y-86745012D01*
X130569430Y-86639926D01*
X130689059Y-86507065D01*
X130778450Y-86352235D01*
X130833697Y-86182203D01*
X130852385Y-86004400D01*
X130833697Y-85826597D01*
X130778450Y-85656565D01*
X130689059Y-85501735D01*
X130638991Y-85446129D01*
X130569435Y-85368878D01*
X130569432Y-85368876D01*
X130569431Y-85368875D01*
X130569430Y-85368874D01*
X130424793Y-85263788D01*
X130261467Y-85191071D01*
X130261465Y-85191070D01*
X130133794Y-85163933D01*
X130086591Y-85153900D01*
X129907809Y-85153900D01*
X129877154Y-85160415D01*
X129732933Y-85191070D01*
X129732928Y-85191072D01*
X129728197Y-85193179D01*
X129677761Y-85203900D01*
X127429153Y-85203900D01*
X127274510Y-85234660D01*
X127274502Y-85234662D01*
X127128824Y-85295004D01*
X127128814Y-85295009D01*
X126997711Y-85382610D01*
X126997707Y-85382613D01*
X122462776Y-89917544D01*
X122425532Y-89943142D01*
X122381408Y-89962787D01*
X122236768Y-90067875D01*
X122117140Y-90200736D01*
X122027750Y-90355564D01*
X122027747Y-90355570D01*
X121970495Y-90531777D01*
X121967752Y-90530885D01*
X121940433Y-90581307D01*
X121940148Y-90581593D01*
X115189918Y-97331823D01*
X115128595Y-97365308D01*
X115058903Y-97360324D01*
X115042658Y-97351456D01*
X115042114Y-97352454D01*
X115034328Y-97348202D01*
X114899482Y-97297908D01*
X114899483Y-97297908D01*
X114839883Y-97291501D01*
X114839881Y-97291500D01*
X114839873Y-97291500D01*
X114839864Y-97291500D01*
X112744129Y-97291500D01*
X112744123Y-97291501D01*
X112684516Y-97297908D01*
X112549671Y-97348202D01*
X112549664Y-97348206D01*
X112434455Y-97434452D01*
X112434452Y-97434455D01*
X112348206Y-97549664D01*
X112348202Y-97549671D01*
X112297908Y-97684517D01*
X112291501Y-97744116D01*
X112291500Y-97744135D01*
X112291500Y-99839870D01*
X109314100Y-99839870D01*
X109314100Y-94992000D01*
X112292000Y-94992000D01*
X112292000Y-95789844D01*
X112298401Y-95849372D01*
X112298403Y-95849379D01*
X112348645Y-95984086D01*
X112348649Y-95984093D01*
X112434809Y-96099187D01*
X112434812Y-96099190D01*
X112549906Y-96185350D01*
X112549913Y-96185354D01*
X112684620Y-96235596D01*
X112684627Y-96235598D01*
X112744155Y-96241999D01*
X112744172Y-96242000D01*
X113542000Y-96242000D01*
X113542000Y-94992000D01*
X114042000Y-94992000D01*
X114042000Y-96242000D01*
X114839828Y-96242000D01*
X114839844Y-96241999D01*
X114899372Y-96235598D01*
X114899379Y-96235596D01*
X115034086Y-96185354D01*
X115034093Y-96185350D01*
X115149187Y-96099190D01*
X115149190Y-96099187D01*
X115235350Y-95984093D01*
X115235354Y-95984086D01*
X115285596Y-95849379D01*
X115285598Y-95849372D01*
X115291999Y-95789844D01*
X115292000Y-95789827D01*
X115292000Y-94992000D01*
X114042000Y-94992000D01*
X113542000Y-94992000D01*
X112292000Y-94992000D01*
X109314100Y-94992000D01*
X109314100Y-94492000D01*
X112292000Y-94492000D01*
X113542000Y-94492000D01*
X113542000Y-93242000D01*
X114042000Y-93242000D01*
X114042000Y-94492000D01*
X115292000Y-94492000D01*
X115292000Y-93694172D01*
X115291999Y-93694155D01*
X115285598Y-93634627D01*
X115285596Y-93634620D01*
X115235354Y-93499913D01*
X115235350Y-93499906D01*
X115149190Y-93384812D01*
X115149187Y-93384809D01*
X115034093Y-93298649D01*
X115034086Y-93298645D01*
X114899379Y-93248403D01*
X114899372Y-93248401D01*
X114839844Y-93242000D01*
X114042000Y-93242000D01*
X113542000Y-93242000D01*
X112744155Y-93242000D01*
X112684627Y-93248401D01*
X112684620Y-93248403D01*
X112549913Y-93298645D01*
X112549906Y-93298649D01*
X112434812Y-93384809D01*
X112434809Y-93384812D01*
X112348649Y-93499906D01*
X112348645Y-93499913D01*
X112298403Y-93634620D01*
X112298401Y-93634627D01*
X112292000Y-93694155D01*
X112292000Y-94492000D01*
X109314100Y-94492000D01*
X109314100Y-91739870D01*
X112291500Y-91739870D01*
X112291501Y-91739876D01*
X112297908Y-91799483D01*
X112348202Y-91934328D01*
X112348206Y-91934335D01*
X112434452Y-92049544D01*
X112434455Y-92049547D01*
X112549664Y-92135793D01*
X112549671Y-92135797D01*
X112684517Y-92186091D01*
X112684516Y-92186091D01*
X112691444Y-92186835D01*
X112744127Y-92192500D01*
X114839872Y-92192499D01*
X114899483Y-92186091D01*
X115034331Y-92135796D01*
X115149546Y-92049546D01*
X115235796Y-91934331D01*
X115286091Y-91799483D01*
X115292500Y-91739873D01*
X115292500Y-91502500D01*
X115312185Y-91435461D01*
X115364989Y-91389706D01*
X115416500Y-91378500D01*
X115478707Y-91378500D01*
X115545746Y-91398185D01*
X115551592Y-91402182D01*
X115574202Y-91418609D01*
X115574204Y-91418610D01*
X115574207Y-91418612D01*
X115737533Y-91491329D01*
X115912409Y-91528500D01*
X115912410Y-91528500D01*
X116091189Y-91528500D01*
X116091191Y-91528500D01*
X116266067Y-91491329D01*
X116429393Y-91418612D01*
X116574030Y-91313526D01*
X116693659Y-91180665D01*
X116783050Y-91025835D01*
X116838297Y-90855803D01*
X116856985Y-90678000D01*
X116838297Y-90500197D01*
X116783050Y-90330165D01*
X116693659Y-90175335D01*
X116646803Y-90123296D01*
X116574035Y-90042478D01*
X116574032Y-90042476D01*
X116574031Y-90042475D01*
X116574030Y-90042474D01*
X116429393Y-89937388D01*
X116266067Y-89864671D01*
X116266065Y-89864670D01*
X116138394Y-89837533D01*
X116091191Y-89827500D01*
X115912409Y-89827500D01*
X115881754Y-89834015D01*
X115737533Y-89864670D01*
X115737528Y-89864672D01*
X115574208Y-89937388D01*
X115574203Y-89937390D01*
X115551593Y-89953818D01*
X115485786Y-89977298D01*
X115478708Y-89977500D01*
X115416499Y-89977500D01*
X115349460Y-89957815D01*
X115303705Y-89905011D01*
X115292499Y-89853500D01*
X115292499Y-89644129D01*
X115292498Y-89644123D01*
X115292497Y-89644116D01*
X115286091Y-89584517D01*
X115235796Y-89449669D01*
X115235795Y-89449668D01*
X115235793Y-89449664D01*
X115149547Y-89334455D01*
X115149544Y-89334452D01*
X115034335Y-89248206D01*
X115034328Y-89248202D01*
X114899482Y-89197908D01*
X114899483Y-89197908D01*
X114839883Y-89191501D01*
X114839881Y-89191500D01*
X114839873Y-89191500D01*
X114839864Y-89191500D01*
X112744129Y-89191500D01*
X112744123Y-89191501D01*
X112684516Y-89197908D01*
X112549671Y-89248202D01*
X112549664Y-89248206D01*
X112434455Y-89334452D01*
X112434452Y-89334455D01*
X112348206Y-89449664D01*
X112348202Y-89449671D01*
X112297908Y-89584517D01*
X112291501Y-89644116D01*
X112291501Y-89644123D01*
X112291500Y-89644135D01*
X112291500Y-91739870D01*
X109314100Y-91739870D01*
X109314100Y-81000600D01*
X127211615Y-81000600D01*
X127230303Y-81178405D01*
X127230304Y-81178407D01*
X127285547Y-81348429D01*
X127285550Y-81348435D01*
X127374941Y-81503265D01*
X127416612Y-81549546D01*
X127494564Y-81636121D01*
X127494567Y-81636123D01*
X127494570Y-81636126D01*
X127639207Y-81741212D01*
X127802533Y-81813929D01*
X127977409Y-81851100D01*
X127977410Y-81851100D01*
X128156189Y-81851100D01*
X128156191Y-81851100D01*
X128331067Y-81813929D01*
X128494393Y-81741212D01*
X128639030Y-81636126D01*
X128758659Y-81503265D01*
X128848050Y-81348435D01*
X128903297Y-81178403D01*
X128921985Y-81000600D01*
X128903297Y-80822797D01*
X128848050Y-80652765D01*
X128783913Y-80541675D01*
X128767300Y-80479675D01*
X128767300Y-77786769D01*
X128786985Y-77719730D01*
X128803619Y-77699088D01*
X131117019Y-75385688D01*
X131178342Y-75352203D01*
X131248034Y-75357187D01*
X131303967Y-75399059D01*
X131328384Y-75464523D01*
X131328700Y-75473369D01*
X131328700Y-76561269D01*
X131312087Y-76623269D01*
X131273350Y-76690363D01*
X131218104Y-76860392D01*
X131218103Y-76860394D01*
X131199415Y-77038200D01*
X131218103Y-77216005D01*
X131218104Y-77216007D01*
X131273347Y-77386029D01*
X131273350Y-77386035D01*
X131337487Y-77497123D01*
X131354100Y-77559123D01*
X131354100Y-79101269D01*
X131337487Y-79163269D01*
X131298750Y-79230363D01*
X131243504Y-79400392D01*
X131243503Y-79400394D01*
X131224815Y-79578200D01*
X131243503Y-79756005D01*
X131243504Y-79756007D01*
X131298747Y-79926029D01*
X131298750Y-79926035D01*
X131362887Y-80037123D01*
X131379500Y-80099123D01*
X131379500Y-81571875D01*
X131362887Y-81633875D01*
X131298750Y-81744963D01*
X131243504Y-81914992D01*
X131243503Y-81914994D01*
X131224815Y-82092800D01*
X131228021Y-82123303D01*
X131228700Y-82136264D01*
X131228700Y-84324570D01*
X131222631Y-84362888D01*
X131192704Y-84454992D01*
X131192703Y-84454994D01*
X131174015Y-84632800D01*
X131192703Y-84810605D01*
X131192704Y-84810607D01*
X131247947Y-84980629D01*
X131247950Y-84980635D01*
X131337341Y-85135465D01*
X131353940Y-85153900D01*
X131456964Y-85268321D01*
X131456967Y-85268323D01*
X131456970Y-85268326D01*
X131601607Y-85373412D01*
X131764933Y-85446129D01*
X131939809Y-85483300D01*
X131939810Y-85483300D01*
X132118589Y-85483300D01*
X132118591Y-85483300D01*
X132293467Y-85446129D01*
X132456793Y-85373412D01*
X132601430Y-85268326D01*
X132605516Y-85263789D01*
X132631743Y-85234660D01*
X132721059Y-85135465D01*
X132810450Y-84980635D01*
X132865697Y-84810603D01*
X132884385Y-84632800D01*
X132865697Y-84454997D01*
X132835769Y-84362888D01*
X132829700Y-84324570D01*
X132829700Y-82528506D01*
X132846313Y-82466506D01*
X132861250Y-82440635D01*
X132916497Y-82270603D01*
X132935185Y-82092800D01*
X132916497Y-81914997D01*
X132861250Y-81744965D01*
X132859082Y-81741210D01*
X132797113Y-81633875D01*
X132780500Y-81571875D01*
X132780500Y-80099123D01*
X132797113Y-80037123D01*
X132861250Y-79926035D01*
X132916497Y-79756003D01*
X132935185Y-79578200D01*
X132916497Y-79400397D01*
X132861250Y-79230365D01*
X132861247Y-79230359D01*
X132771713Y-79075280D01*
X132755100Y-79013281D01*
X132755100Y-77559123D01*
X132771713Y-77497123D01*
X132787369Y-77470006D01*
X132835850Y-77386035D01*
X132891097Y-77216003D01*
X132909785Y-77038200D01*
X132891097Y-76860397D01*
X132835850Y-76690365D01*
X132835847Y-76690359D01*
X132746313Y-76535280D01*
X132729700Y-76473281D01*
X132729700Y-76463319D01*
X132749385Y-76396280D01*
X132802189Y-76350525D01*
X132871347Y-76340581D01*
X132934903Y-76369606D01*
X132941381Y-76375638D01*
X134808453Y-78242711D01*
X134808457Y-78242714D01*
X134911098Y-78311296D01*
X134923189Y-78319375D01*
X134923191Y-78319376D01*
X134923193Y-78319377D01*
X134959617Y-78334464D01*
X135050672Y-78372180D01*
X135050676Y-78372180D01*
X135050677Y-78372181D01*
X135186004Y-78399100D01*
X135186007Y-78399100D01*
X139100707Y-78399100D01*
X139167746Y-78418785D01*
X139173592Y-78422782D01*
X139196202Y-78439209D01*
X139196204Y-78439210D01*
X139196207Y-78439212D01*
X139359533Y-78511929D01*
X139534409Y-78549100D01*
X139534410Y-78549100D01*
X139713189Y-78549100D01*
X139713191Y-78549100D01*
X139888067Y-78511929D01*
X140051393Y-78439212D01*
X140196030Y-78334126D01*
X140315659Y-78201265D01*
X140405050Y-78046435D01*
X140460297Y-77876403D01*
X140478985Y-77698600D01*
X140460297Y-77520797D01*
X140432673Y-77435781D01*
X140405052Y-77350770D01*
X140405049Y-77350764D01*
X140315659Y-77195935D01*
X140266010Y-77140794D01*
X140196035Y-77063078D01*
X140196032Y-77063076D01*
X140196031Y-77063075D01*
X140196030Y-77063074D01*
X140051393Y-76957988D01*
X139888067Y-76885271D01*
X139888065Y-76885270D01*
X139741414Y-76854099D01*
X139713191Y-76848100D01*
X139534409Y-76848100D01*
X139506186Y-76854099D01*
X139359533Y-76885270D01*
X139359528Y-76885272D01*
X139196208Y-76957988D01*
X139196203Y-76957990D01*
X139173593Y-76974418D01*
X139107786Y-76997898D01*
X139100708Y-76998100D01*
X135596519Y-76998100D01*
X135529480Y-76978415D01*
X135508838Y-76961781D01*
X132898051Y-74350994D01*
X132870375Y-74300310D01*
X132867705Y-74301178D01*
X132810452Y-74124970D01*
X132810449Y-74124964D01*
X132721059Y-73970135D01*
X132710491Y-73958398D01*
X132680261Y-73895406D01*
X132688887Y-73826071D01*
X132714957Y-73787748D01*
X134264888Y-72237819D01*
X134326211Y-72204334D01*
X134352569Y-72201500D01*
X139761107Y-72201500D01*
X139828146Y-72221185D01*
X139833992Y-72225182D01*
X139856602Y-72241609D01*
X139856604Y-72241610D01*
X139856607Y-72241612D01*
X140019933Y-72314329D01*
X140194809Y-72351500D01*
X140194810Y-72351500D01*
X140373589Y-72351500D01*
X140373591Y-72351500D01*
X140548467Y-72314329D01*
X140711793Y-72241612D01*
X140856430Y-72136526D01*
X140976059Y-72003665D01*
X141065450Y-71848835D01*
X141120697Y-71678803D01*
X141139385Y-71501000D01*
X141120697Y-71323197D01*
X141065450Y-71153165D01*
X140976059Y-70998335D01*
X140896855Y-70910370D01*
X140856435Y-70865478D01*
X140856432Y-70865476D01*
X140856431Y-70865475D01*
X140856430Y-70865474D01*
X140711793Y-70760388D01*
X140548467Y-70687671D01*
X140548465Y-70687670D01*
X140420794Y-70660533D01*
X140373591Y-70650500D01*
X140194809Y-70650500D01*
X140164154Y-70657015D01*
X140019933Y-70687670D01*
X140019928Y-70687672D01*
X139856608Y-70760388D01*
X139856603Y-70760390D01*
X139833993Y-70776818D01*
X139768186Y-70800298D01*
X139761108Y-70800500D01*
X133942054Y-70800500D01*
X133806727Y-70827418D01*
X133806717Y-70827421D01*
X133679242Y-70880222D01*
X133564504Y-70956887D01*
X127522687Y-76998704D01*
X127446022Y-77113442D01*
X127393221Y-77240917D01*
X127393218Y-77240929D01*
X127366394Y-77375785D01*
X127366369Y-77375912D01*
X127366300Y-77376257D01*
X127366300Y-80479675D01*
X127349687Y-80541675D01*
X127285550Y-80652763D01*
X127230304Y-80822792D01*
X127230303Y-80822794D01*
X127211615Y-81000600D01*
X109314100Y-81000600D01*
X109314100Y-77470005D01*
X111672385Y-77470005D01*
X111692810Y-77716495D01*
X111753529Y-77956273D01*
X111852886Y-78182785D01*
X111951981Y-78334463D01*
X112534516Y-77751929D01*
X112554099Y-77799206D01*
X112630158Y-77913037D01*
X112726963Y-78009842D01*
X112840794Y-78085901D01*
X112888069Y-78105483D01*
X112305287Y-78688264D01*
X112305287Y-78688265D01*
X112350879Y-78723751D01*
X112568413Y-78841475D01*
X112568418Y-78841477D01*
X112802354Y-78921787D01*
X113046329Y-78962500D01*
X113293671Y-78962500D01*
X113537645Y-78921787D01*
X113771581Y-78841477D01*
X113771586Y-78841475D01*
X113989119Y-78723751D01*
X114034711Y-78688265D01*
X114034712Y-78688264D01*
X113451930Y-78105483D01*
X113499206Y-78085901D01*
X113613037Y-78009842D01*
X113709842Y-77913037D01*
X113785901Y-77799206D01*
X113805483Y-77751930D01*
X114388016Y-78334464D01*
X114487113Y-78182785D01*
X114586470Y-77956273D01*
X114647189Y-77716495D01*
X114667615Y-77470005D01*
X114667615Y-77469994D01*
X114647189Y-77223504D01*
X114586470Y-76983726D01*
X114487113Y-76757214D01*
X114388016Y-76605534D01*
X113805482Y-77188068D01*
X113785901Y-77140794D01*
X113709842Y-77026963D01*
X113613037Y-76930158D01*
X113499206Y-76854099D01*
X113451930Y-76834516D01*
X114034711Y-76251734D01*
X114034711Y-76251732D01*
X113989126Y-76216252D01*
X113989120Y-76216248D01*
X113771586Y-76098524D01*
X113771581Y-76098522D01*
X113537645Y-76018212D01*
X113293671Y-75977500D01*
X113046329Y-75977500D01*
X112802354Y-76018212D01*
X112568418Y-76098522D01*
X112568413Y-76098524D01*
X112350884Y-76216246D01*
X112305286Y-76251734D01*
X112888069Y-76834516D01*
X112840794Y-76854099D01*
X112726963Y-76930158D01*
X112630158Y-77026963D01*
X112554099Y-77140794D01*
X112534516Y-77188069D01*
X111951981Y-76605534D01*
X111852889Y-76757208D01*
X111852884Y-76757219D01*
X111753529Y-76983726D01*
X111692810Y-77223504D01*
X111672385Y-77469994D01*
X111672385Y-77470005D01*
X109314100Y-77470005D01*
X109314100Y-74523600D01*
X123960415Y-74523600D01*
X123979103Y-74701405D01*
X123979104Y-74701407D01*
X124034347Y-74871429D01*
X124034350Y-74871435D01*
X124123741Y-75026265D01*
X124165412Y-75072546D01*
X124243364Y-75159121D01*
X124243367Y-75159123D01*
X124243370Y-75159126D01*
X124388007Y-75264212D01*
X124551333Y-75336929D01*
X124726209Y-75374100D01*
X124726210Y-75374100D01*
X124904989Y-75374100D01*
X124904991Y-75374100D01*
X125079867Y-75336929D01*
X125084602Y-75334821D01*
X125135038Y-75324100D01*
X125845444Y-75324100D01*
X125845445Y-75324099D01*
X126000097Y-75293337D01*
X126145779Y-75232994D01*
X126276889Y-75145389D01*
X129378223Y-72044053D01*
X129415462Y-72018459D01*
X129459593Y-71998812D01*
X129604230Y-71893726D01*
X129723859Y-71760865D01*
X129813250Y-71606035D01*
X129868497Y-71436003D01*
X129887185Y-71258200D01*
X129868497Y-71080397D01*
X129828366Y-70956886D01*
X129813252Y-70910370D01*
X129813249Y-70910364D01*
X129800999Y-70889146D01*
X129723859Y-70755535D01*
X129662753Y-70687670D01*
X129604235Y-70622678D01*
X129604232Y-70622676D01*
X129604231Y-70622675D01*
X129604230Y-70622674D01*
X129459593Y-70517588D01*
X129296267Y-70444871D01*
X129296265Y-70444870D01*
X129168594Y-70417733D01*
X129121391Y-70407700D01*
X128942609Y-70407700D01*
X128911954Y-70414215D01*
X128767733Y-70444870D01*
X128767728Y-70444872D01*
X128604408Y-70517587D01*
X128459768Y-70622675D01*
X128340141Y-70755534D01*
X128263000Y-70889146D01*
X128243294Y-70914826D01*
X125471341Y-73686781D01*
X125410018Y-73720266D01*
X125383660Y-73723100D01*
X125135038Y-73723100D01*
X125084602Y-73712379D01*
X125079870Y-73710272D01*
X125079865Y-73710270D01*
X124952194Y-73683133D01*
X124904991Y-73673100D01*
X124726209Y-73673100D01*
X124695554Y-73679615D01*
X124551333Y-73710270D01*
X124551328Y-73710272D01*
X124388008Y-73782987D01*
X124243368Y-73888075D01*
X124123740Y-74020936D01*
X124034350Y-74175764D01*
X124034347Y-74175770D01*
X123979104Y-74345792D01*
X123979103Y-74345794D01*
X123960415Y-74523600D01*
X109314100Y-74523600D01*
X109314100Y-58724800D01*
X147785615Y-58724800D01*
X147804303Y-58902605D01*
X147804304Y-58902606D01*
X147834231Y-58994711D01*
X147840300Y-59033029D01*
X147840300Y-75199646D01*
X147871061Y-75354289D01*
X147871064Y-75354301D01*
X147931402Y-75499972D01*
X147931409Y-75499985D01*
X148019010Y-75631088D01*
X148019013Y-75631092D01*
X149482503Y-77094581D01*
X149515988Y-77155904D01*
X149515029Y-77212697D01*
X149512314Y-77223417D01*
X149512314Y-77223419D01*
X149491883Y-77469993D01*
X149491883Y-77470006D01*
X149512314Y-77716578D01*
X149573054Y-77956436D01*
X149672445Y-78183026D01*
X149807773Y-78390160D01*
X149807781Y-78390171D01*
X149975349Y-78572196D01*
X149975353Y-78572200D01*
X150170608Y-78724173D01*
X150388213Y-78841936D01*
X150388216Y-78841937D01*
X150622230Y-78922274D01*
X150622232Y-78922274D01*
X150622234Y-78922275D01*
X150866286Y-78963000D01*
X150866287Y-78963000D01*
X151113713Y-78963000D01*
X151113714Y-78963000D01*
X151357766Y-78922275D01*
X151591787Y-78841936D01*
X151809392Y-78724173D01*
X152004647Y-78572200D01*
X152142197Y-78422782D01*
X152172218Y-78390171D01*
X152172219Y-78390169D01*
X152172225Y-78390163D01*
X152307555Y-78183025D01*
X152406945Y-77956438D01*
X152467685Y-77716582D01*
X152482445Y-77538452D01*
X152488117Y-77470006D01*
X152488117Y-77469993D01*
X152467685Y-77223421D01*
X152467685Y-77223418D01*
X152406945Y-76983562D01*
X152307555Y-76756975D01*
X152172225Y-76549837D01*
X152172222Y-76549834D01*
X152172218Y-76549828D01*
X152004650Y-76367803D01*
X152004647Y-76367800D01*
X151855525Y-76251734D01*
X151809392Y-76215827D01*
X151809390Y-76215826D01*
X151809389Y-76215825D01*
X151591788Y-76098064D01*
X151591783Y-76098062D01*
X151357769Y-76017725D01*
X151174727Y-75987181D01*
X151113714Y-75977000D01*
X150866286Y-75977000D01*
X150725956Y-76000416D01*
X150656591Y-75992034D01*
X150617866Y-75965788D01*
X149477619Y-74825541D01*
X149444134Y-74764218D01*
X149441300Y-74737860D01*
X149441300Y-69467634D01*
X149749500Y-69467634D01*
X149780045Y-69660485D01*
X149840381Y-69846184D01*
X149840382Y-69846187D01*
X149929031Y-70020167D01*
X150043793Y-70178125D01*
X150043797Y-70178130D01*
X150181869Y-70316202D01*
X150181874Y-70316206D01*
X150307806Y-70407700D01*
X150339836Y-70430971D01*
X150453565Y-70488919D01*
X150513812Y-70519617D01*
X150513815Y-70519618D01*
X150606664Y-70549786D01*
X150699516Y-70579955D01*
X150788835Y-70594101D01*
X150892366Y-70610500D01*
X150892371Y-70610500D01*
X151087634Y-70610500D01*
X151181125Y-70595691D01*
X151280484Y-70579955D01*
X151466187Y-70519617D01*
X151640164Y-70430971D01*
X151798132Y-70316201D01*
X151936201Y-70178132D01*
X152050971Y-70020164D01*
X152139617Y-69846187D01*
X152199955Y-69660484D01*
X152215691Y-69561125D01*
X152230500Y-69467634D01*
X152230500Y-69272365D01*
X152212730Y-69160174D01*
X152199955Y-69079516D01*
X152139617Y-68893813D01*
X152139617Y-68893812D01*
X152108919Y-68833565D01*
X152050971Y-68719836D01*
X152036307Y-68699653D01*
X151936206Y-68561874D01*
X151936202Y-68561869D01*
X151798130Y-68423797D01*
X151798125Y-68423793D01*
X151640167Y-68309031D01*
X151640166Y-68309030D01*
X151640164Y-68309029D01*
X151584426Y-68280629D01*
X151466187Y-68220382D01*
X151466184Y-68220381D01*
X151280485Y-68160045D01*
X151087634Y-68129500D01*
X151087629Y-68129500D01*
X150892371Y-68129500D01*
X150892366Y-68129500D01*
X150699514Y-68160045D01*
X150513815Y-68220381D01*
X150513812Y-68220382D01*
X150339832Y-68309031D01*
X150181874Y-68423793D01*
X150181869Y-68423797D01*
X150043797Y-68561869D01*
X150043793Y-68561874D01*
X149929031Y-68719832D01*
X149840382Y-68893812D01*
X149840381Y-68893815D01*
X149780045Y-69079514D01*
X149749500Y-69272365D01*
X149749500Y-69467634D01*
X149441300Y-69467634D01*
X149441300Y-59033029D01*
X149447369Y-58994711D01*
X149449399Y-58988461D01*
X149477297Y-58902603D01*
X149495985Y-58724800D01*
X149477297Y-58546997D01*
X149422050Y-58376965D01*
X149332659Y-58222135D01*
X149285803Y-58170096D01*
X149213035Y-58089278D01*
X149213032Y-58089276D01*
X149213031Y-58089275D01*
X149213030Y-58089274D01*
X149068393Y-57984188D01*
X148905067Y-57911471D01*
X148905065Y-57911470D01*
X148777394Y-57884333D01*
X148730191Y-57874300D01*
X148551409Y-57874300D01*
X148520754Y-57880815D01*
X148376533Y-57911470D01*
X148376528Y-57911472D01*
X148213208Y-57984187D01*
X148068568Y-58089275D01*
X147948940Y-58222136D01*
X147859550Y-58376964D01*
X147859547Y-58376970D01*
X147804304Y-58546992D01*
X147804303Y-58546994D01*
X147785615Y-58724800D01*
X109314100Y-58724800D01*
X109314100Y-56636195D01*
X150886699Y-56636195D01*
X150913618Y-56771522D01*
X150913621Y-56771532D01*
X150966421Y-56899004D01*
X150966428Y-56899017D01*
X151043085Y-57013741D01*
X151043088Y-57013745D01*
X151140654Y-57111311D01*
X151140658Y-57111314D01*
X151255382Y-57187971D01*
X151255395Y-57187978D01*
X151382867Y-57240778D01*
X151382872Y-57240780D01*
X151382876Y-57240780D01*
X151382877Y-57240781D01*
X151518204Y-57267700D01*
X151518207Y-57267700D01*
X151656195Y-57267700D01*
X151747241Y-57249589D01*
X151791528Y-57240780D01*
X151919011Y-57187975D01*
X152033742Y-57111314D01*
X152131314Y-57013742D01*
X152207975Y-56899011D01*
X152260780Y-56771528D01*
X152287700Y-56636193D01*
X152287700Y-56498207D01*
X152287700Y-56498204D01*
X152260781Y-56362877D01*
X152260780Y-56362876D01*
X152260780Y-56362872D01*
X152260778Y-56362867D01*
X152207978Y-56235395D01*
X152207971Y-56235382D01*
X152131314Y-56120658D01*
X152131311Y-56120654D01*
X152033745Y-56023088D01*
X152033741Y-56023085D01*
X151919017Y-55946428D01*
X151919004Y-55946421D01*
X151791532Y-55893621D01*
X151791522Y-55893618D01*
X151656195Y-55866700D01*
X151656193Y-55866700D01*
X151518207Y-55866700D01*
X151518205Y-55866700D01*
X151382877Y-55893618D01*
X151382867Y-55893621D01*
X151255395Y-55946421D01*
X151255382Y-55946428D01*
X151140658Y-56023085D01*
X151140654Y-56023088D01*
X151043088Y-56120654D01*
X151043085Y-56120658D01*
X150966428Y-56235382D01*
X150966421Y-56235395D01*
X150913621Y-56362867D01*
X150913618Y-56362877D01*
X150886700Y-56498204D01*
X150886700Y-56498207D01*
X150886700Y-56636193D01*
X150886700Y-56636195D01*
X150886699Y-56636195D01*
X109314100Y-56636195D01*
X109314100Y-53636195D01*
X150886699Y-53636195D01*
X150913618Y-53771522D01*
X150913621Y-53771532D01*
X150966421Y-53899004D01*
X150966428Y-53899017D01*
X151043085Y-54013741D01*
X151043088Y-54013745D01*
X151140654Y-54111311D01*
X151140658Y-54111314D01*
X151255382Y-54187971D01*
X151255395Y-54187978D01*
X151382867Y-54240778D01*
X151382872Y-54240780D01*
X151382876Y-54240780D01*
X151382877Y-54240781D01*
X151518204Y-54267700D01*
X151518207Y-54267700D01*
X151656195Y-54267700D01*
X151747241Y-54249589D01*
X151791528Y-54240780D01*
X151919011Y-54187975D01*
X152033742Y-54111314D01*
X152131314Y-54013742D01*
X152207975Y-53899011D01*
X152260780Y-53771528D01*
X152287700Y-53636193D01*
X152287700Y-53498207D01*
X152287700Y-53498204D01*
X152260781Y-53362877D01*
X152260780Y-53362876D01*
X152260780Y-53362872D01*
X152260778Y-53362867D01*
X152207978Y-53235395D01*
X152207971Y-53235382D01*
X152131314Y-53120658D01*
X152131311Y-53120654D01*
X152033745Y-53023088D01*
X152033741Y-53023085D01*
X151919017Y-52946428D01*
X151919004Y-52946421D01*
X151791532Y-52893621D01*
X151791522Y-52893618D01*
X151656195Y-52866700D01*
X151656193Y-52866700D01*
X151518207Y-52866700D01*
X151518205Y-52866700D01*
X151382877Y-52893618D01*
X151382867Y-52893621D01*
X151255395Y-52946421D01*
X151255382Y-52946428D01*
X151140658Y-53023085D01*
X151140654Y-53023088D01*
X151043088Y-53120654D01*
X151043085Y-53120658D01*
X150966428Y-53235382D01*
X150966421Y-53235395D01*
X150913621Y-53362867D01*
X150913618Y-53362877D01*
X150886700Y-53498204D01*
X150886700Y-53498207D01*
X150886700Y-53636193D01*
X150886700Y-53636195D01*
X150886699Y-53636195D01*
X109314100Y-53636195D01*
X109314100Y-45870227D01*
X109314416Y-45861381D01*
X109328730Y-45661243D01*
X109328731Y-45661242D01*
X109328730Y-45661236D01*
X109331246Y-45643738D01*
X109372956Y-45451999D01*
X109377933Y-45435048D01*
X109446511Y-45251185D01*
X109453859Y-45235098D01*
X109516415Y-45120534D01*
X109547891Y-45062889D01*
X109557445Y-45048021D01*
X109675048Y-44890923D01*
X109686620Y-44877569D01*
X109825369Y-44738820D01*
X109838723Y-44727248D01*
X109995821Y-44609645D01*
X110010689Y-44600091D01*
X110182898Y-44506058D01*
X110198985Y-44498711D01*
X110382848Y-44430133D01*
X110399799Y-44425156D01*
X110591538Y-44383446D01*
X110609036Y-44380930D01*
X110809182Y-44366616D01*
X110818028Y-44366300D01*
X110879492Y-44366300D01*
X153229708Y-44366300D01*
X153291172Y-44366300D01*
X153300018Y-44366616D01*
G37*
G04 #@! TD.AperFunction*
M02*
