G04 #@! TF.GenerationSoftware,KiCad,Pcbnew,8.0.1*
G04 #@! TF.CreationDate,2025-04-02T13:34:02-04:00*
G04 #@! TF.ProjectId,atiny_1616_gamer,6174696e-795f-4313-9631-365f67616d65,rev?*
G04 #@! TF.SameCoordinates,Original*
G04 #@! TF.FileFunction,Copper,L1,Top*
G04 #@! TF.FilePolarity,Positive*
%FSLAX46Y46*%
G04 Gerber Fmt 4.6, Leading zero omitted, Abs format (unit mm)*
G04 Created by KiCad (PCBNEW 8.0.1) date 2025-04-02 13:34:02*
%MOMM*%
%LPD*%
G01*
G04 APERTURE LIST*
G04 Aperture macros list*
%AMRoundRect*
0 Rectangle with rounded corners*
0 $1 Rounding radius*
0 $2 $3 $4 $5 $6 $7 $8 $9 X,Y pos of 4 corners*
0 Add a 4 corners polygon primitive as box body*
4,1,4,$2,$3,$4,$5,$6,$7,$8,$9,$2,$3,0*
0 Add four circle primitives for the rounded corners*
1,1,$1+$1,$2,$3*
1,1,$1+$1,$4,$5*
1,1,$1+$1,$6,$7*
1,1,$1+$1,$8,$9*
0 Add four rect primitives between the rounded corners*
20,1,$1+$1,$2,$3,$4,$5,0*
20,1,$1+$1,$4,$5,$6,$7,0*
20,1,$1+$1,$6,$7,$8,$9,0*
20,1,$1+$1,$8,$9,$2,$3,0*%
G04 Aperture macros list end*
G04 #@! TA.AperFunction,SMDPad,CuDef*
%ADD10RoundRect,0.150000X0.150000X-0.875000X0.150000X0.875000X-0.150000X0.875000X-0.150000X-0.875000X0*%
G04 #@! TD*
G04 #@! TA.AperFunction,SMDPad,CuDef*
%ADD11R,1.500000X1.500000*%
G04 #@! TD*
G04 #@! TA.AperFunction,ComponentPad*
%ADD12R,1.498000X1.498000*%
G04 #@! TD*
G04 #@! TA.AperFunction,ComponentPad*
%ADD13C,1.498000*%
G04 #@! TD*
G04 #@! TA.AperFunction,SMDPad,CuDef*
%ADD14RoundRect,0.200000X0.200000X0.275000X-0.200000X0.275000X-0.200000X-0.275000X0.200000X-0.275000X0*%
G04 #@! TD*
G04 #@! TA.AperFunction,SMDPad,CuDef*
%ADD15RoundRect,0.250000X0.325000X0.650000X-0.325000X0.650000X-0.325000X-0.650000X0.325000X-0.650000X0*%
G04 #@! TD*
G04 #@! TA.AperFunction,SMDPad,CuDef*
%ADD16R,1.050000X0.650000*%
G04 #@! TD*
G04 #@! TA.AperFunction,SMDPad,CuDef*
%ADD17RoundRect,0.225000X0.250000X-0.225000X0.250000X0.225000X-0.250000X0.225000X-0.250000X-0.225000X0*%
G04 #@! TD*
G04 #@! TA.AperFunction,SMDPad,CuDef*
%ADD18R,1.100000X0.700000*%
G04 #@! TD*
G04 #@! TA.AperFunction,SMDPad,CuDef*
%ADD19R,0.800000X1.000000*%
G04 #@! TD*
G04 #@! TA.AperFunction,SMDPad,CuDef*
%ADD20RoundRect,0.150000X-0.587500X-0.150000X0.587500X-0.150000X0.587500X0.150000X-0.587500X0.150000X0*%
G04 #@! TD*
G04 #@! TA.AperFunction,SMDPad,CuDef*
%ADD21RoundRect,0.225000X-0.225000X-0.250000X0.225000X-0.250000X0.225000X0.250000X-0.225000X0.250000X0*%
G04 #@! TD*
G04 #@! TA.AperFunction,ComponentPad*
%ADD22C,1.985000*%
G04 #@! TD*
G04 #@! TA.AperFunction,ViaPad*
%ADD23C,0.700000*%
G04 #@! TD*
G04 #@! TA.AperFunction,Conductor*
%ADD24C,0.400000*%
G04 #@! TD*
G04 #@! TA.AperFunction,Conductor*
%ADD25C,0.600000*%
G04 #@! TD*
G04 APERTURE END LIST*
D10*
X135218400Y-73455000D03*
X136488400Y-73455000D03*
X137758400Y-73455000D03*
X139028400Y-73455000D03*
X140298400Y-73455000D03*
X141568400Y-73455000D03*
X142838400Y-73455000D03*
X144108400Y-73455000D03*
X145378400Y-73455000D03*
X146648400Y-73455000D03*
X146648400Y-82755000D03*
X145378400Y-82755000D03*
X144108400Y-82755000D03*
X142838400Y-82755000D03*
X141568400Y-82755000D03*
X140298400Y-82755000D03*
X139028400Y-82755000D03*
X137758400Y-82755000D03*
X136488400Y-82755000D03*
X135218400Y-82755000D03*
D11*
X137668000Y-46736000D03*
D12*
X121337000Y-95413000D03*
D13*
X127837000Y-95413000D03*
X121337000Y-99913000D03*
X127837000Y-99913000D03*
D14*
X129502400Y-82118200D03*
X131152400Y-82118200D03*
D15*
X123571000Y-77165200D03*
X120621000Y-77165200D03*
D16*
X116857600Y-73871400D03*
X112707600Y-73871400D03*
X116857600Y-71721400D03*
X112707600Y-71721400D03*
D12*
X136323000Y-95413000D03*
D13*
X142823000Y-95413000D03*
X136323000Y-99913000D03*
X142823000Y-99913000D03*
D11*
X126492000Y-69596000D03*
D17*
X148790900Y-65378500D03*
X148790900Y-63828500D03*
D11*
X129032000Y-69596000D03*
D14*
X129502400Y-77038200D03*
X131152400Y-77038200D03*
X121068600Y-90678000D03*
X119418600Y-90678000D03*
D11*
X121412000Y-69596000D03*
D12*
X128830000Y-87920000D03*
D13*
X135330000Y-87920000D03*
X128830000Y-92420000D03*
X135330000Y-92420000D03*
D18*
X149537200Y-57317200D03*
X149537200Y-54317200D03*
X149537200Y-52817200D03*
D19*
X152737200Y-51317200D03*
X152737200Y-58817200D03*
X150437200Y-58817200D03*
X150437200Y-51317200D03*
D11*
X135134000Y-46736000D03*
D20*
X150725900Y-63399500D03*
X150725900Y-65299500D03*
X152600900Y-64349500D03*
D15*
X123571000Y-74523600D03*
X120621000Y-74523600D03*
D14*
X129502400Y-79578200D03*
X131152400Y-79578200D03*
D11*
X123952000Y-69596000D03*
D21*
X136792000Y-85369400D03*
X135242000Y-85369400D03*
D14*
X129502400Y-74498200D03*
X131152400Y-74498200D03*
D12*
X128830000Y-102906000D03*
D13*
X135330000Y-102906000D03*
X128830000Y-107406000D03*
X135330000Y-107406000D03*
D14*
X129502400Y-84658200D03*
X131152400Y-84658200D03*
D22*
X113170000Y-77470000D03*
X150990000Y-77470000D03*
D23*
X134239000Y-73075800D03*
X139623800Y-77698600D03*
X124815600Y-74523600D03*
X129032000Y-71258200D03*
X136423400Y-86410800D03*
X140284200Y-71501000D03*
X128066800Y-81000600D03*
X148640800Y-58724800D03*
X122809000Y-90703400D03*
X129997200Y-86004400D03*
X116001800Y-90678000D03*
X132029200Y-84632800D03*
X132080000Y-82092800D03*
X132080000Y-79578200D03*
X132054600Y-77038200D03*
X132029200Y-74472800D03*
D24*
X134618200Y-73455000D02*
X134239000Y-73075800D01*
X135218400Y-73455000D02*
X134618200Y-73455000D01*
X139623800Y-77698600D02*
X145389600Y-77698600D01*
X145389600Y-77698600D02*
X148790900Y-74297300D01*
X148790900Y-74297300D02*
X148790900Y-65378500D01*
D25*
X123571000Y-74523600D02*
X124815600Y-74523600D01*
D24*
X129032000Y-69596000D02*
X129032000Y-71258200D01*
X136488400Y-73455000D02*
X136488400Y-74509400D01*
X136488400Y-74509400D02*
X135839200Y-75158600D01*
X132651500Y-72669400D02*
X124485400Y-72669400D01*
X135839200Y-75158600D02*
X135140700Y-75158600D01*
X135140700Y-75158600D02*
X132651500Y-72669400D01*
X124485400Y-72669400D02*
X121412000Y-69596000D01*
X123952000Y-69596000D02*
X126314200Y-71958200D01*
X137998200Y-71958200D02*
X139028400Y-72988400D01*
X126314200Y-71958200D02*
X137998200Y-71958200D01*
X139028400Y-72988400D02*
X139028400Y-73455000D01*
X116857600Y-73871400D02*
X116857600Y-76776400D01*
X116857600Y-76776400D02*
X118999000Y-78917800D01*
X118999000Y-78917800D02*
X125082800Y-78917800D01*
X125082800Y-78917800D02*
X129502400Y-74498200D01*
D25*
X123571000Y-77165200D02*
X123571000Y-74523600D01*
X136792000Y-86042200D02*
X136423400Y-86410800D01*
X136792000Y-85369400D02*
X136792000Y-86042200D01*
D24*
X140284200Y-71501000D02*
X140284200Y-73440800D01*
X119418600Y-90678000D02*
X119418600Y-89648800D01*
X119418600Y-89648800D02*
X128066800Y-81000600D01*
X140284200Y-73440800D02*
X140298400Y-73455000D01*
D25*
X148615400Y-58699400D02*
X148640800Y-58724800D01*
X148615400Y-57683400D02*
X148615400Y-58699400D01*
X148981600Y-57317200D02*
X148615400Y-57683400D01*
X149537200Y-57317200D02*
X148981600Y-57317200D01*
X152600900Y-64349500D02*
X152600900Y-62075300D01*
X152600900Y-62075300D02*
X151384000Y-60858400D01*
X146989800Y-55626000D02*
X148298600Y-54317200D01*
X151384000Y-60858400D02*
X148640800Y-60858400D01*
X146989800Y-59207400D02*
X146989800Y-55626000D01*
X148640800Y-60858400D02*
X146989800Y-59207400D01*
X148298600Y-54317200D02*
X149537200Y-54317200D01*
D24*
X148790900Y-65378500D02*
X133249500Y-65378500D01*
X133249500Y-65378500D02*
X129032000Y-69596000D01*
X150725900Y-65299500D02*
X148869900Y-65299500D01*
X148869900Y-65299500D02*
X148790900Y-65378500D01*
X129502400Y-74498200D02*
X130670800Y-73329800D01*
X141568400Y-81700600D02*
X141568400Y-82755000D01*
X130670800Y-73329800D02*
X132232400Y-73329800D01*
X132232400Y-73329800D02*
X135966200Y-77063600D01*
X135966200Y-77063600D02*
X136931400Y-77063600D01*
X136931400Y-77063600D02*
X141568400Y-81700600D01*
X116857600Y-73871400D02*
X112707600Y-73871400D01*
D25*
X132029200Y-84632800D02*
X131368800Y-84632800D01*
X121094000Y-90703400D02*
X121068600Y-90678000D01*
X122809000Y-90703400D02*
X121094000Y-90703400D01*
X131368800Y-84632800D02*
X129997200Y-86004400D01*
D24*
X119418600Y-90678000D02*
X116001800Y-90678000D01*
X135330000Y-87920000D02*
X128830000Y-87920000D01*
X142823000Y-95413000D02*
X136323000Y-95413000D01*
X135330000Y-102906000D02*
X128830000Y-102906000D01*
X129502400Y-82118200D02*
X124561600Y-87059000D01*
X124561600Y-87059000D02*
X124561600Y-98637600D01*
X124561600Y-98637600D02*
X128830000Y-102906000D01*
X129502400Y-84658200D02*
X126187200Y-87973400D01*
X126187200Y-87973400D02*
X126187200Y-93763200D01*
X126187200Y-93763200D02*
X127837000Y-95413000D01*
X139028400Y-82755000D02*
X139028400Y-85280845D01*
X139028400Y-85280845D02*
X136389245Y-87920000D01*
X136389245Y-87920000D02*
X135330000Y-87920000D01*
X140298400Y-82755000D02*
X140298400Y-92888400D01*
X140298400Y-92888400D02*
X142823000Y-95413000D01*
D25*
X135242000Y-85369400D02*
X132765800Y-85369400D01*
X132765800Y-85369400D02*
X132029200Y-84632800D01*
X135242000Y-85369400D02*
X135242000Y-82778600D01*
X135242000Y-82778600D02*
X135218400Y-82755000D01*
D24*
X129502400Y-77038200D02*
X130772400Y-75768200D01*
X140298400Y-81730001D02*
X140298400Y-82755000D01*
X136978199Y-78409800D02*
X140298400Y-81730001D01*
X130772400Y-75768200D02*
X132080000Y-75768200D01*
X132080000Y-75768200D02*
X134721600Y-78409800D01*
X134721600Y-78409800D02*
X136978199Y-78409800D01*
X129502400Y-79578200D02*
X130772400Y-78308200D01*
X130772400Y-78308200D02*
X132918200Y-78308200D01*
X133883400Y-79273400D02*
X136571799Y-79273400D01*
X132918200Y-78308200D02*
X133883400Y-79273400D01*
X136571799Y-79273400D02*
X139028400Y-81730001D01*
X139028400Y-81730001D02*
X139028400Y-82755000D01*
X129502400Y-84658200D02*
X129502400Y-84187800D01*
X129502400Y-84187800D02*
X130251200Y-83439000D01*
X134721600Y-81102200D02*
X135915400Y-81102200D01*
X130251200Y-83439000D02*
X132384800Y-83439000D01*
X132384800Y-83439000D02*
X134721600Y-81102200D01*
X135915400Y-81102200D02*
X136488400Y-81675200D01*
X136488400Y-81675200D02*
X136488400Y-82755000D01*
X129502400Y-82118200D02*
X129743200Y-82118200D01*
X133299200Y-80899000D02*
X134010400Y-80187800D01*
X129743200Y-82118200D02*
X130962400Y-80899000D01*
X137758400Y-81730001D02*
X137758400Y-82755000D01*
X130962400Y-80899000D02*
X133299200Y-80899000D01*
X134010400Y-80187800D02*
X136216199Y-80187800D01*
X136216199Y-80187800D02*
X137758400Y-81730001D01*
X131152400Y-84658200D02*
X132003800Y-84658200D01*
X131203200Y-82118200D02*
X132054600Y-82118200D01*
X131203200Y-79603600D02*
X132054600Y-79603600D01*
X131177800Y-77063600D02*
X132029200Y-77063600D01*
X132003800Y-74498200D02*
X132029200Y-74472800D01*
X131152400Y-74498200D02*
X132003800Y-74498200D01*
X129032000Y-69596000D02*
X129032000Y-56769000D01*
X129032000Y-56769000D02*
X135134000Y-50667000D01*
X135134000Y-50667000D02*
X135134000Y-46736000D01*
G04 #@! TA.AperFunction,Conductor*
G36*
X131816916Y-85555643D02*
G01*
X131834720Y-85570398D01*
X132255507Y-85991186D01*
X132255511Y-85991189D01*
X132386614Y-86078790D01*
X132386618Y-86078792D01*
X132386621Y-86078794D01*
X132532303Y-86139138D01*
X132686953Y-86169899D01*
X132686957Y-86169900D01*
X132686958Y-86169900D01*
X132844643Y-86169900D01*
X134492440Y-86169900D01*
X134557538Y-86189015D01*
X134557809Y-86188577D01*
X134559410Y-86189564D01*
X134559479Y-86189585D01*
X134559706Y-86189747D01*
X134708294Y-86281398D01*
X134708297Y-86281399D01*
X134708303Y-86281403D01*
X134869292Y-86334749D01*
X134968655Y-86344900D01*
X135515344Y-86344899D01*
X135515352Y-86344898D01*
X135515355Y-86344898D01*
X135569760Y-86339340D01*
X135614708Y-86334749D01*
X135775697Y-86281403D01*
X135920044Y-86192368D01*
X135929668Y-86182743D01*
X135990987Y-86149256D01*
X136060679Y-86154235D01*
X136105034Y-86182739D01*
X136114267Y-86191972D01*
X136114271Y-86191975D01*
X136258507Y-86280942D01*
X136258518Y-86280947D01*
X136419393Y-86334255D01*
X136518683Y-86344399D01*
X136674824Y-86344399D01*
X136741864Y-86364083D01*
X136787619Y-86416887D01*
X136797563Y-86486045D01*
X136768538Y-86549601D01*
X136762506Y-86556080D01*
X136335504Y-86983082D01*
X136274181Y-87016567D01*
X136204489Y-87011583D01*
X136160142Y-86983082D01*
X136136232Y-86959172D01*
X136136226Y-86959167D01*
X135957141Y-86833770D01*
X135957137Y-86833768D01*
X135922741Y-86817729D01*
X135758987Y-86741369D01*
X135758983Y-86741368D01*
X135758979Y-86741366D01*
X135547807Y-86684783D01*
X135547803Y-86684782D01*
X135547802Y-86684782D01*
X135547801Y-86684781D01*
X135547796Y-86684781D01*
X135330002Y-86665727D01*
X135329998Y-86665727D01*
X135112203Y-86684781D01*
X135112192Y-86684783D01*
X134901020Y-86741366D01*
X134901011Y-86741370D01*
X134702866Y-86833766D01*
X134523766Y-86959172D01*
X134369171Y-87113767D01*
X134332162Y-87166623D01*
X134277585Y-87210248D01*
X134230587Y-87219500D01*
X130201244Y-87219500D01*
X130134205Y-87199815D01*
X130088450Y-87147011D01*
X130077954Y-87108754D01*
X130077210Y-87101840D01*
X130073091Y-87063517D01*
X130052239Y-87007609D01*
X130047255Y-86937917D01*
X130080740Y-86876594D01*
X130142064Y-86843110D01*
X130142548Y-86843005D01*
X130213066Y-86828016D01*
X130261463Y-86817730D01*
X130261463Y-86817729D01*
X130261467Y-86817729D01*
X130424793Y-86745012D01*
X130569430Y-86639926D01*
X130689059Y-86507065D01*
X130766203Y-86373446D01*
X130785900Y-86347776D01*
X131496909Y-85636766D01*
X131547695Y-85606064D01*
X131642006Y-85576678D01*
X131682889Y-85551962D01*
X131750442Y-85534126D01*
X131816916Y-85555643D01*
G37*
G04 #@! TD.AperFunction*
G04 #@! TA.AperFunction,Conductor*
G36*
X138239174Y-84231796D02*
G01*
X138297844Y-84269738D01*
X138326688Y-84333376D01*
X138327900Y-84350673D01*
X138327900Y-84939326D01*
X138308215Y-85006365D01*
X138291581Y-85027007D01*
X137735507Y-85583081D01*
X137674184Y-85616566D01*
X137647826Y-85619400D01*
X136666000Y-85619400D01*
X136598961Y-85599715D01*
X136553206Y-85546911D01*
X136542000Y-85495400D01*
X136542000Y-85243400D01*
X136561685Y-85176361D01*
X136614489Y-85130606D01*
X136666000Y-85119400D01*
X137741999Y-85119400D01*
X137741999Y-85071092D01*
X137741998Y-85071077D01*
X137731855Y-84971792D01*
X137678547Y-84810918D01*
X137678542Y-84810907D01*
X137589575Y-84666671D01*
X137589572Y-84666667D01*
X137469731Y-84546826D01*
X137389621Y-84497413D01*
X137342897Y-84445465D01*
X137331676Y-84376502D01*
X137359520Y-84312420D01*
X137417589Y-84273565D01*
X137487446Y-84272272D01*
X137489260Y-84272783D01*
X137505831Y-84277598D01*
X137542706Y-84280500D01*
X137542714Y-84280500D01*
X137974086Y-84280500D01*
X137974094Y-84280500D01*
X138010969Y-84277598D01*
X138010971Y-84277597D01*
X138010973Y-84277597D01*
X138169305Y-84231597D01*
X138239174Y-84231796D01*
G37*
G04 #@! TD.AperFunction*
G04 #@! TA.AperFunction,Conductor*
G36*
X134361439Y-72678385D02*
G01*
X134407194Y-72731189D01*
X134418400Y-72782700D01*
X134418400Y-73146281D01*
X134398715Y-73213320D01*
X134345911Y-73259075D01*
X134276753Y-73269019D01*
X134213197Y-73239994D01*
X134206719Y-73233962D01*
X133843138Y-72870381D01*
X133809653Y-72809058D01*
X133814637Y-72739366D01*
X133856509Y-72683433D01*
X133921973Y-72659016D01*
X133930819Y-72658700D01*
X134294400Y-72658700D01*
X134361439Y-72678385D01*
G37*
G04 #@! TD.AperFunction*
G04 #@! TA.AperFunction,Conductor*
G36*
X153300018Y-44366616D02*
G01*
X153500161Y-44380930D01*
X153517663Y-44383447D01*
X153709397Y-44425155D01*
X153726355Y-44430134D01*
X153910209Y-44498709D01*
X153926301Y-44506059D01*
X154098504Y-44600088D01*
X154113384Y-44609649D01*
X154270467Y-44727241D01*
X154283837Y-44738827D01*
X154422572Y-44877562D01*
X154434158Y-44890932D01*
X154551746Y-45048010D01*
X154561311Y-45062895D01*
X154655340Y-45235098D01*
X154662690Y-45251190D01*
X154731262Y-45435036D01*
X154736246Y-45452012D01*
X154777951Y-45643731D01*
X154780469Y-45661242D01*
X154794784Y-45861380D01*
X154795100Y-45870227D01*
X154795100Y-108409372D01*
X154794784Y-108418219D01*
X154780469Y-108618357D01*
X154777951Y-108635868D01*
X154736246Y-108827587D01*
X154731262Y-108844563D01*
X154662690Y-109028409D01*
X154655340Y-109044501D01*
X154561311Y-109216704D01*
X154551746Y-109231589D01*
X154434158Y-109388667D01*
X154422572Y-109402037D01*
X154283837Y-109540772D01*
X154270467Y-109552358D01*
X154113389Y-109669946D01*
X154098504Y-109679511D01*
X153926301Y-109773540D01*
X153910209Y-109780890D01*
X153726363Y-109849462D01*
X153709387Y-109854446D01*
X153517668Y-109896151D01*
X153500157Y-109898669D01*
X153319379Y-109911599D01*
X153300017Y-109912984D01*
X153291172Y-109913300D01*
X110818028Y-109913300D01*
X110809182Y-109912984D01*
X110787222Y-109911413D01*
X110609042Y-109898669D01*
X110591531Y-109896151D01*
X110399812Y-109854446D01*
X110382836Y-109849462D01*
X110198990Y-109780890D01*
X110182898Y-109773540D01*
X110010695Y-109679511D01*
X109995810Y-109669946D01*
X109838732Y-109552358D01*
X109825362Y-109540772D01*
X109686627Y-109402037D01*
X109675041Y-109388667D01*
X109557449Y-109231584D01*
X109547888Y-109216704D01*
X109453859Y-109044501D01*
X109446509Y-109028409D01*
X109385691Y-108865351D01*
X109377934Y-108844555D01*
X109372955Y-108827597D01*
X109331247Y-108635863D01*
X109328730Y-108618356D01*
X109326284Y-108584161D01*
X109314416Y-108418218D01*
X109314100Y-108409372D01*
X109314100Y-107406000D01*
X127576229Y-107406000D01*
X127595276Y-107623710D01*
X127595278Y-107623720D01*
X127651838Y-107834807D01*
X127651843Y-107834821D01*
X127744200Y-108032882D01*
X127744201Y-108032884D01*
X127787592Y-108094853D01*
X128351119Y-107531326D01*
X128368734Y-107597063D01*
X128433902Y-107709937D01*
X128526063Y-107802098D01*
X128638937Y-107867266D01*
X128704672Y-107884880D01*
X128141145Y-108448406D01*
X128203115Y-108491798D01*
X128203117Y-108491799D01*
X128401178Y-108584156D01*
X128401192Y-108584161D01*
X128612279Y-108640721D01*
X128612289Y-108640723D01*
X128829999Y-108659771D01*
X128830001Y-108659771D01*
X129047710Y-108640723D01*
X129047720Y-108640721D01*
X129258807Y-108584161D01*
X129258821Y-108584156D01*
X129456883Y-108491799D01*
X129456890Y-108491795D01*
X129518853Y-108448406D01*
X128955327Y-107884879D01*
X129021063Y-107867266D01*
X129133937Y-107802098D01*
X129226098Y-107709937D01*
X129291266Y-107597063D01*
X129308880Y-107531327D01*
X129872406Y-108094853D01*
X129915795Y-108032890D01*
X129915799Y-108032883D01*
X130008156Y-107834821D01*
X130008161Y-107834807D01*
X130064721Y-107623720D01*
X130064723Y-107623710D01*
X130083771Y-107406000D01*
X134076229Y-107406000D01*
X134095276Y-107623710D01*
X134095278Y-107623720D01*
X134151838Y-107834807D01*
X134151843Y-107834821D01*
X134244200Y-108032882D01*
X134244201Y-108032884D01*
X134287592Y-108094853D01*
X134851119Y-107531326D01*
X134868734Y-107597063D01*
X134933902Y-107709937D01*
X135026063Y-107802098D01*
X135138937Y-107867266D01*
X135204672Y-107884880D01*
X134641145Y-108448406D01*
X134703115Y-108491798D01*
X134703117Y-108491799D01*
X134901178Y-108584156D01*
X134901192Y-108584161D01*
X135112279Y-108640721D01*
X135112289Y-108640723D01*
X135329999Y-108659771D01*
X135330001Y-108659771D01*
X135547710Y-108640723D01*
X135547720Y-108640721D01*
X135758807Y-108584161D01*
X135758821Y-108584156D01*
X135956883Y-108491799D01*
X135956890Y-108491795D01*
X136018853Y-108448406D01*
X135455327Y-107884879D01*
X135521063Y-107867266D01*
X135633937Y-107802098D01*
X135726098Y-107709937D01*
X135791266Y-107597063D01*
X135808880Y-107531327D01*
X136372406Y-108094853D01*
X136415795Y-108032890D01*
X136415799Y-108032883D01*
X136508156Y-107834821D01*
X136508161Y-107834807D01*
X136564721Y-107623720D01*
X136564723Y-107623710D01*
X136583771Y-107406000D01*
X136583771Y-107405999D01*
X136564723Y-107188289D01*
X136564721Y-107188279D01*
X136508161Y-106977192D01*
X136508156Y-106977178D01*
X136415801Y-106779121D01*
X136372405Y-106717145D01*
X135808879Y-107280671D01*
X135791266Y-107214937D01*
X135726098Y-107102063D01*
X135633937Y-107009902D01*
X135521063Y-106944734D01*
X135455326Y-106927119D01*
X136018853Y-106363592D01*
X135956884Y-106320201D01*
X135956882Y-106320200D01*
X135758821Y-106227843D01*
X135758807Y-106227838D01*
X135547720Y-106171278D01*
X135547710Y-106171276D01*
X135330001Y-106152229D01*
X135329999Y-106152229D01*
X135112289Y-106171276D01*
X135112279Y-106171278D01*
X134901192Y-106227838D01*
X134901178Y-106227843D01*
X134703114Y-106320202D01*
X134641145Y-106363591D01*
X135204673Y-106927119D01*
X135138937Y-106944734D01*
X135026063Y-107009902D01*
X134933902Y-107102063D01*
X134868734Y-107214937D01*
X134851119Y-107280673D01*
X134287591Y-106717145D01*
X134244202Y-106779114D01*
X134151843Y-106977178D01*
X134151838Y-106977192D01*
X134095278Y-107188279D01*
X134095276Y-107188289D01*
X134076229Y-107405999D01*
X134076229Y-107406000D01*
X130083771Y-107406000D01*
X130083771Y-107405999D01*
X130064723Y-107188289D01*
X130064721Y-107188279D01*
X130008161Y-106977192D01*
X130008156Y-106977178D01*
X129915801Y-106779121D01*
X129872405Y-106717145D01*
X129308879Y-107280671D01*
X129291266Y-107214937D01*
X129226098Y-107102063D01*
X129133937Y-107009902D01*
X129021063Y-106944734D01*
X128955326Y-106927119D01*
X129518853Y-106363592D01*
X129456884Y-106320201D01*
X129456882Y-106320200D01*
X129258821Y-106227843D01*
X129258807Y-106227838D01*
X129047720Y-106171278D01*
X129047710Y-106171276D01*
X128830001Y-106152229D01*
X128829999Y-106152229D01*
X128612289Y-106171276D01*
X128612279Y-106171278D01*
X128401192Y-106227838D01*
X128401178Y-106227843D01*
X128203114Y-106320202D01*
X128141145Y-106363591D01*
X128704673Y-106927119D01*
X128638937Y-106944734D01*
X128526063Y-107009902D01*
X128433902Y-107102063D01*
X128368734Y-107214937D01*
X128351119Y-107280673D01*
X127787591Y-106717145D01*
X127744202Y-106779114D01*
X127651843Y-106977178D01*
X127651838Y-106977192D01*
X127595278Y-107188279D01*
X127595276Y-107188289D01*
X127576229Y-107405999D01*
X127576229Y-107406000D01*
X109314100Y-107406000D01*
X109314100Y-99913000D01*
X120083229Y-99913000D01*
X120102276Y-100130710D01*
X120102278Y-100130720D01*
X120158838Y-100341807D01*
X120158843Y-100341821D01*
X120251200Y-100539882D01*
X120251201Y-100539884D01*
X120294592Y-100601853D01*
X120858119Y-100038326D01*
X120875734Y-100104063D01*
X120940902Y-100216937D01*
X121033063Y-100309098D01*
X121145937Y-100374266D01*
X121211672Y-100391880D01*
X120648145Y-100955406D01*
X120710115Y-100998798D01*
X120710117Y-100998799D01*
X120908178Y-101091156D01*
X120908192Y-101091161D01*
X121119279Y-101147721D01*
X121119289Y-101147723D01*
X121336999Y-101166771D01*
X121337001Y-101166771D01*
X121554710Y-101147723D01*
X121554720Y-101147721D01*
X121765807Y-101091161D01*
X121765821Y-101091156D01*
X121963883Y-100998799D01*
X121963890Y-100998795D01*
X122025853Y-100955406D01*
X121462327Y-100391879D01*
X121528063Y-100374266D01*
X121640937Y-100309098D01*
X121733098Y-100216937D01*
X121798266Y-100104063D01*
X121815880Y-100038327D01*
X122379406Y-100601853D01*
X122422795Y-100539890D01*
X122422799Y-100539883D01*
X122515156Y-100341821D01*
X122515161Y-100341807D01*
X122571721Y-100130720D01*
X122571723Y-100130710D01*
X122590771Y-99913000D01*
X122590771Y-99912999D01*
X122571723Y-99695289D01*
X122571721Y-99695279D01*
X122515161Y-99484192D01*
X122515156Y-99484178D01*
X122422801Y-99286121D01*
X122379405Y-99224145D01*
X121815879Y-99787671D01*
X121798266Y-99721937D01*
X121733098Y-99609063D01*
X121640937Y-99516902D01*
X121528063Y-99451734D01*
X121462326Y-99434119D01*
X122025853Y-98870592D01*
X121963884Y-98827201D01*
X121963882Y-98827200D01*
X121765821Y-98734843D01*
X121765807Y-98734838D01*
X121554720Y-98678278D01*
X121554710Y-98678276D01*
X121337001Y-98659229D01*
X121336999Y-98659229D01*
X121119289Y-98678276D01*
X121119279Y-98678278D01*
X120908192Y-98734838D01*
X120908178Y-98734843D01*
X120710114Y-98827202D01*
X120648145Y-98870591D01*
X121211673Y-99434119D01*
X121145937Y-99451734D01*
X121033063Y-99516902D01*
X120940902Y-99609063D01*
X120875734Y-99721937D01*
X120858119Y-99787673D01*
X120294591Y-99224145D01*
X120251202Y-99286114D01*
X120158843Y-99484178D01*
X120158838Y-99484192D01*
X120102278Y-99695279D01*
X120102276Y-99695289D01*
X120083229Y-99912999D01*
X120083229Y-99913000D01*
X109314100Y-99913000D01*
X109314100Y-96209870D01*
X120087500Y-96209870D01*
X120087501Y-96209876D01*
X120093908Y-96269483D01*
X120144202Y-96404328D01*
X120144206Y-96404335D01*
X120230452Y-96519544D01*
X120230455Y-96519547D01*
X120345664Y-96605793D01*
X120345671Y-96605797D01*
X120480517Y-96656091D01*
X120480516Y-96656091D01*
X120487444Y-96656835D01*
X120540127Y-96662500D01*
X122133872Y-96662499D01*
X122193483Y-96656091D01*
X122328331Y-96605796D01*
X122443546Y-96519546D01*
X122529796Y-96404331D01*
X122580091Y-96269483D01*
X122586500Y-96209873D01*
X122586499Y-94616128D01*
X122580091Y-94556517D01*
X122541172Y-94452171D01*
X122529797Y-94421671D01*
X122529793Y-94421664D01*
X122443547Y-94306455D01*
X122443544Y-94306452D01*
X122328335Y-94220206D01*
X122328328Y-94220202D01*
X122193482Y-94169908D01*
X122193483Y-94169908D01*
X122133883Y-94163501D01*
X122133881Y-94163500D01*
X122133873Y-94163500D01*
X122133864Y-94163500D01*
X120540129Y-94163500D01*
X120540123Y-94163501D01*
X120480516Y-94169908D01*
X120345671Y-94220202D01*
X120345664Y-94220206D01*
X120230455Y-94306452D01*
X120230452Y-94306455D01*
X120144206Y-94421664D01*
X120144202Y-94421671D01*
X120093908Y-94556517D01*
X120089045Y-94601754D01*
X120087501Y-94616123D01*
X120087500Y-94616135D01*
X120087500Y-96209870D01*
X109314100Y-96209870D01*
X109314100Y-77470005D01*
X111672385Y-77470005D01*
X111692810Y-77716495D01*
X111753529Y-77956273D01*
X111852886Y-78182785D01*
X111951981Y-78334463D01*
X112534516Y-77751929D01*
X112554099Y-77799206D01*
X112630158Y-77913037D01*
X112726963Y-78009842D01*
X112840794Y-78085901D01*
X112888069Y-78105483D01*
X112305287Y-78688264D01*
X112305287Y-78688265D01*
X112350879Y-78723751D01*
X112568413Y-78841475D01*
X112568418Y-78841477D01*
X112802354Y-78921787D01*
X113046329Y-78962500D01*
X113293671Y-78962500D01*
X113537645Y-78921787D01*
X113771581Y-78841477D01*
X113771586Y-78841475D01*
X113989119Y-78723751D01*
X114034711Y-78688265D01*
X114034712Y-78688264D01*
X113451930Y-78105483D01*
X113499206Y-78085901D01*
X113613037Y-78009842D01*
X113709842Y-77913037D01*
X113785901Y-77799206D01*
X113805483Y-77751930D01*
X114388016Y-78334464D01*
X114487113Y-78182785D01*
X114586470Y-77956273D01*
X114647189Y-77716495D01*
X114667615Y-77470005D01*
X114667615Y-77469994D01*
X114647189Y-77223504D01*
X114586470Y-76983726D01*
X114487113Y-76757214D01*
X114388016Y-76605534D01*
X113805482Y-77188068D01*
X113785901Y-77140794D01*
X113709842Y-77026963D01*
X113613037Y-76930158D01*
X113499206Y-76854099D01*
X113451930Y-76834516D01*
X114034711Y-76251734D01*
X114034711Y-76251732D01*
X113989126Y-76216252D01*
X113989120Y-76216248D01*
X113771586Y-76098524D01*
X113771581Y-76098522D01*
X113537645Y-76018212D01*
X113293671Y-75977500D01*
X113046329Y-75977500D01*
X112802354Y-76018212D01*
X112568418Y-76098522D01*
X112568413Y-76098524D01*
X112350884Y-76216246D01*
X112305286Y-76251734D01*
X112888069Y-76834516D01*
X112840794Y-76854099D01*
X112726963Y-76930158D01*
X112630158Y-77026963D01*
X112554099Y-77140794D01*
X112534516Y-77188069D01*
X111951981Y-76605534D01*
X111852889Y-76757208D01*
X111852884Y-76757219D01*
X111753529Y-76983726D01*
X111692810Y-77223504D01*
X111672385Y-77469994D01*
X111672385Y-77470005D01*
X109314100Y-77470005D01*
X109314100Y-74244270D01*
X111682100Y-74244270D01*
X111682101Y-74244276D01*
X111688508Y-74303883D01*
X111738802Y-74438728D01*
X111738806Y-74438735D01*
X111825052Y-74553944D01*
X111825055Y-74553947D01*
X111940264Y-74640193D01*
X111940271Y-74640197D01*
X112075117Y-74690491D01*
X112075116Y-74690491D01*
X112078279Y-74690831D01*
X112134727Y-74696900D01*
X113280472Y-74696899D01*
X113340083Y-74690491D01*
X113474931Y-74640196D01*
X113533124Y-74596633D01*
X113598589Y-74572216D01*
X113607435Y-74571900D01*
X115957765Y-74571900D01*
X116024804Y-74591585D01*
X116032076Y-74596633D01*
X116090267Y-74640195D01*
X116092524Y-74641427D01*
X116094342Y-74643245D01*
X116097369Y-74645511D01*
X116097043Y-74645946D01*
X116141931Y-74690831D01*
X116157100Y-74750261D01*
X116157100Y-76707406D01*
X116157100Y-76845394D01*
X116157100Y-76845396D01*
X116157099Y-76845396D01*
X116184018Y-76980722D01*
X116184021Y-76980732D01*
X116236822Y-77108207D01*
X116313487Y-77222945D01*
X118552454Y-79461912D01*
X118667192Y-79538577D01*
X118794667Y-79591378D01*
X118794672Y-79591380D01*
X118794676Y-79591380D01*
X118794677Y-79591381D01*
X118930003Y-79618300D01*
X118930006Y-79618300D01*
X125151796Y-79618300D01*
X125247106Y-79599341D01*
X125287128Y-79591380D01*
X125350869Y-79564977D01*
X125414607Y-79538577D01*
X125414608Y-79538576D01*
X125414611Y-79538575D01*
X125529343Y-79461914D01*
X128391443Y-76599814D01*
X128452766Y-76566329D01*
X128522458Y-76571313D01*
X128578391Y-76613185D01*
X128602808Y-76678649D01*
X128602615Y-76698715D01*
X128601900Y-76706584D01*
X128601900Y-77369813D01*
X128608313Y-77440392D01*
X128608313Y-77440394D01*
X128608314Y-77440396D01*
X128658922Y-77602806D01*
X128733240Y-77725743D01*
X128746930Y-77748388D01*
X128867211Y-77868669D01*
X128867213Y-77868670D01*
X128867215Y-77868672D01*
X129012794Y-77956678D01*
X129175204Y-78007286D01*
X129245784Y-78013700D01*
X129245787Y-78013700D01*
X129759010Y-78013700D01*
X129759016Y-78013700D01*
X129766875Y-78012985D01*
X129835418Y-78026516D01*
X129885768Y-78074958D01*
X129901936Y-78142931D01*
X129878788Y-78208855D01*
X129865785Y-78224156D01*
X129523562Y-78566381D01*
X129462239Y-78599866D01*
X129435881Y-78602700D01*
X129245784Y-78602700D01*
X129226545Y-78604448D01*
X129175207Y-78609113D01*
X129012793Y-78659722D01*
X128867211Y-78747730D01*
X128746930Y-78868011D01*
X128658922Y-79013593D01*
X128608313Y-79176007D01*
X128603182Y-79232475D01*
X128601900Y-79246584D01*
X128601900Y-79909816D01*
X128608314Y-79980396D01*
X128639621Y-80080865D01*
X128646296Y-80102287D01*
X128647446Y-80172147D01*
X128610645Y-80231539D01*
X128547576Y-80261607D01*
X128478263Y-80252803D01*
X128477543Y-80252486D01*
X128331067Y-80187271D01*
X128331065Y-80187270D01*
X128203394Y-80160133D01*
X128156191Y-80150100D01*
X127977409Y-80150100D01*
X127946754Y-80156615D01*
X127802533Y-80187270D01*
X127802528Y-80187272D01*
X127639208Y-80259987D01*
X127494568Y-80365075D01*
X127374940Y-80497936D01*
X127285550Y-80652764D01*
X127285547Y-80652770D01*
X127228295Y-80828977D01*
X127225552Y-80828085D01*
X127198233Y-80878507D01*
X127197948Y-80878793D01*
X118874487Y-89202254D01*
X118797822Y-89316992D01*
X118745021Y-89444467D01*
X118745018Y-89444477D01*
X118718100Y-89579804D01*
X118718100Y-89853500D01*
X118698415Y-89920539D01*
X118645611Y-89966294D01*
X118594100Y-89977500D01*
X116524893Y-89977500D01*
X116457854Y-89957815D01*
X116452008Y-89953818D01*
X116429397Y-89937390D01*
X116429393Y-89937388D01*
X116266067Y-89864671D01*
X116266065Y-89864670D01*
X116138394Y-89837533D01*
X116091191Y-89827500D01*
X115912409Y-89827500D01*
X115881754Y-89834015D01*
X115737533Y-89864670D01*
X115737528Y-89864672D01*
X115574208Y-89937387D01*
X115429568Y-90042475D01*
X115309940Y-90175336D01*
X115220550Y-90330164D01*
X115220547Y-90330170D01*
X115165304Y-90500192D01*
X115165303Y-90500194D01*
X115146615Y-90678000D01*
X115165303Y-90855805D01*
X115165304Y-90855807D01*
X115220547Y-91025829D01*
X115220550Y-91025835D01*
X115309941Y-91180665D01*
X115351612Y-91226946D01*
X115429564Y-91313521D01*
X115429567Y-91313523D01*
X115429570Y-91313526D01*
X115574207Y-91418612D01*
X115737533Y-91491329D01*
X115912409Y-91528500D01*
X115912410Y-91528500D01*
X116091189Y-91528500D01*
X116091191Y-91528500D01*
X116266067Y-91491329D01*
X116429393Y-91418612D01*
X116434614Y-91414819D01*
X116452008Y-91402182D01*
X116517815Y-91378702D01*
X116524893Y-91378500D01*
X118602080Y-91378500D01*
X118669119Y-91398185D01*
X118689761Y-91414819D01*
X118783411Y-91508469D01*
X118783413Y-91508470D01*
X118783415Y-91508472D01*
X118928994Y-91596478D01*
X119091404Y-91647086D01*
X119161984Y-91653500D01*
X119161987Y-91653500D01*
X119675213Y-91653500D01*
X119675216Y-91653500D01*
X119745796Y-91647086D01*
X119908206Y-91596478D01*
X120053785Y-91508472D01*
X120070928Y-91491329D01*
X120155919Y-91406339D01*
X120217242Y-91372854D01*
X120286934Y-91377838D01*
X120331281Y-91406339D01*
X120433411Y-91508469D01*
X120433413Y-91508470D01*
X120433415Y-91508472D01*
X120578994Y-91596478D01*
X120741404Y-91647086D01*
X120811984Y-91653500D01*
X120811987Y-91653500D01*
X121325213Y-91653500D01*
X121325216Y-91653500D01*
X121395796Y-91647086D01*
X121558206Y-91596478D01*
X121681766Y-91521782D01*
X121745915Y-91503900D01*
X122489562Y-91503900D01*
X122539998Y-91514621D01*
X122544733Y-91516729D01*
X122719609Y-91553900D01*
X122719610Y-91553900D01*
X122898389Y-91553900D01*
X122898391Y-91553900D01*
X123073267Y-91516729D01*
X123236593Y-91444012D01*
X123381230Y-91338926D01*
X123385485Y-91334201D01*
X123440435Y-91273172D01*
X123500859Y-91206065D01*
X123590250Y-91051235D01*
X123619169Y-90962232D01*
X123658606Y-90904557D01*
X123722965Y-90877358D01*
X123791811Y-90889273D01*
X123843287Y-90936517D01*
X123861100Y-91000550D01*
X123861100Y-98568606D01*
X123861100Y-98706594D01*
X123861100Y-98706596D01*
X123861099Y-98706596D01*
X123888018Y-98841922D01*
X123888021Y-98841932D01*
X123940822Y-98969407D01*
X124017487Y-99084145D01*
X124017488Y-99084146D01*
X127544181Y-102610838D01*
X127577666Y-102672161D01*
X127580500Y-102698519D01*
X127580500Y-103702870D01*
X127580501Y-103702876D01*
X127586908Y-103762483D01*
X127637202Y-103897328D01*
X127637206Y-103897335D01*
X127723452Y-104012544D01*
X127723455Y-104012547D01*
X127838664Y-104098793D01*
X127838671Y-104098797D01*
X127973517Y-104149091D01*
X127973516Y-104149091D01*
X127980444Y-104149835D01*
X128033127Y-104155500D01*
X129626872Y-104155499D01*
X129686483Y-104149091D01*
X129821331Y-104098796D01*
X129936546Y-104012546D01*
X130022796Y-103897331D01*
X130073091Y-103762483D01*
X130077955Y-103717245D01*
X130104693Y-103652694D01*
X130162085Y-103612845D01*
X130201244Y-103606500D01*
X134230587Y-103606500D01*
X134297626Y-103626185D01*
X134332161Y-103659376D01*
X134369171Y-103712231D01*
X134523767Y-103866827D01*
X134523773Y-103866832D01*
X134702858Y-103992229D01*
X134702860Y-103992230D01*
X134702863Y-103992232D01*
X134901013Y-104084631D01*
X135112198Y-104141218D01*
X135267770Y-104154828D01*
X135329998Y-104160273D01*
X135330000Y-104160273D01*
X135330002Y-104160273D01*
X135384579Y-104155498D01*
X135547802Y-104141218D01*
X135758987Y-104084631D01*
X135957137Y-103992232D01*
X136136231Y-103866829D01*
X136290829Y-103712231D01*
X136416232Y-103533137D01*
X136508631Y-103334987D01*
X136565218Y-103123802D01*
X136584273Y-102906000D01*
X136565218Y-102688198D01*
X136508631Y-102477013D01*
X136416232Y-102278864D01*
X136290829Y-102099769D01*
X136136231Y-101945171D01*
X136136227Y-101945168D01*
X136136226Y-101945167D01*
X135957141Y-101819770D01*
X135957137Y-101819768D01*
X135957133Y-101819766D01*
X135758987Y-101727369D01*
X135758983Y-101727368D01*
X135758979Y-101727366D01*
X135547807Y-101670783D01*
X135547803Y-101670782D01*
X135547802Y-101670782D01*
X135547801Y-101670781D01*
X135547796Y-101670781D01*
X135330002Y-101651727D01*
X135329998Y-101651727D01*
X135112203Y-101670781D01*
X135112192Y-101670783D01*
X134901020Y-101727366D01*
X134901011Y-101727370D01*
X134702866Y-101819766D01*
X134523766Y-101945172D01*
X134369171Y-102099767D01*
X134332162Y-102152623D01*
X134277585Y-102196248D01*
X134230587Y-102205500D01*
X130201244Y-102205500D01*
X130134205Y-102185815D01*
X130088450Y-102133011D01*
X130077954Y-102094754D01*
X130077210Y-102087840D01*
X130073091Y-102049517D01*
X130034173Y-101945172D01*
X130022797Y-101914671D01*
X130022793Y-101914664D01*
X129936547Y-101799455D01*
X129936544Y-101799452D01*
X129821335Y-101713206D01*
X129821328Y-101713202D01*
X129686482Y-101662908D01*
X129686483Y-101662908D01*
X129626883Y-101656501D01*
X129626881Y-101656500D01*
X129626873Y-101656500D01*
X129626865Y-101656500D01*
X128622519Y-101656500D01*
X128555480Y-101636815D01*
X128534838Y-101620181D01*
X128212628Y-101297971D01*
X128179143Y-101236648D01*
X128184127Y-101166956D01*
X128225999Y-101111023D01*
X128261076Y-101093990D01*
X128260721Y-101093013D01*
X128265821Y-101091156D01*
X128463883Y-100998799D01*
X128463890Y-100998795D01*
X128525853Y-100955406D01*
X127962327Y-100391880D01*
X128028063Y-100374266D01*
X128140937Y-100309098D01*
X128233098Y-100216937D01*
X128298266Y-100104063D01*
X128315880Y-100038327D01*
X128879406Y-100601853D01*
X128922795Y-100539890D01*
X128922799Y-100539883D01*
X129015156Y-100341821D01*
X129015161Y-100341807D01*
X129071721Y-100130720D01*
X129071723Y-100130710D01*
X129090771Y-99913000D01*
X135069229Y-99913000D01*
X135088276Y-100130710D01*
X135088278Y-100130720D01*
X135144838Y-100341807D01*
X135144843Y-100341821D01*
X135237200Y-100539882D01*
X135237201Y-100539884D01*
X135280592Y-100601853D01*
X135844119Y-100038326D01*
X135861734Y-100104063D01*
X135926902Y-100216937D01*
X136019063Y-100309098D01*
X136131937Y-100374266D01*
X136197672Y-100391880D01*
X135634145Y-100955406D01*
X135696115Y-100998798D01*
X135696117Y-100998799D01*
X135894178Y-101091156D01*
X135894192Y-101091161D01*
X136105279Y-101147721D01*
X136105289Y-101147723D01*
X136322999Y-101166771D01*
X136323001Y-101166771D01*
X136540710Y-101147723D01*
X136540720Y-101147721D01*
X136751807Y-101091161D01*
X136751821Y-101091156D01*
X136949883Y-100998799D01*
X136949890Y-100998795D01*
X137011853Y-100955406D01*
X136448327Y-100391879D01*
X136514063Y-100374266D01*
X136626937Y-100309098D01*
X136719098Y-100216937D01*
X136784266Y-100104063D01*
X136801880Y-100038327D01*
X137365406Y-100601853D01*
X137408795Y-100539890D01*
X137408799Y-100539883D01*
X137501156Y-100341821D01*
X137501161Y-100341807D01*
X137557721Y-100130720D01*
X137557723Y-100130710D01*
X137576771Y-99913000D01*
X141569229Y-99913000D01*
X141588276Y-100130710D01*
X141588278Y-100130720D01*
X141644838Y-100341807D01*
X141644843Y-100341821D01*
X141737200Y-100539882D01*
X141737201Y-100539884D01*
X141780592Y-100601853D01*
X142344119Y-100038326D01*
X142361734Y-100104063D01*
X142426902Y-100216937D01*
X142519063Y-100309098D01*
X142631937Y-100374266D01*
X142697672Y-100391880D01*
X142134145Y-100955406D01*
X142196115Y-100998798D01*
X142196117Y-100998799D01*
X142394178Y-101091156D01*
X142394192Y-101091161D01*
X142605279Y-101147721D01*
X142605289Y-101147723D01*
X142822999Y-101166771D01*
X142823001Y-101166771D01*
X143040710Y-101147723D01*
X143040720Y-101147721D01*
X143251807Y-101091161D01*
X143251821Y-101091156D01*
X143449883Y-100998799D01*
X143449890Y-100998795D01*
X143511853Y-100955406D01*
X142948327Y-100391879D01*
X143014063Y-100374266D01*
X143126937Y-100309098D01*
X143219098Y-100216937D01*
X143284266Y-100104063D01*
X143301880Y-100038327D01*
X143865406Y-100601853D01*
X143908795Y-100539890D01*
X143908799Y-100539883D01*
X144001156Y-100341821D01*
X144001161Y-100341807D01*
X144057721Y-100130720D01*
X144057723Y-100130710D01*
X144076771Y-99913000D01*
X144076771Y-99912999D01*
X144057723Y-99695289D01*
X144057721Y-99695279D01*
X144001161Y-99484192D01*
X144001156Y-99484178D01*
X143908801Y-99286121D01*
X143865405Y-99224145D01*
X143301879Y-99787671D01*
X143284266Y-99721937D01*
X143219098Y-99609063D01*
X143126937Y-99516902D01*
X143014063Y-99451734D01*
X142948326Y-99434119D01*
X143511853Y-98870592D01*
X143449884Y-98827201D01*
X143449882Y-98827200D01*
X143251821Y-98734843D01*
X143251807Y-98734838D01*
X143040720Y-98678278D01*
X143040710Y-98678276D01*
X142823001Y-98659229D01*
X142822999Y-98659229D01*
X142605289Y-98678276D01*
X142605279Y-98678278D01*
X142394192Y-98734838D01*
X142394178Y-98734843D01*
X142196114Y-98827202D01*
X142134145Y-98870591D01*
X142697673Y-99434119D01*
X142631937Y-99451734D01*
X142519063Y-99516902D01*
X142426902Y-99609063D01*
X142361734Y-99721937D01*
X142344119Y-99787673D01*
X141780591Y-99224145D01*
X141737202Y-99286114D01*
X141644843Y-99484178D01*
X141644838Y-99484192D01*
X141588278Y-99695279D01*
X141588276Y-99695289D01*
X141569229Y-99912999D01*
X141569229Y-99913000D01*
X137576771Y-99913000D01*
X137576771Y-99912999D01*
X137557723Y-99695289D01*
X137557721Y-99695279D01*
X137501161Y-99484192D01*
X137501156Y-99484178D01*
X137408801Y-99286121D01*
X137365405Y-99224145D01*
X136801879Y-99787671D01*
X136784266Y-99721937D01*
X136719098Y-99609063D01*
X136626937Y-99516902D01*
X136514063Y-99451734D01*
X136448326Y-99434119D01*
X137011853Y-98870592D01*
X136949884Y-98827201D01*
X136949882Y-98827200D01*
X136751821Y-98734843D01*
X136751807Y-98734838D01*
X136540720Y-98678278D01*
X136540710Y-98678276D01*
X136323001Y-98659229D01*
X136322999Y-98659229D01*
X136105289Y-98678276D01*
X136105279Y-98678278D01*
X135894192Y-98734838D01*
X135894178Y-98734843D01*
X135696114Y-98827202D01*
X135634145Y-98870591D01*
X136197673Y-99434119D01*
X136131937Y-99451734D01*
X136019063Y-99516902D01*
X135926902Y-99609063D01*
X135861734Y-99721937D01*
X135844119Y-99787673D01*
X135280591Y-99224145D01*
X135237202Y-99286114D01*
X135144843Y-99484178D01*
X135144838Y-99484192D01*
X135088278Y-99695279D01*
X135088276Y-99695289D01*
X135069229Y-99912999D01*
X135069229Y-99913000D01*
X129090771Y-99913000D01*
X129090771Y-99912999D01*
X129071723Y-99695289D01*
X129071721Y-99695279D01*
X129015161Y-99484192D01*
X129015156Y-99484178D01*
X128922801Y-99286121D01*
X128879405Y-99224145D01*
X128315879Y-99787671D01*
X128298266Y-99721937D01*
X128233098Y-99609063D01*
X128140937Y-99516902D01*
X128028063Y-99451734D01*
X127962326Y-99434119D01*
X128525853Y-98870592D01*
X128463884Y-98827201D01*
X128463882Y-98827200D01*
X128265821Y-98734843D01*
X128265807Y-98734838D01*
X128054720Y-98678278D01*
X128054710Y-98678276D01*
X127837001Y-98659229D01*
X127836999Y-98659229D01*
X127619289Y-98678276D01*
X127619279Y-98678278D01*
X127408192Y-98734838D01*
X127408178Y-98734843D01*
X127210114Y-98827202D01*
X127148145Y-98870591D01*
X127711673Y-99434119D01*
X127645937Y-99451734D01*
X127533063Y-99516902D01*
X127440902Y-99609063D01*
X127375734Y-99721937D01*
X127358119Y-99787673D01*
X126794591Y-99224145D01*
X126751202Y-99286114D01*
X126658841Y-99484183D01*
X126656991Y-99489268D01*
X126655308Y-99488655D01*
X126623081Y-99541478D01*
X126560222Y-99571982D01*
X126490850Y-99563658D01*
X126452028Y-99537371D01*
X125298419Y-98383762D01*
X125264934Y-98322439D01*
X125262100Y-98296081D01*
X125262100Y-93962045D01*
X125281785Y-93895006D01*
X125334589Y-93849251D01*
X125403747Y-93839307D01*
X125467303Y-93868332D01*
X125505077Y-93927110D01*
X125507717Y-93937854D01*
X125513618Y-93967520D01*
X125513621Y-93967532D01*
X125566422Y-94095007D01*
X125643087Y-94209745D01*
X125643088Y-94209746D01*
X126563048Y-95129705D01*
X126596533Y-95191028D01*
X126598895Y-95228193D01*
X126582727Y-95412997D01*
X126582727Y-95413001D01*
X126601781Y-95630796D01*
X126601783Y-95630807D01*
X126658366Y-95841979D01*
X126658368Y-95841983D01*
X126658369Y-95841987D01*
X126750768Y-96040137D01*
X126750770Y-96040141D01*
X126876167Y-96219226D01*
X126876172Y-96219232D01*
X127030767Y-96373827D01*
X127030773Y-96373832D01*
X127209858Y-96499229D01*
X127209860Y-96499230D01*
X127209863Y-96499232D01*
X127408013Y-96591631D01*
X127619198Y-96648218D01*
X127774770Y-96661828D01*
X127836998Y-96667273D01*
X127837000Y-96667273D01*
X127837002Y-96667273D01*
X127891579Y-96662498D01*
X128054802Y-96648218D01*
X128265987Y-96591631D01*
X128464137Y-96499232D01*
X128643231Y-96373829D01*
X128797829Y-96219231D01*
X128923232Y-96040137D01*
X129015631Y-95841987D01*
X129072218Y-95630802D01*
X129091273Y-95413000D01*
X129072218Y-95195198D01*
X129015631Y-94984013D01*
X128923232Y-94785864D01*
X128797829Y-94606769D01*
X128643231Y-94452171D01*
X128643227Y-94452168D01*
X128643226Y-94452167D01*
X128464141Y-94326770D01*
X128464137Y-94326768D01*
X128265987Y-94234369D01*
X128265983Y-94234368D01*
X128265979Y-94234366D01*
X128054807Y-94177783D01*
X128054803Y-94177782D01*
X128054802Y-94177782D01*
X128054801Y-94177781D01*
X128054796Y-94177781D01*
X127837002Y-94158727D01*
X127836998Y-94158727D01*
X127652193Y-94174895D01*
X127583693Y-94161128D01*
X127553705Y-94139048D01*
X126924019Y-93509362D01*
X126890534Y-93448039D01*
X126887700Y-93421681D01*
X126887700Y-92420000D01*
X127576229Y-92420000D01*
X127595276Y-92637710D01*
X127595278Y-92637720D01*
X127651838Y-92848807D01*
X127651843Y-92848821D01*
X127744200Y-93046882D01*
X127744201Y-93046884D01*
X127787592Y-93108853D01*
X128351119Y-92545326D01*
X128368734Y-92611063D01*
X128433902Y-92723937D01*
X128526063Y-92816098D01*
X128638937Y-92881266D01*
X128704672Y-92898880D01*
X128141145Y-93462406D01*
X128203115Y-93505798D01*
X128203117Y-93505799D01*
X128401178Y-93598156D01*
X128401192Y-93598161D01*
X128612279Y-93654721D01*
X128612289Y-93654723D01*
X128829999Y-93673771D01*
X128830001Y-93673771D01*
X129047710Y-93654723D01*
X129047720Y-93654721D01*
X129258807Y-93598161D01*
X129258821Y-93598156D01*
X129456883Y-93505799D01*
X129456890Y-93505795D01*
X129518853Y-93462406D01*
X128955327Y-92898879D01*
X129021063Y-92881266D01*
X129133937Y-92816098D01*
X129226098Y-92723937D01*
X129291266Y-92611063D01*
X129308880Y-92545327D01*
X129872406Y-93108853D01*
X129915795Y-93046890D01*
X129915799Y-93046883D01*
X130008156Y-92848821D01*
X130008161Y-92848807D01*
X130064721Y-92637720D01*
X130064723Y-92637710D01*
X130083771Y-92420000D01*
X134076229Y-92420000D01*
X134095276Y-92637710D01*
X134095278Y-92637720D01*
X134151838Y-92848807D01*
X134151843Y-92848821D01*
X134244200Y-93046882D01*
X134244201Y-93046884D01*
X134287592Y-93108853D01*
X134851119Y-92545326D01*
X134868734Y-92611063D01*
X134933902Y-92723937D01*
X135026063Y-92816098D01*
X135138937Y-92881266D01*
X135204672Y-92898880D01*
X134641145Y-93462406D01*
X134703115Y-93505798D01*
X134703117Y-93505799D01*
X134901178Y-93598156D01*
X134901192Y-93598161D01*
X135112279Y-93654721D01*
X135112289Y-93654723D01*
X135329999Y-93673771D01*
X135330001Y-93673771D01*
X135547710Y-93654723D01*
X135547720Y-93654721D01*
X135758807Y-93598161D01*
X135758821Y-93598156D01*
X135956883Y-93505799D01*
X135956890Y-93505795D01*
X136018853Y-93462406D01*
X135455327Y-92898879D01*
X135521063Y-92881266D01*
X135633937Y-92816098D01*
X135726098Y-92723937D01*
X135791266Y-92611063D01*
X135808880Y-92545327D01*
X136372406Y-93108853D01*
X136415795Y-93046890D01*
X136415799Y-93046883D01*
X136508156Y-92848821D01*
X136508161Y-92848807D01*
X136564721Y-92637720D01*
X136564723Y-92637710D01*
X136583771Y-92420000D01*
X136583771Y-92419999D01*
X136564723Y-92202289D01*
X136564721Y-92202279D01*
X136508161Y-91991192D01*
X136508156Y-91991178D01*
X136415801Y-91793121D01*
X136372405Y-91731145D01*
X135808879Y-92294671D01*
X135791266Y-92228937D01*
X135726098Y-92116063D01*
X135633937Y-92023902D01*
X135521063Y-91958734D01*
X135455326Y-91941119D01*
X136018853Y-91377592D01*
X135956884Y-91334201D01*
X135956882Y-91334200D01*
X135758821Y-91241843D01*
X135758807Y-91241838D01*
X135547720Y-91185278D01*
X135547710Y-91185276D01*
X135330001Y-91166229D01*
X135329999Y-91166229D01*
X135112289Y-91185276D01*
X135112279Y-91185278D01*
X134901192Y-91241838D01*
X134901178Y-91241843D01*
X134703114Y-91334202D01*
X134641145Y-91377591D01*
X135204673Y-91941119D01*
X135138937Y-91958734D01*
X135026063Y-92023902D01*
X134933902Y-92116063D01*
X134868734Y-92228937D01*
X134851119Y-92294673D01*
X134287591Y-91731145D01*
X134244202Y-91793114D01*
X134151843Y-91991178D01*
X134151838Y-91991192D01*
X134095278Y-92202279D01*
X134095276Y-92202289D01*
X134076229Y-92419999D01*
X134076229Y-92420000D01*
X130083771Y-92420000D01*
X130083771Y-92419999D01*
X130064723Y-92202289D01*
X130064721Y-92202279D01*
X130008161Y-91991192D01*
X130008156Y-91991178D01*
X129915801Y-91793121D01*
X129872405Y-91731145D01*
X129308879Y-92294671D01*
X129291266Y-92228937D01*
X129226098Y-92116063D01*
X129133937Y-92023902D01*
X129021063Y-91958734D01*
X128955326Y-91941119D01*
X129518853Y-91377592D01*
X129456884Y-91334201D01*
X129456882Y-91334200D01*
X129258821Y-91241843D01*
X129258807Y-91241838D01*
X129047720Y-91185278D01*
X129047710Y-91185276D01*
X128830001Y-91166229D01*
X128829999Y-91166229D01*
X128612289Y-91185276D01*
X128612279Y-91185278D01*
X128401192Y-91241838D01*
X128401178Y-91241843D01*
X128203114Y-91334202D01*
X128141145Y-91377591D01*
X128704673Y-91941119D01*
X128638937Y-91958734D01*
X128526063Y-92023902D01*
X128433902Y-92116063D01*
X128368734Y-92228937D01*
X128351119Y-92294673D01*
X127787591Y-91731145D01*
X127744202Y-91793114D01*
X127651843Y-91991178D01*
X127651838Y-91991192D01*
X127595278Y-92202279D01*
X127595276Y-92202289D01*
X127576229Y-92419999D01*
X127576229Y-92420000D01*
X126887700Y-92420000D01*
X126887700Y-88314918D01*
X126907385Y-88247879D01*
X126924015Y-88227241D01*
X127368819Y-87782436D01*
X127430142Y-87748952D01*
X127499834Y-87753936D01*
X127555767Y-87795808D01*
X127580184Y-87861272D01*
X127580500Y-87870118D01*
X127580500Y-88716870D01*
X127580501Y-88716876D01*
X127586908Y-88776483D01*
X127637202Y-88911328D01*
X127637206Y-88911335D01*
X127723452Y-89026544D01*
X127723455Y-89026547D01*
X127838664Y-89112793D01*
X127838671Y-89112797D01*
X127973517Y-89163091D01*
X127973516Y-89163091D01*
X127980444Y-89163835D01*
X128033127Y-89169500D01*
X129626872Y-89169499D01*
X129686483Y-89163091D01*
X129821331Y-89112796D01*
X129936546Y-89026546D01*
X130022796Y-88911331D01*
X130073091Y-88776483D01*
X130077955Y-88731245D01*
X130104693Y-88666694D01*
X130162085Y-88626845D01*
X130201244Y-88620500D01*
X134230587Y-88620500D01*
X134297626Y-88640185D01*
X134332161Y-88673376D01*
X134369171Y-88726231D01*
X134523767Y-88880827D01*
X134523773Y-88880832D01*
X134702858Y-89006229D01*
X134702860Y-89006230D01*
X134702863Y-89006232D01*
X134901013Y-89098631D01*
X135112198Y-89155218D01*
X135267770Y-89168828D01*
X135329998Y-89174273D01*
X135330000Y-89174273D01*
X135330002Y-89174273D01*
X135384579Y-89169498D01*
X135547802Y-89155218D01*
X135758987Y-89098631D01*
X135957137Y-89006232D01*
X136136231Y-88880829D01*
X136290829Y-88726231D01*
X136327839Y-88673376D01*
X136382416Y-88629751D01*
X136429413Y-88620500D01*
X136458241Y-88620500D01*
X136549285Y-88602389D01*
X136593573Y-88593580D01*
X136657314Y-88567177D01*
X136721052Y-88540777D01*
X136721053Y-88540776D01*
X136721056Y-88540775D01*
X136835788Y-88464114D01*
X139386219Y-85913683D01*
X139447542Y-85880198D01*
X139517234Y-85885182D01*
X139573167Y-85927054D01*
X139597584Y-85992518D01*
X139597900Y-86001364D01*
X139597900Y-92819406D01*
X139597900Y-92957394D01*
X139597900Y-92957396D01*
X139597899Y-92957396D01*
X139624818Y-93092722D01*
X139624821Y-93092732D01*
X139677622Y-93220207D01*
X139754287Y-93334945D01*
X139754288Y-93334946D01*
X140920162Y-94500819D01*
X140953647Y-94562142D01*
X140948663Y-94631834D01*
X140906791Y-94687767D01*
X140841327Y-94712184D01*
X140832481Y-94712500D01*
X137694244Y-94712500D01*
X137627205Y-94692815D01*
X137581450Y-94640011D01*
X137570954Y-94601754D01*
X137570210Y-94594840D01*
X137566091Y-94556517D01*
X137530298Y-94460552D01*
X137515797Y-94421671D01*
X137515793Y-94421664D01*
X137429547Y-94306455D01*
X137429544Y-94306452D01*
X137314335Y-94220206D01*
X137314328Y-94220202D01*
X137179482Y-94169908D01*
X137179483Y-94169908D01*
X137119883Y-94163501D01*
X137119881Y-94163500D01*
X137119873Y-94163500D01*
X137119864Y-94163500D01*
X135526129Y-94163500D01*
X135526123Y-94163501D01*
X135466516Y-94169908D01*
X135331671Y-94220202D01*
X135331664Y-94220206D01*
X135216455Y-94306452D01*
X135216452Y-94306455D01*
X135130206Y-94421664D01*
X135130202Y-94421671D01*
X135079908Y-94556517D01*
X135075045Y-94601754D01*
X135073501Y-94616123D01*
X135073500Y-94616135D01*
X135073500Y-96209870D01*
X135073501Y-96209876D01*
X135079908Y-96269483D01*
X135130202Y-96404328D01*
X135130206Y-96404335D01*
X135216452Y-96519544D01*
X135216455Y-96519547D01*
X135331664Y-96605793D01*
X135331671Y-96605797D01*
X135466517Y-96656091D01*
X135466516Y-96656091D01*
X135473444Y-96656835D01*
X135526127Y-96662500D01*
X137119872Y-96662499D01*
X137179483Y-96656091D01*
X137314331Y-96605796D01*
X137429546Y-96519546D01*
X137515796Y-96404331D01*
X137566091Y-96269483D01*
X137570955Y-96224245D01*
X137597693Y-96159694D01*
X137655085Y-96119845D01*
X137694244Y-96113500D01*
X141723587Y-96113500D01*
X141790626Y-96133185D01*
X141825161Y-96166376D01*
X141862171Y-96219231D01*
X142016767Y-96373827D01*
X142016773Y-96373832D01*
X142195858Y-96499229D01*
X142195860Y-96499230D01*
X142195863Y-96499232D01*
X142394013Y-96591631D01*
X142605198Y-96648218D01*
X142760770Y-96661828D01*
X142822998Y-96667273D01*
X142823000Y-96667273D01*
X142823002Y-96667273D01*
X142877579Y-96662498D01*
X143040802Y-96648218D01*
X143251987Y-96591631D01*
X143450137Y-96499232D01*
X143629231Y-96373829D01*
X143783829Y-96219231D01*
X143909232Y-96040137D01*
X144001631Y-95841987D01*
X144058218Y-95630802D01*
X144077273Y-95413000D01*
X144058218Y-95195198D01*
X144001631Y-94984013D01*
X143909232Y-94785864D01*
X143783829Y-94606769D01*
X143629231Y-94452171D01*
X143629227Y-94452168D01*
X143629226Y-94452167D01*
X143450141Y-94326770D01*
X143450137Y-94326768D01*
X143251987Y-94234369D01*
X143251983Y-94234368D01*
X143251979Y-94234366D01*
X143040807Y-94177783D01*
X143040803Y-94177782D01*
X143040802Y-94177782D01*
X143040801Y-94177781D01*
X143040796Y-94177781D01*
X142823002Y-94158727D01*
X142822998Y-94158727D01*
X142638193Y-94174895D01*
X142569693Y-94161128D01*
X142539705Y-94139048D01*
X141035219Y-92634562D01*
X141001734Y-92573239D01*
X140998900Y-92546881D01*
X140998900Y-84350673D01*
X141018585Y-84283634D01*
X141071389Y-84237879D01*
X141140547Y-84227935D01*
X141157495Y-84231597D01*
X141315826Y-84277597D01*
X141315829Y-84277597D01*
X141315831Y-84277598D01*
X141352706Y-84280500D01*
X141352714Y-84280500D01*
X141784086Y-84280500D01*
X141784094Y-84280500D01*
X141820969Y-84277598D01*
X141820971Y-84277597D01*
X141820973Y-84277597D01*
X141895295Y-84256004D01*
X141978798Y-84231744D01*
X142120265Y-84148081D01*
X142120270Y-84148075D01*
X142126431Y-84143298D01*
X142128333Y-84145750D01*
X142176979Y-84119155D01*
X142246674Y-84124104D01*
X142279095Y-84144940D01*
X142280369Y-84143298D01*
X142286532Y-84148078D01*
X142286535Y-84148081D01*
X142428002Y-84231744D01*
X142449119Y-84237879D01*
X142585826Y-84277597D01*
X142585829Y-84277597D01*
X142585831Y-84277598D01*
X142622706Y-84280500D01*
X142622714Y-84280500D01*
X143054086Y-84280500D01*
X143054094Y-84280500D01*
X143090969Y-84277598D01*
X143090971Y-84277597D01*
X143090973Y-84277597D01*
X143165295Y-84256004D01*
X143248798Y-84231744D01*
X143390265Y-84148081D01*
X143390270Y-84148075D01*
X143396431Y-84143298D01*
X143398333Y-84145750D01*
X143446979Y-84119155D01*
X143516674Y-84124104D01*
X143549095Y-84144940D01*
X143550369Y-84143298D01*
X143556532Y-84148078D01*
X143556535Y-84148081D01*
X143698002Y-84231744D01*
X143719119Y-84237879D01*
X143855826Y-84277597D01*
X143855829Y-84277597D01*
X143855831Y-84277598D01*
X143892706Y-84280500D01*
X143892714Y-84280500D01*
X144324086Y-84280500D01*
X144324094Y-84280500D01*
X144360969Y-84277598D01*
X144360971Y-84277597D01*
X144360973Y-84277597D01*
X144435295Y-84256004D01*
X144518798Y-84231744D01*
X144660265Y-84148081D01*
X144660270Y-84148075D01*
X144666431Y-84143298D01*
X144668333Y-84145750D01*
X144716979Y-84119155D01*
X144786674Y-84124104D01*
X144819095Y-84144940D01*
X144820369Y-84143298D01*
X144826532Y-84148078D01*
X144826535Y-84148081D01*
X144968002Y-84231744D01*
X144989119Y-84237879D01*
X145125826Y-84277597D01*
X145125829Y-84277597D01*
X145125831Y-84277598D01*
X145162706Y-84280500D01*
X145162714Y-84280500D01*
X145594086Y-84280500D01*
X145594094Y-84280500D01*
X145630969Y-84277598D01*
X145630971Y-84277597D01*
X145630973Y-84277597D01*
X145705295Y-84256004D01*
X145788798Y-84231744D01*
X145930265Y-84148081D01*
X145930270Y-84148075D01*
X145936431Y-84143298D01*
X145938333Y-84145750D01*
X145986979Y-84119155D01*
X146056674Y-84124104D01*
X146089095Y-84144940D01*
X146090369Y-84143298D01*
X146096532Y-84148078D01*
X146096535Y-84148081D01*
X146238002Y-84231744D01*
X146259119Y-84237879D01*
X146395826Y-84277597D01*
X146395829Y-84277597D01*
X146395831Y-84277598D01*
X146432706Y-84280500D01*
X146432714Y-84280500D01*
X146864086Y-84280500D01*
X146864094Y-84280500D01*
X146900969Y-84277598D01*
X146900971Y-84277597D01*
X146900973Y-84277597D01*
X146975295Y-84256004D01*
X147058798Y-84231744D01*
X147200265Y-84148081D01*
X147316481Y-84031865D01*
X147400144Y-83890398D01*
X147445998Y-83732569D01*
X147448900Y-83695694D01*
X147448900Y-81814306D01*
X147445998Y-81777431D01*
X147435475Y-81741212D01*
X147400145Y-81619606D01*
X147400144Y-81619603D01*
X147400144Y-81619602D01*
X147316481Y-81478135D01*
X147316479Y-81478133D01*
X147316476Y-81478129D01*
X147200270Y-81361923D01*
X147200262Y-81361917D01*
X147067594Y-81283458D01*
X147058798Y-81278256D01*
X147058797Y-81278255D01*
X147058796Y-81278255D01*
X147058793Y-81278254D01*
X146900973Y-81232402D01*
X146900967Y-81232401D01*
X146864101Y-81229500D01*
X146864094Y-81229500D01*
X146432706Y-81229500D01*
X146432698Y-81229500D01*
X146395832Y-81232401D01*
X146395826Y-81232402D01*
X146238006Y-81278254D01*
X146238003Y-81278255D01*
X146096537Y-81361917D01*
X146090369Y-81366702D01*
X146088472Y-81364256D01*
X146039758Y-81390857D01*
X145970066Y-81385873D01*
X145937696Y-81365069D01*
X145936431Y-81366702D01*
X145930262Y-81361917D01*
X145797594Y-81283458D01*
X145788798Y-81278256D01*
X145788797Y-81278255D01*
X145788796Y-81278255D01*
X145788793Y-81278254D01*
X145630973Y-81232402D01*
X145630967Y-81232401D01*
X145594101Y-81229500D01*
X145594094Y-81229500D01*
X145162706Y-81229500D01*
X145162698Y-81229500D01*
X145125832Y-81232401D01*
X145125826Y-81232402D01*
X144968006Y-81278254D01*
X144968003Y-81278255D01*
X144826537Y-81361917D01*
X144820369Y-81366702D01*
X144818472Y-81364256D01*
X144769758Y-81390857D01*
X144700066Y-81385873D01*
X144667696Y-81365069D01*
X144666431Y-81366702D01*
X144660262Y-81361917D01*
X144527594Y-81283458D01*
X144518798Y-81278256D01*
X144518797Y-81278255D01*
X144518796Y-81278255D01*
X144518793Y-81278254D01*
X144360973Y-81232402D01*
X144360967Y-81232401D01*
X144324101Y-81229500D01*
X144324094Y-81229500D01*
X143892706Y-81229500D01*
X143892698Y-81229500D01*
X143855832Y-81232401D01*
X143855826Y-81232402D01*
X143698006Y-81278254D01*
X143698003Y-81278255D01*
X143556537Y-81361917D01*
X143550369Y-81366702D01*
X143548472Y-81364256D01*
X143499758Y-81390857D01*
X143430066Y-81385873D01*
X143397696Y-81365069D01*
X143396431Y-81366702D01*
X143390262Y-81361917D01*
X143257594Y-81283458D01*
X143248798Y-81278256D01*
X143248797Y-81278255D01*
X143248796Y-81278255D01*
X143248793Y-81278254D01*
X143090973Y-81232402D01*
X143090967Y-81232401D01*
X143054101Y-81229500D01*
X143054094Y-81229500D01*
X142622706Y-81229500D01*
X142622698Y-81229500D01*
X142585832Y-81232401D01*
X142585826Y-81232402D01*
X142428006Y-81278254D01*
X142428003Y-81278255D01*
X142314480Y-81345392D01*
X142246755Y-81362575D01*
X142180493Y-81340415D01*
X142148257Y-81307551D01*
X142134730Y-81287306D01*
X142132159Y-81283458D01*
X142112514Y-81254057D01*
X142112513Y-81254055D01*
X142112511Y-81254053D01*
X139619238Y-78760781D01*
X139585753Y-78699458D01*
X139590737Y-78629766D01*
X139632609Y-78573833D01*
X139698073Y-78549416D01*
X139706919Y-78549100D01*
X139713189Y-78549100D01*
X139713191Y-78549100D01*
X139888067Y-78511929D01*
X140051393Y-78439212D01*
X140053557Y-78437639D01*
X140074008Y-78422782D01*
X140139815Y-78399302D01*
X140146893Y-78399100D01*
X145458596Y-78399100D01*
X145549640Y-78380989D01*
X145593928Y-78372180D01*
X145684983Y-78334464D01*
X145721407Y-78319377D01*
X145721408Y-78319376D01*
X145721411Y-78319375D01*
X145836143Y-78242714D01*
X146608851Y-77470006D01*
X149491883Y-77470006D01*
X149512314Y-77716578D01*
X149573054Y-77956436D01*
X149672445Y-78183026D01*
X149807773Y-78390160D01*
X149807781Y-78390171D01*
X149969996Y-78566381D01*
X149975353Y-78572200D01*
X150170608Y-78724173D01*
X150388213Y-78841936D01*
X150388216Y-78841937D01*
X150622230Y-78922274D01*
X150622232Y-78922274D01*
X150622234Y-78922275D01*
X150866286Y-78963000D01*
X150866287Y-78963000D01*
X151113713Y-78963000D01*
X151113714Y-78963000D01*
X151357766Y-78922275D01*
X151591787Y-78841936D01*
X151809392Y-78724173D01*
X152004647Y-78572200D01*
X152172225Y-78390163D01*
X152307555Y-78183025D01*
X152406945Y-77956438D01*
X152467685Y-77716582D01*
X152483908Y-77520794D01*
X152488117Y-77470006D01*
X152488117Y-77469993D01*
X152467685Y-77223421D01*
X152467685Y-77223418D01*
X152406945Y-76983562D01*
X152307555Y-76756975D01*
X152172225Y-76549837D01*
X152172222Y-76549834D01*
X152172218Y-76549828D01*
X152004650Y-76367803D01*
X152004647Y-76367800D01*
X151855525Y-76251734D01*
X151809392Y-76215827D01*
X151809390Y-76215826D01*
X151809389Y-76215825D01*
X151591788Y-76098064D01*
X151591783Y-76098062D01*
X151357769Y-76017725D01*
X151174727Y-75987181D01*
X151113714Y-75977000D01*
X150866286Y-75977000D01*
X150817475Y-75985145D01*
X150622230Y-76017725D01*
X150388216Y-76098062D01*
X150388211Y-76098064D01*
X150170610Y-76215825D01*
X149975352Y-76367800D01*
X149975349Y-76367803D01*
X149807781Y-76549828D01*
X149807773Y-76549839D01*
X149672445Y-76756973D01*
X149573054Y-76983563D01*
X149512314Y-77223421D01*
X149491883Y-77469993D01*
X149491883Y-77470006D01*
X146608851Y-77470006D01*
X149335014Y-74743843D01*
X149411675Y-74629111D01*
X149427711Y-74590398D01*
X149464478Y-74501632D01*
X149464480Y-74501628D01*
X149480003Y-74423591D01*
X149491400Y-74366296D01*
X149491400Y-69467634D01*
X149749500Y-69467634D01*
X149780045Y-69660485D01*
X149840381Y-69846184D01*
X149840382Y-69846187D01*
X149929031Y-70020167D01*
X150043793Y-70178125D01*
X150043797Y-70178130D01*
X150181869Y-70316202D01*
X150181874Y-70316206D01*
X150319653Y-70416307D01*
X150339836Y-70430971D01*
X150453565Y-70488919D01*
X150513812Y-70519617D01*
X150513815Y-70519618D01*
X150606664Y-70549786D01*
X150699516Y-70579955D01*
X150788835Y-70594101D01*
X150892366Y-70610500D01*
X150892371Y-70610500D01*
X151087634Y-70610500D01*
X151181125Y-70595691D01*
X151280484Y-70579955D01*
X151466187Y-70519617D01*
X151640164Y-70430971D01*
X151798132Y-70316201D01*
X151936201Y-70178132D01*
X152050971Y-70020164D01*
X152139617Y-69846187D01*
X152199955Y-69660484D01*
X152215691Y-69561125D01*
X152230500Y-69467634D01*
X152230500Y-69272365D01*
X152212730Y-69160174D01*
X152199955Y-69079516D01*
X152139617Y-68893813D01*
X152139617Y-68893812D01*
X152090862Y-68798127D01*
X152050971Y-68719836D01*
X151966573Y-68603671D01*
X151936206Y-68561874D01*
X151936202Y-68561869D01*
X151798130Y-68423797D01*
X151798125Y-68423793D01*
X151640167Y-68309031D01*
X151640166Y-68309030D01*
X151640164Y-68309029D01*
X151584426Y-68280629D01*
X151466187Y-68220382D01*
X151466184Y-68220381D01*
X151280485Y-68160045D01*
X151087634Y-68129500D01*
X151087629Y-68129500D01*
X150892371Y-68129500D01*
X150892366Y-68129500D01*
X150699514Y-68160045D01*
X150513815Y-68220381D01*
X150513812Y-68220382D01*
X150339832Y-68309031D01*
X150181874Y-68423793D01*
X150181869Y-68423797D01*
X150043797Y-68561869D01*
X150043793Y-68561874D01*
X149929031Y-68719832D01*
X149840382Y-68893812D01*
X149840381Y-68893815D01*
X149780045Y-69079514D01*
X149749500Y-69272365D01*
X149749500Y-69467634D01*
X149491400Y-69467634D01*
X149491400Y-66230374D01*
X149511085Y-66163335D01*
X149527719Y-66142693D01*
X149570413Y-66099999D01*
X149613868Y-66056544D01*
X149613871Y-66056538D01*
X149618349Y-66050877D01*
X149619940Y-66052135D01*
X149664350Y-66012183D01*
X149717951Y-66000000D01*
X149757431Y-66000000D01*
X149820551Y-66017267D01*
X149878002Y-66051244D01*
X149881069Y-66052135D01*
X150035826Y-66097097D01*
X150035829Y-66097097D01*
X150035831Y-66097098D01*
X150072706Y-66100000D01*
X150072714Y-66100000D01*
X151379086Y-66100000D01*
X151379094Y-66100000D01*
X151415969Y-66097098D01*
X151415971Y-66097097D01*
X151415973Y-66097097D01*
X151457591Y-66085005D01*
X151573798Y-66051244D01*
X151715265Y-65967581D01*
X151831481Y-65851365D01*
X151915144Y-65709898D01*
X151960998Y-65552069D01*
X151963900Y-65515194D01*
X151963900Y-65274000D01*
X151983585Y-65206961D01*
X152036389Y-65161206D01*
X152087900Y-65150000D01*
X153254086Y-65150000D01*
X153254094Y-65150000D01*
X153290969Y-65147098D01*
X153290971Y-65147097D01*
X153290973Y-65147097D01*
X153332591Y-65135005D01*
X153448798Y-65101244D01*
X153590265Y-65017581D01*
X153706481Y-64901365D01*
X153790144Y-64759898D01*
X153835998Y-64602069D01*
X153838900Y-64565194D01*
X153838900Y-64133806D01*
X153835998Y-64096931D01*
X153830643Y-64078500D01*
X153802236Y-63980724D01*
X153790144Y-63939102D01*
X153706481Y-63797635D01*
X153706479Y-63797633D01*
X153706476Y-63797629D01*
X153590270Y-63681423D01*
X153590261Y-63681416D01*
X153462279Y-63605728D01*
X153414595Y-63554659D01*
X153401400Y-63498996D01*
X153401400Y-61996455D01*
X153401399Y-61996453D01*
X153370638Y-61841810D01*
X153370637Y-61841803D01*
X153370635Y-61841798D01*
X153310297Y-61696127D01*
X153310290Y-61696114D01*
X153222690Y-61565012D01*
X153222689Y-61565011D01*
X153111189Y-61453511D01*
X151894292Y-60236613D01*
X151894288Y-60236610D01*
X151763185Y-60149009D01*
X151763172Y-60149002D01*
X151617501Y-60088664D01*
X151617489Y-60088661D01*
X151462845Y-60057900D01*
X151462842Y-60057900D01*
X150964272Y-60057900D01*
X150897233Y-60038215D01*
X150851478Y-59985411D01*
X150841534Y-59916253D01*
X150870559Y-59852697D01*
X150929337Y-59814923D01*
X150937198Y-59813359D01*
X150937132Y-59813076D01*
X150944679Y-59811292D01*
X150944681Y-59811291D01*
X150944683Y-59811291D01*
X151079531Y-59760996D01*
X151194746Y-59674746D01*
X151280996Y-59559531D01*
X151331291Y-59424683D01*
X151337700Y-59365073D01*
X151337700Y-59365070D01*
X151836700Y-59365070D01*
X151836701Y-59365076D01*
X151843108Y-59424683D01*
X151893402Y-59559528D01*
X151893406Y-59559535D01*
X151979652Y-59674744D01*
X151979655Y-59674747D01*
X152094864Y-59760993D01*
X152094871Y-59760997D01*
X152229717Y-59811291D01*
X152229716Y-59811291D01*
X152236644Y-59812035D01*
X152289327Y-59817700D01*
X153185072Y-59817699D01*
X153244683Y-59811291D01*
X153379531Y-59760996D01*
X153494746Y-59674746D01*
X153580996Y-59559531D01*
X153631291Y-59424683D01*
X153637700Y-59365073D01*
X153637699Y-58269328D01*
X153631291Y-58209717D01*
X153615619Y-58167699D01*
X153580997Y-58074871D01*
X153580993Y-58074864D01*
X153494747Y-57959655D01*
X153494744Y-57959652D01*
X153379535Y-57873406D01*
X153379528Y-57873402D01*
X153244682Y-57823108D01*
X153244683Y-57823108D01*
X153185083Y-57816701D01*
X153185081Y-57816700D01*
X153185073Y-57816700D01*
X153185064Y-57816700D01*
X152289329Y-57816700D01*
X152289323Y-57816701D01*
X152229716Y-57823108D01*
X152094871Y-57873402D01*
X152094864Y-57873406D01*
X151979655Y-57959652D01*
X151979652Y-57959655D01*
X151893406Y-58074864D01*
X151893402Y-58074871D01*
X151843108Y-58209717D01*
X151836701Y-58269316D01*
X151836701Y-58269323D01*
X151836700Y-58269335D01*
X151836700Y-59365070D01*
X151337700Y-59365070D01*
X151337699Y-58269328D01*
X151331291Y-58209717D01*
X151315619Y-58167699D01*
X151280997Y-58074871D01*
X151280993Y-58074864D01*
X151194747Y-57959655D01*
X151194744Y-57959652D01*
X151079535Y-57873406D01*
X151079528Y-57873402D01*
X150944682Y-57823108D01*
X150944683Y-57823108D01*
X150885083Y-57816701D01*
X150885081Y-57816700D01*
X150885073Y-57816700D01*
X150885065Y-57816700D01*
X150711700Y-57816700D01*
X150644661Y-57797015D01*
X150598906Y-57744211D01*
X150587700Y-57692700D01*
X150587699Y-56919329D01*
X150587698Y-56919323D01*
X150585515Y-56899017D01*
X150581291Y-56859717D01*
X150548396Y-56771522D01*
X150530997Y-56724871D01*
X150530993Y-56724864D01*
X150464615Y-56636195D01*
X150886699Y-56636195D01*
X150913618Y-56771522D01*
X150913621Y-56771532D01*
X150966421Y-56899004D01*
X150966428Y-56899017D01*
X151043085Y-57013741D01*
X151043088Y-57013745D01*
X151140654Y-57111311D01*
X151140658Y-57111314D01*
X151255382Y-57187971D01*
X151255395Y-57187978D01*
X151382867Y-57240778D01*
X151382872Y-57240780D01*
X151382876Y-57240780D01*
X151382877Y-57240781D01*
X151518204Y-57267700D01*
X151518207Y-57267700D01*
X151656195Y-57267700D01*
X151747241Y-57249589D01*
X151791528Y-57240780D01*
X151919011Y-57187975D01*
X152033742Y-57111314D01*
X152131314Y-57013742D01*
X152207975Y-56899011D01*
X152260780Y-56771528D01*
X152287700Y-56636193D01*
X152287700Y-56498207D01*
X152287700Y-56498204D01*
X152260781Y-56362877D01*
X152260780Y-56362876D01*
X152260780Y-56362872D01*
X152244040Y-56322457D01*
X152207978Y-56235395D01*
X152207971Y-56235382D01*
X152131314Y-56120658D01*
X152131311Y-56120654D01*
X152033745Y-56023088D01*
X152033741Y-56023085D01*
X151919017Y-55946428D01*
X151919004Y-55946421D01*
X151791532Y-55893621D01*
X151791522Y-55893618D01*
X151656195Y-55866700D01*
X151656193Y-55866700D01*
X151518207Y-55866700D01*
X151518205Y-55866700D01*
X151382877Y-55893618D01*
X151382867Y-55893621D01*
X151255395Y-55946421D01*
X151255382Y-55946428D01*
X151140658Y-56023085D01*
X151140654Y-56023088D01*
X151043088Y-56120654D01*
X151043085Y-56120658D01*
X150966428Y-56235382D01*
X150966421Y-56235395D01*
X150913621Y-56362867D01*
X150913618Y-56362877D01*
X150886700Y-56498204D01*
X150886700Y-56498207D01*
X150886700Y-56636193D01*
X150886700Y-56636195D01*
X150886699Y-56636195D01*
X150464615Y-56636195D01*
X150444747Y-56609655D01*
X150444744Y-56609652D01*
X150329535Y-56523406D01*
X150329528Y-56523402D01*
X150194682Y-56473108D01*
X150194683Y-56473108D01*
X150135083Y-56466701D01*
X150135081Y-56466700D01*
X150135073Y-56466700D01*
X150135064Y-56466700D01*
X148939329Y-56466700D01*
X148939323Y-56466701D01*
X148879716Y-56473108D01*
X148744872Y-56523402D01*
X148744869Y-56523403D01*
X148744869Y-56523404D01*
X148689748Y-56564667D01*
X148681383Y-56570929D01*
X148654529Y-56586221D01*
X148602417Y-56607807D01*
X148471315Y-56695407D01*
X148471307Y-56695413D01*
X148152981Y-57013741D01*
X148105111Y-57061611D01*
X148015353Y-57151369D01*
X148001981Y-57164741D01*
X147940658Y-57198225D01*
X147870966Y-57193241D01*
X147815033Y-57151369D01*
X147790616Y-57085904D01*
X147790300Y-57077059D01*
X147790300Y-56008940D01*
X147809985Y-55941901D01*
X147826619Y-55921259D01*
X148593859Y-55154019D01*
X148655182Y-55120534D01*
X148681540Y-55117700D01*
X148740471Y-55117700D01*
X148783804Y-55125518D01*
X148879717Y-55161291D01*
X148879716Y-55161291D01*
X148886644Y-55162035D01*
X148939327Y-55167700D01*
X150135072Y-55167699D01*
X150194683Y-55161291D01*
X150329531Y-55110996D01*
X150444746Y-55024746D01*
X150530996Y-54909531D01*
X150581291Y-54774683D01*
X150587700Y-54715073D01*
X150587699Y-53919328D01*
X150581291Y-53859717D01*
X150548396Y-53771522D01*
X150530997Y-53724871D01*
X150530996Y-53724869D01*
X150468594Y-53641511D01*
X150466611Y-53636195D01*
X150886699Y-53636195D01*
X150913618Y-53771522D01*
X150913621Y-53771532D01*
X150966421Y-53899004D01*
X150966428Y-53899017D01*
X151043085Y-54013741D01*
X151043088Y-54013745D01*
X151140654Y-54111311D01*
X151140658Y-54111314D01*
X151255382Y-54187971D01*
X151255395Y-54187978D01*
X151382867Y-54240778D01*
X151382872Y-54240780D01*
X151382876Y-54240780D01*
X151382877Y-54240781D01*
X151518204Y-54267700D01*
X151518207Y-54267700D01*
X151656195Y-54267700D01*
X151747241Y-54249589D01*
X151791528Y-54240780D01*
X151919011Y-54187975D01*
X152033742Y-54111314D01*
X152131314Y-54013742D01*
X152207975Y-53899011D01*
X152260780Y-53771528D01*
X152275921Y-53695410D01*
X152287700Y-53636195D01*
X152287700Y-53498204D01*
X152260781Y-53362877D01*
X152260780Y-53362876D01*
X152260780Y-53362872D01*
X152224251Y-53274682D01*
X152207978Y-53235395D01*
X152207971Y-53235382D01*
X152131314Y-53120658D01*
X152131311Y-53120654D01*
X152033745Y-53023088D01*
X152033741Y-53023085D01*
X151919017Y-52946428D01*
X151919004Y-52946421D01*
X151791532Y-52893621D01*
X151791522Y-52893618D01*
X151656195Y-52866700D01*
X151656193Y-52866700D01*
X151518207Y-52866700D01*
X151518205Y-52866700D01*
X151382877Y-52893618D01*
X151382867Y-52893621D01*
X151255395Y-52946421D01*
X151255382Y-52946428D01*
X151140658Y-53023085D01*
X151140654Y-53023088D01*
X151043088Y-53120654D01*
X151043085Y-53120658D01*
X150966428Y-53235382D01*
X150966421Y-53235395D01*
X150913621Y-53362867D01*
X150913618Y-53362877D01*
X150886700Y-53498204D01*
X150886700Y-53498207D01*
X150886700Y-53636193D01*
X150886700Y-53636195D01*
X150886699Y-53636195D01*
X150466611Y-53636195D01*
X150444177Y-53576047D01*
X150459028Y-53507774D01*
X150468594Y-53492889D01*
X150523863Y-53419059D01*
X150530996Y-53409531D01*
X150581291Y-53274683D01*
X150587700Y-53215073D01*
X150587699Y-52441698D01*
X150607383Y-52374660D01*
X150660187Y-52328905D01*
X150711699Y-52317699D01*
X150885071Y-52317699D01*
X150885072Y-52317699D01*
X150944683Y-52311291D01*
X151079531Y-52260996D01*
X151194746Y-52174746D01*
X151280996Y-52059531D01*
X151331291Y-51924683D01*
X151337700Y-51865073D01*
X151337700Y-51865070D01*
X151836700Y-51865070D01*
X151836701Y-51865076D01*
X151843108Y-51924683D01*
X151893402Y-52059528D01*
X151893406Y-52059535D01*
X151979652Y-52174744D01*
X151979655Y-52174747D01*
X152094864Y-52260993D01*
X152094871Y-52260997D01*
X152229717Y-52311291D01*
X152229716Y-52311291D01*
X152236644Y-52312035D01*
X152289327Y-52317700D01*
X153185072Y-52317699D01*
X153244683Y-52311291D01*
X153379531Y-52260996D01*
X153494746Y-52174746D01*
X153580996Y-52059531D01*
X153631291Y-51924683D01*
X153637700Y-51865073D01*
X153637699Y-50769328D01*
X153631291Y-50709717D01*
X153580996Y-50574869D01*
X153580995Y-50574868D01*
X153580993Y-50574864D01*
X153494747Y-50459655D01*
X153494744Y-50459652D01*
X153379535Y-50373406D01*
X153379528Y-50373402D01*
X153244682Y-50323108D01*
X153244683Y-50323108D01*
X153185083Y-50316701D01*
X153185081Y-50316700D01*
X153185073Y-50316700D01*
X153185064Y-50316700D01*
X152289329Y-50316700D01*
X152289323Y-50316701D01*
X152229716Y-50323108D01*
X152094871Y-50373402D01*
X152094864Y-50373406D01*
X151979655Y-50459652D01*
X151979652Y-50459655D01*
X151893406Y-50574864D01*
X151893402Y-50574871D01*
X151843108Y-50709717D01*
X151836701Y-50769316D01*
X151836700Y-50769329D01*
X151836700Y-51865070D01*
X151337700Y-51865070D01*
X151337699Y-50769328D01*
X151331291Y-50709717D01*
X151280996Y-50574869D01*
X151280995Y-50574868D01*
X151280993Y-50574864D01*
X151194747Y-50459655D01*
X151194744Y-50459652D01*
X151079535Y-50373406D01*
X151079528Y-50373402D01*
X150944682Y-50323108D01*
X150944683Y-50323108D01*
X150885083Y-50316701D01*
X150885081Y-50316700D01*
X150885073Y-50316700D01*
X150885064Y-50316700D01*
X149989329Y-50316700D01*
X149989323Y-50316701D01*
X149929716Y-50323108D01*
X149794871Y-50373402D01*
X149794864Y-50373406D01*
X149679655Y-50459652D01*
X149679652Y-50459655D01*
X149593406Y-50574864D01*
X149593402Y-50574871D01*
X149543108Y-50709717D01*
X149536701Y-50769316D01*
X149536700Y-50769329D01*
X149536700Y-51842700D01*
X149517015Y-51909739D01*
X149464211Y-51955494D01*
X149412700Y-51966700D01*
X148939329Y-51966700D01*
X148939323Y-51966701D01*
X148879716Y-51973108D01*
X148744871Y-52023402D01*
X148744864Y-52023406D01*
X148629655Y-52109652D01*
X148629652Y-52109655D01*
X148543406Y-52224864D01*
X148543402Y-52224871D01*
X148493108Y-52359717D01*
X148486701Y-52419316D01*
X148486700Y-52419335D01*
X148486700Y-53215070D01*
X148486701Y-53215076D01*
X148493108Y-53274683D01*
X148520964Y-53349367D01*
X148525948Y-53419059D01*
X148492463Y-53480382D01*
X148431139Y-53513866D01*
X148404782Y-53516700D01*
X148219753Y-53516700D01*
X148065110Y-53547460D01*
X148065102Y-53547462D01*
X147919424Y-53607804D01*
X147919414Y-53607809D01*
X147788311Y-53695410D01*
X147788307Y-53695413D01*
X146768658Y-54715064D01*
X146479511Y-55004211D01*
X146423760Y-55059962D01*
X146368009Y-55115712D01*
X146280409Y-55246814D01*
X146280402Y-55246827D01*
X146220064Y-55392498D01*
X146220061Y-55392510D01*
X146189300Y-55547153D01*
X146189300Y-59286246D01*
X146220061Y-59440889D01*
X146220064Y-59440901D01*
X146280402Y-59586572D01*
X146280409Y-59586585D01*
X146368010Y-59717688D01*
X146368013Y-59717692D01*
X148130507Y-61480186D01*
X148130511Y-61480189D01*
X148261614Y-61567790D01*
X148261618Y-61567792D01*
X148261621Y-61567794D01*
X148407303Y-61628138D01*
X148561953Y-61658899D01*
X148561957Y-61658900D01*
X148561958Y-61658900D01*
X148719643Y-61658900D01*
X151001060Y-61658900D01*
X151068099Y-61678585D01*
X151088741Y-61695219D01*
X151764081Y-62370559D01*
X151797566Y-62431882D01*
X151800400Y-62458240D01*
X151800400Y-62564953D01*
X151780715Y-62631992D01*
X151727911Y-62677747D01*
X151658753Y-62687691D01*
X151613280Y-62671686D01*
X151573594Y-62648216D01*
X151415895Y-62602400D01*
X151415889Y-62602399D01*
X151379049Y-62599500D01*
X150975900Y-62599500D01*
X150975900Y-64199500D01*
X151238900Y-64199500D01*
X151305939Y-64219185D01*
X151351694Y-64271989D01*
X151362900Y-64323500D01*
X151362900Y-64375000D01*
X151343215Y-64442039D01*
X151290411Y-64487794D01*
X151238900Y-64499000D01*
X150072698Y-64499000D01*
X150035832Y-64501901D01*
X150035826Y-64501902D01*
X149878006Y-64547754D01*
X149878005Y-64547754D01*
X149853606Y-64562184D01*
X149785882Y-64579365D01*
X149719620Y-64557205D01*
X149675857Y-64502739D01*
X149668488Y-64433259D01*
X149684948Y-64390353D01*
X149702444Y-64361987D01*
X149702447Y-64361981D01*
X149744142Y-64236154D01*
X149783914Y-64178709D01*
X149848430Y-64151886D01*
X149896443Y-64156082D01*
X150035904Y-64196599D01*
X150035910Y-64196600D01*
X150072750Y-64199499D01*
X150072766Y-64199500D01*
X150475900Y-64199500D01*
X150475900Y-62599500D01*
X150072750Y-62599500D01*
X150035910Y-62602399D01*
X150035904Y-62602400D01*
X149878206Y-62648216D01*
X149878203Y-62648217D01*
X149736847Y-62731814D01*
X149736838Y-62731821D01*
X149620721Y-62847938D01*
X149620717Y-62847944D01*
X149571765Y-62930717D01*
X149520695Y-62978400D01*
X149451954Y-62990903D01*
X149399937Y-62973134D01*
X149349390Y-62941956D01*
X149349381Y-62941952D01*
X149188506Y-62888644D01*
X149089222Y-62878500D01*
X149040900Y-62878500D01*
X149040900Y-63954500D01*
X149021215Y-64021539D01*
X148968411Y-64067294D01*
X148916900Y-64078500D01*
X147815901Y-64078500D01*
X147815901Y-64101822D01*
X147826044Y-64201107D01*
X147879352Y-64361981D01*
X147879357Y-64361992D01*
X147957638Y-64488903D01*
X147976079Y-64556295D01*
X147955157Y-64622958D01*
X147901515Y-64667728D01*
X147852100Y-64678000D01*
X133180504Y-64678000D01*
X133045177Y-64704918D01*
X133045167Y-64704921D01*
X132917692Y-64757722D01*
X132802954Y-64834387D01*
X132802953Y-64834388D01*
X129944181Y-67693161D01*
X129882858Y-67726646D01*
X129813166Y-67721662D01*
X129757233Y-67679790D01*
X129732816Y-67614326D01*
X129732500Y-67605480D01*
X129732500Y-63578500D01*
X147815900Y-63578500D01*
X148540900Y-63578500D01*
X148540900Y-62878500D01*
X148540899Y-62878499D01*
X148492593Y-62878500D01*
X148492575Y-62878501D01*
X148393292Y-62888644D01*
X148232418Y-62941952D01*
X148232407Y-62941957D01*
X148088171Y-63030924D01*
X148088167Y-63030927D01*
X147968327Y-63150767D01*
X147968324Y-63150771D01*
X147879357Y-63295007D01*
X147879352Y-63295018D01*
X147826044Y-63455893D01*
X147815900Y-63555177D01*
X147815900Y-63578500D01*
X129732500Y-63578500D01*
X129732500Y-57110519D01*
X129752185Y-57043480D01*
X129768819Y-57022838D01*
X135678112Y-51113545D01*
X135678114Y-51113543D01*
X135754775Y-50998811D01*
X135807580Y-50871329D01*
X135827869Y-50769327D01*
X135834500Y-50735993D01*
X135834500Y-48108351D01*
X135854185Y-48041312D01*
X135906989Y-47995557D01*
X135945247Y-47985061D01*
X135991483Y-47980091D01*
X136126331Y-47929796D01*
X136241546Y-47843546D01*
X136302046Y-47762727D01*
X136357979Y-47720858D01*
X136427671Y-47715874D01*
X136488994Y-47749359D01*
X136500578Y-47762729D01*
X136560809Y-47843187D01*
X136560812Y-47843190D01*
X136675906Y-47929350D01*
X136675913Y-47929354D01*
X136810620Y-47979596D01*
X136810627Y-47979598D01*
X136870155Y-47985999D01*
X136870172Y-47986000D01*
X137418000Y-47986000D01*
X137418000Y-46986000D01*
X137918000Y-46986000D01*
X137918000Y-47986000D01*
X138465828Y-47986000D01*
X138465844Y-47985999D01*
X138525372Y-47979598D01*
X138525379Y-47979596D01*
X138660086Y-47929354D01*
X138660093Y-47929350D01*
X138775187Y-47843190D01*
X138775190Y-47843187D01*
X138861350Y-47728093D01*
X138861354Y-47728086D01*
X138911596Y-47593379D01*
X138911598Y-47593372D01*
X138917999Y-47533844D01*
X138918000Y-47533827D01*
X138918000Y-46986000D01*
X137918000Y-46986000D01*
X137418000Y-46986000D01*
X137418000Y-45486000D01*
X137918000Y-45486000D01*
X137918000Y-46486000D01*
X138918000Y-46486000D01*
X138918000Y-45938172D01*
X138917999Y-45938155D01*
X138911598Y-45878627D01*
X138911596Y-45878620D01*
X138861354Y-45743913D01*
X138861350Y-45743906D01*
X138775190Y-45628812D01*
X138775187Y-45628809D01*
X138660093Y-45542649D01*
X138660086Y-45542645D01*
X138525379Y-45492403D01*
X138525372Y-45492401D01*
X138465844Y-45486000D01*
X137918000Y-45486000D01*
X137418000Y-45486000D01*
X136870155Y-45486000D01*
X136810627Y-45492401D01*
X136810620Y-45492403D01*
X136675913Y-45542645D01*
X136675906Y-45542649D01*
X136560812Y-45628809D01*
X136500578Y-45709271D01*
X136444644Y-45751141D01*
X136374952Y-45756125D01*
X136313630Y-45722639D01*
X136302046Y-45709271D01*
X136252982Y-45643731D01*
X136241546Y-45628454D01*
X136241544Y-45628453D01*
X136241544Y-45628452D01*
X136126335Y-45542206D01*
X136126328Y-45542202D01*
X135991482Y-45491908D01*
X135991483Y-45491908D01*
X135931883Y-45485501D01*
X135931881Y-45485500D01*
X135931873Y-45485500D01*
X135931864Y-45485500D01*
X134336129Y-45485500D01*
X134336123Y-45485501D01*
X134276516Y-45491908D01*
X134141671Y-45542202D01*
X134141664Y-45542206D01*
X134026455Y-45628452D01*
X134026452Y-45628455D01*
X133940206Y-45743664D01*
X133940202Y-45743671D01*
X133889908Y-45878517D01*
X133883501Y-45938116D01*
X133883500Y-45938135D01*
X133883500Y-47533870D01*
X133883501Y-47533876D01*
X133889908Y-47593483D01*
X133940202Y-47728328D01*
X133940206Y-47728335D01*
X134026452Y-47843544D01*
X134026455Y-47843547D01*
X134141664Y-47929793D01*
X134141671Y-47929797D01*
X134276516Y-47980091D01*
X134322757Y-47985063D01*
X134387307Y-48011801D01*
X134427155Y-48069194D01*
X134433500Y-48108352D01*
X134433500Y-50325481D01*
X134413815Y-50392520D01*
X134397181Y-50413162D01*
X128487885Y-56322457D01*
X128479245Y-56335390D01*
X128479242Y-56335394D01*
X128411223Y-56437191D01*
X128358421Y-56564667D01*
X128358418Y-56564677D01*
X128331500Y-56700004D01*
X128331500Y-68223648D01*
X128311815Y-68290687D01*
X128259011Y-68336442D01*
X128220755Y-68346938D01*
X128174516Y-68351909D01*
X128039671Y-68402202D01*
X128039664Y-68402206D01*
X127924455Y-68488452D01*
X127860953Y-68573279D01*
X127805019Y-68615149D01*
X127735327Y-68620133D01*
X127674004Y-68586647D01*
X127662420Y-68573278D01*
X127599186Y-68488808D01*
X127484093Y-68402649D01*
X127484086Y-68402645D01*
X127349379Y-68352403D01*
X127349372Y-68352401D01*
X127289844Y-68346000D01*
X126742000Y-68346000D01*
X126742000Y-70846000D01*
X127289828Y-70846000D01*
X127289844Y-70845999D01*
X127349372Y-70839598D01*
X127349379Y-70839596D01*
X127484086Y-70789354D01*
X127484093Y-70789350D01*
X127599187Y-70703190D01*
X127599188Y-70703189D01*
X127662420Y-70618722D01*
X127718353Y-70576850D01*
X127788045Y-70571866D01*
X127849368Y-70605351D01*
X127860953Y-70618720D01*
X127884744Y-70650500D01*
X127924187Y-70703190D01*
X127924455Y-70703547D01*
X128039664Y-70789793D01*
X128039671Y-70789797D01*
X128151566Y-70831531D01*
X128207500Y-70873402D01*
X128231917Y-70938866D01*
X128226164Y-70986031D01*
X128195504Y-71080393D01*
X128195503Y-71080397D01*
X128188538Y-71146664D01*
X128161954Y-71211276D01*
X128104657Y-71251261D01*
X128065218Y-71257700D01*
X126655719Y-71257700D01*
X126588680Y-71238015D01*
X126568038Y-71221381D01*
X126278319Y-70931662D01*
X126244834Y-70870339D01*
X126242000Y-70843981D01*
X126242000Y-68346000D01*
X125694155Y-68346000D01*
X125634627Y-68352401D01*
X125634620Y-68352403D01*
X125499913Y-68402645D01*
X125499906Y-68402649D01*
X125384812Y-68488809D01*
X125321578Y-68573279D01*
X125265644Y-68615149D01*
X125195953Y-68620133D01*
X125134630Y-68586647D01*
X125123046Y-68573278D01*
X125059547Y-68488455D01*
X125059544Y-68488452D01*
X124944335Y-68402206D01*
X124944328Y-68402202D01*
X124809482Y-68351908D01*
X124809483Y-68351908D01*
X124749883Y-68345501D01*
X124749881Y-68345500D01*
X124749873Y-68345500D01*
X124749864Y-68345500D01*
X123154129Y-68345500D01*
X123154123Y-68345501D01*
X123094516Y-68351908D01*
X122959671Y-68402202D01*
X122959664Y-68402206D01*
X122844455Y-68488452D01*
X122844452Y-68488455D01*
X122781266Y-68572861D01*
X122725332Y-68614732D01*
X122655641Y-68619716D01*
X122594318Y-68586230D01*
X122582734Y-68572861D01*
X122519547Y-68488455D01*
X122519544Y-68488452D01*
X122404335Y-68402206D01*
X122404328Y-68402202D01*
X122269482Y-68351908D01*
X122269483Y-68351908D01*
X122209883Y-68345501D01*
X122209881Y-68345500D01*
X122209873Y-68345500D01*
X122209864Y-68345500D01*
X120614129Y-68345500D01*
X120614123Y-68345501D01*
X120554516Y-68351908D01*
X120419671Y-68402202D01*
X120419664Y-68402206D01*
X120304455Y-68488452D01*
X120304452Y-68488455D01*
X120218206Y-68603664D01*
X120218202Y-68603671D01*
X120167908Y-68738517D01*
X120161501Y-68798116D01*
X120161500Y-68798135D01*
X120161500Y-70393870D01*
X120161501Y-70393876D01*
X120167908Y-70453483D01*
X120218202Y-70588328D01*
X120218206Y-70588335D01*
X120304452Y-70703544D01*
X120304455Y-70703547D01*
X120419664Y-70789793D01*
X120419671Y-70789797D01*
X120554517Y-70840091D01*
X120554516Y-70840091D01*
X120561444Y-70840835D01*
X120614127Y-70846500D01*
X121620480Y-70846499D01*
X121687519Y-70866183D01*
X121708161Y-70882818D01*
X123736762Y-72911419D01*
X123770247Y-72972742D01*
X123765263Y-73042434D01*
X123723391Y-73098367D01*
X123657927Y-73122784D01*
X123649081Y-73123100D01*
X123195998Y-73123100D01*
X123195980Y-73123101D01*
X123093203Y-73133600D01*
X123093200Y-73133601D01*
X122926668Y-73188785D01*
X122926663Y-73188787D01*
X122777342Y-73280889D01*
X122653289Y-73404942D01*
X122561187Y-73554263D01*
X122561185Y-73554268D01*
X122541681Y-73613127D01*
X122506001Y-73720803D01*
X122506001Y-73720804D01*
X122506000Y-73720804D01*
X122495500Y-73823583D01*
X122495500Y-75223601D01*
X122495501Y-75223618D01*
X122506000Y-75326396D01*
X122506001Y-75326399D01*
X122559059Y-75486516D01*
X122561186Y-75492934D01*
X122653096Y-75641945D01*
X122653289Y-75642257D01*
X122734181Y-75723149D01*
X122767666Y-75784472D01*
X122770500Y-75810830D01*
X122770500Y-75877970D01*
X122750815Y-75945009D01*
X122734181Y-75965651D01*
X122653289Y-76046542D01*
X122561187Y-76195863D01*
X122561185Y-76195868D01*
X122542674Y-76251732D01*
X122506001Y-76362403D01*
X122506001Y-76362404D01*
X122506000Y-76362404D01*
X122495500Y-76465183D01*
X122495500Y-77865201D01*
X122495501Y-77865218D01*
X122506000Y-77967996D01*
X122519020Y-78007286D01*
X122534598Y-78054296D01*
X122537000Y-78124124D01*
X122501269Y-78184166D01*
X122438748Y-78215359D01*
X122416892Y-78217300D01*
X121774582Y-78217300D01*
X121707543Y-78197615D01*
X121661788Y-78144811D01*
X121651844Y-78075653D01*
X121656876Y-78054297D01*
X121685504Y-77967900D01*
X121685506Y-77967890D01*
X121695999Y-77865186D01*
X121696000Y-77865173D01*
X121696000Y-77415200D01*
X119546001Y-77415200D01*
X119546001Y-77865186D01*
X119556494Y-77967897D01*
X119585124Y-78054296D01*
X119587526Y-78124124D01*
X119551794Y-78184166D01*
X119489274Y-78215359D01*
X119467418Y-78217300D01*
X119340519Y-78217300D01*
X119273480Y-78197615D01*
X119252838Y-78180981D01*
X117987057Y-76915200D01*
X119546000Y-76915200D01*
X120371000Y-76915200D01*
X120371000Y-74773600D01*
X120871000Y-74773600D01*
X120871000Y-76915200D01*
X121695999Y-76915200D01*
X121695999Y-76465228D01*
X121695998Y-76465213D01*
X121685505Y-76362502D01*
X121630358Y-76196080D01*
X121630356Y-76196075D01*
X121538315Y-76046854D01*
X121423542Y-75932081D01*
X121390057Y-75870758D01*
X121395041Y-75801066D01*
X121423542Y-75756719D01*
X121538315Y-75641945D01*
X121630356Y-75492724D01*
X121630358Y-75492719D01*
X121685505Y-75326297D01*
X121685506Y-75326290D01*
X121695999Y-75223586D01*
X121696000Y-75223573D01*
X121696000Y-74773600D01*
X120871000Y-74773600D01*
X120371000Y-74773600D01*
X119546001Y-74773600D01*
X119546001Y-75223586D01*
X119556494Y-75326297D01*
X119611641Y-75492719D01*
X119611643Y-75492724D01*
X119703684Y-75641945D01*
X119818458Y-75756719D01*
X119851943Y-75818042D01*
X119846959Y-75887734D01*
X119818458Y-75932081D01*
X119703684Y-76046854D01*
X119611643Y-76196075D01*
X119611641Y-76196080D01*
X119556494Y-76362502D01*
X119556493Y-76362509D01*
X119546000Y-76465213D01*
X119546000Y-76915200D01*
X117987057Y-76915200D01*
X117594419Y-76522562D01*
X117560934Y-76461239D01*
X117558100Y-76434881D01*
X117558100Y-74750261D01*
X117577785Y-74683222D01*
X117618018Y-74645762D01*
X117617831Y-74645512D01*
X117620165Y-74643764D01*
X117622676Y-74641427D01*
X117624923Y-74640198D01*
X117624931Y-74640196D01*
X117740146Y-74553946D01*
X117826396Y-74438731D01*
X117876691Y-74303883D01*
X117879947Y-74273600D01*
X119546000Y-74273600D01*
X120371000Y-74273600D01*
X120371000Y-73123600D01*
X120871000Y-73123600D01*
X120871000Y-74273600D01*
X121695999Y-74273600D01*
X121695999Y-73823628D01*
X121695998Y-73823613D01*
X121685505Y-73720902D01*
X121630358Y-73554480D01*
X121630356Y-73554475D01*
X121538315Y-73405254D01*
X121414345Y-73281284D01*
X121265124Y-73189243D01*
X121265119Y-73189241D01*
X121098697Y-73134094D01*
X121098690Y-73134093D01*
X120995986Y-73123600D01*
X120871000Y-73123600D01*
X120371000Y-73123600D01*
X120246027Y-73123600D01*
X120246012Y-73123601D01*
X120143302Y-73134094D01*
X119976880Y-73189241D01*
X119976875Y-73189243D01*
X119827654Y-73281284D01*
X119703684Y-73405254D01*
X119611643Y-73554475D01*
X119611641Y-73554480D01*
X119556494Y-73720902D01*
X119556493Y-73720909D01*
X119546000Y-73823613D01*
X119546000Y-74273600D01*
X117879947Y-74273600D01*
X117883100Y-74244273D01*
X117883099Y-73498528D01*
X117876691Y-73438917D01*
X117871470Y-73424920D01*
X117826397Y-73304071D01*
X117826393Y-73304064D01*
X117740147Y-73188855D01*
X117740144Y-73188852D01*
X117624935Y-73102606D01*
X117624928Y-73102602D01*
X117490082Y-73052308D01*
X117490083Y-73052308D01*
X117430483Y-73045901D01*
X117430481Y-73045900D01*
X117430473Y-73045900D01*
X117430464Y-73045900D01*
X116284729Y-73045900D01*
X116284723Y-73045901D01*
X116225116Y-73052308D01*
X116090271Y-73102602D01*
X116090268Y-73102604D01*
X116032076Y-73146167D01*
X115966611Y-73170584D01*
X115957765Y-73170900D01*
X113607435Y-73170900D01*
X113540396Y-73151215D01*
X113533124Y-73146167D01*
X113474931Y-73102604D01*
X113474928Y-73102602D01*
X113340082Y-73052308D01*
X113340083Y-73052308D01*
X113280483Y-73045901D01*
X113280481Y-73045900D01*
X113280473Y-73045900D01*
X113280464Y-73045900D01*
X112134729Y-73045900D01*
X112134723Y-73045901D01*
X112075116Y-73052308D01*
X111940271Y-73102602D01*
X111940264Y-73102606D01*
X111825055Y-73188852D01*
X111825052Y-73188855D01*
X111738806Y-73304064D01*
X111738802Y-73304071D01*
X111688510Y-73438913D01*
X111688509Y-73438917D01*
X111682100Y-73498527D01*
X111682100Y-73498534D01*
X111682100Y-73498535D01*
X111682100Y-74244270D01*
X109314100Y-74244270D01*
X109314100Y-71971400D01*
X111682600Y-71971400D01*
X111682600Y-72094244D01*
X111689001Y-72153772D01*
X111689003Y-72153779D01*
X111739245Y-72288486D01*
X111739249Y-72288493D01*
X111825409Y-72403587D01*
X111825412Y-72403590D01*
X111940506Y-72489750D01*
X111940513Y-72489754D01*
X112075220Y-72539996D01*
X112075227Y-72539998D01*
X112134755Y-72546399D01*
X112134772Y-72546400D01*
X112457600Y-72546400D01*
X112457600Y-71971400D01*
X112957600Y-71971400D01*
X112957600Y-72546400D01*
X113280428Y-72546400D01*
X113280444Y-72546399D01*
X113339972Y-72539998D01*
X113339979Y-72539996D01*
X113474686Y-72489754D01*
X113474693Y-72489750D01*
X113589787Y-72403590D01*
X113589790Y-72403587D01*
X113675950Y-72288493D01*
X113675954Y-72288486D01*
X113726196Y-72153779D01*
X113726198Y-72153772D01*
X113732599Y-72094244D01*
X113732600Y-72094227D01*
X113732600Y-71971400D01*
X115832600Y-71971400D01*
X115832600Y-72094244D01*
X115839001Y-72153772D01*
X115839003Y-72153779D01*
X115889245Y-72288486D01*
X115889249Y-72288493D01*
X115975409Y-72403587D01*
X115975412Y-72403590D01*
X116090506Y-72489750D01*
X116090513Y-72489754D01*
X116225220Y-72539996D01*
X116225227Y-72539998D01*
X116284755Y-72546399D01*
X116284772Y-72546400D01*
X116607600Y-72546400D01*
X116607600Y-71971400D01*
X117107600Y-71971400D01*
X117107600Y-72546400D01*
X117430428Y-72546400D01*
X117430444Y-72546399D01*
X117489972Y-72539998D01*
X117489979Y-72539996D01*
X117624686Y-72489754D01*
X117624693Y-72489750D01*
X117739787Y-72403590D01*
X117739790Y-72403587D01*
X117825950Y-72288493D01*
X117825954Y-72288486D01*
X117876196Y-72153779D01*
X117876198Y-72153772D01*
X117882599Y-72094244D01*
X117882600Y-72094227D01*
X117882600Y-71971400D01*
X117107600Y-71971400D01*
X116607600Y-71971400D01*
X115832600Y-71971400D01*
X113732600Y-71971400D01*
X112957600Y-71971400D01*
X112457600Y-71971400D01*
X111682600Y-71971400D01*
X109314100Y-71971400D01*
X109314100Y-71471400D01*
X111682600Y-71471400D01*
X112457600Y-71471400D01*
X112457600Y-70896400D01*
X112957600Y-70896400D01*
X112957600Y-71471400D01*
X113732600Y-71471400D01*
X115832600Y-71471400D01*
X116607600Y-71471400D01*
X116607600Y-70896400D01*
X117107600Y-70896400D01*
X117107600Y-71471400D01*
X117882600Y-71471400D01*
X117882600Y-71348572D01*
X117882599Y-71348555D01*
X117876198Y-71289027D01*
X117876196Y-71289020D01*
X117825954Y-71154313D01*
X117825950Y-71154306D01*
X117739790Y-71039212D01*
X117739787Y-71039209D01*
X117624693Y-70953049D01*
X117624686Y-70953045D01*
X117489979Y-70902803D01*
X117489972Y-70902801D01*
X117430444Y-70896400D01*
X117107600Y-70896400D01*
X116607600Y-70896400D01*
X116284755Y-70896400D01*
X116225227Y-70902801D01*
X116225220Y-70902803D01*
X116090513Y-70953045D01*
X116090506Y-70953049D01*
X115975412Y-71039209D01*
X115975409Y-71039212D01*
X115889249Y-71154306D01*
X115889245Y-71154313D01*
X115839003Y-71289020D01*
X115839001Y-71289027D01*
X115832600Y-71348555D01*
X115832600Y-71471400D01*
X113732600Y-71471400D01*
X113732600Y-71348572D01*
X113732599Y-71348555D01*
X113726198Y-71289027D01*
X113726196Y-71289020D01*
X113675954Y-71154313D01*
X113675950Y-71154306D01*
X113589790Y-71039212D01*
X113589787Y-71039209D01*
X113474693Y-70953049D01*
X113474686Y-70953045D01*
X113339979Y-70902803D01*
X113339972Y-70902801D01*
X113280444Y-70896400D01*
X112957600Y-70896400D01*
X112457600Y-70896400D01*
X112134755Y-70896400D01*
X112075227Y-70902801D01*
X112075220Y-70902803D01*
X111940513Y-70953045D01*
X111940506Y-70953049D01*
X111825412Y-71039209D01*
X111825409Y-71039212D01*
X111739249Y-71154306D01*
X111739245Y-71154313D01*
X111689003Y-71289020D01*
X111689001Y-71289027D01*
X111682600Y-71348555D01*
X111682600Y-71471400D01*
X109314100Y-71471400D01*
X109314100Y-45870227D01*
X109314416Y-45861381D01*
X109321944Y-45756125D01*
X109328730Y-45661236D01*
X109331246Y-45643738D01*
X109372956Y-45451999D01*
X109377933Y-45435048D01*
X109446511Y-45251185D01*
X109453859Y-45235098D01*
X109516415Y-45120534D01*
X109547891Y-45062889D01*
X109557445Y-45048021D01*
X109675048Y-44890923D01*
X109686620Y-44877569D01*
X109825369Y-44738820D01*
X109838723Y-44727248D01*
X109995821Y-44609645D01*
X110010689Y-44600091D01*
X110182898Y-44506058D01*
X110198985Y-44498711D01*
X110382848Y-44430133D01*
X110399799Y-44425156D01*
X110591538Y-44383446D01*
X110609036Y-44380930D01*
X110809182Y-44366616D01*
X110818028Y-44366300D01*
X110879492Y-44366300D01*
X153229708Y-44366300D01*
X153291172Y-44366300D01*
X153300018Y-44366616D01*
G37*
G04 #@! TD.AperFunction*
M02*
